G04 DipTrace 3.0.0.1*
G04 BottomSilk.gbr*
%MOIN*%
G04 #@! TF.FileFunction,Legend,Bot*
G04 #@! TF.Part,Single*
%ADD40C,0.006176*%
%FSLAX26Y26*%
G04*
G70*
G90*
G75*
G01*
G04 BotSilk*
%LPD*%
X1362737Y2368469D2*
D40*
X1345537D1*
X1339789Y2370414D1*
X1337843Y2372316D1*
X1335942Y2376118D1*
Y2379965D1*
X1337843Y2383768D1*
X1339789Y2385713D1*
X1345537Y2387614D1*
X1362737D1*
Y2347422D1*
X1349339Y2368469D2*
X1335942Y2347422D1*
X1323591Y2362721D2*
X1300643D1*
Y2366568D1*
X1302544Y2370414D1*
X1304445Y2372316D1*
X1308292Y2374217D1*
X1314040D1*
X1317843Y2372316D1*
X1321689Y2368469D1*
X1323591Y2362721D1*
Y2358918D1*
X1321689Y2353170D1*
X1317843Y2349368D1*
X1314040Y2347422D1*
X1308292D1*
X1304445Y2349368D1*
X1300643Y2353170D1*
X1288291Y2374217D2*
X1276795Y2347422D1*
X1265343Y2374217D1*
X1214111Y2379921D2*
X1210264Y2381866D1*
X1204516Y2387570D1*
Y2347422D1*
X1190264Y2351269D2*
X1192165Y2349324D1*
X1190264Y2347422D1*
X1188318Y2349324D1*
X1190264Y2351269D1*
X1164471Y2387570D2*
X1170219Y2385669D1*
X1174066Y2379921D1*
X1175967Y2370370D1*
Y2364622D1*
X1174066Y2355072D1*
X1170219Y2349324D1*
X1164471Y2347422D1*
X1160668D1*
X1154920Y2349324D1*
X1151118Y2355072D1*
X1149172Y2364622D1*
Y2370370D1*
X1151118Y2379921D1*
X1154920Y2385669D1*
X1160668Y2387570D1*
X1164471D1*
X1151118Y2379921D2*
X1174066Y2355072D1*
X1136821Y2387614D2*
Y2347422D1*
Y2368469D2*
X1132974Y2372316D1*
X1129171Y2374217D1*
X1123423D1*
X1119621Y2372316D1*
X1115774Y2368469D1*
X1113873Y2362721D1*
Y2358918D1*
X1115774Y2353170D1*
X1119621Y2349368D1*
X1123423Y2347422D1*
X1129171D1*
X1132974Y2349368D1*
X1136821Y2353170D1*
M02*
