M48
INCH
T01C0.019
T02C0.0354
T03C0.0433
T04C0.1024
%
T01
X+006602Y+006917
X+006791Y+022705
X+012165Y+024043
X+015854Y+023327
T02
X+017480Y+010051
X+018480Y+010051
X+018480Y+011051
X+017480Y+011051
X+017480Y+012051
X+018480Y+012051
X+018480Y+013051
X+017480Y+013051
X+017480Y+014051
X+018480Y+014051
X+018480Y+015051
X+017480Y+015051
X+017480Y+016051
X+018480Y+016051
X+018480Y+017051
X+017480Y+017051
X+017480Y+018051
X+018480Y+018051
X+018480Y+019051
X+018480Y+020051
X+018480Y+021051
X+017480Y+021051
X+017480Y+022051
X+018480Y+022051
X+018480Y+023051
X+018480Y+024051
X+019480Y+024051
X+019480Y+023051
X+019480Y+022051
X+019480Y+021051
X+019480Y+020051
X+019480Y+019051
X+019480Y+018051
X+019480Y+017051
X+019480Y+016051
X+019480Y+015051
X+019480Y+014051
X+019480Y+013051
X+019480Y+012051
X+019480Y+011051
X+019480Y+010051
X+019480Y+009051
X+018480Y+009051
X+017480Y+009051
X+017480Y+008051
X+018480Y+008051
X+018480Y+007051
X+017480Y+007051
X+018480Y+006051
X+018480Y+005051
X+019480Y+005051
X+019480Y+006051
X+019480Y+007051
X+019480Y+008051
X+005732Y+008051
X+005732Y+007051
X+004732Y+007051
X+004732Y+008051
X+004732Y+009051
X+004732Y+010051
X+004732Y+011051
X+004732Y+012051
X+004732Y+013051
X+004732Y+014051
X+004732Y+015051
X+004732Y+016051
X+004732Y+017051
X+005732Y+017051
X+005732Y+016051
X+005732Y+015051
X+005732Y+014051
X+005732Y+013051
X+005732Y+012051
X+005732Y+011051
X+005732Y+010051
X+005732Y+009051
X+005732Y+006051
X+005732Y+005051
X+004732Y+005051
X+004732Y+006051
X+004732Y+018051
X+004732Y+019051
X+004732Y+020051
X+005732Y+020051
X+005732Y+021051
X+004732Y+021051
X+004732Y+022051
X+004732Y+023051
X+004732Y+024051
X+005732Y+024051
X+005732Y+023051
X+005732Y+022051
X+005732Y+019051
X+005732Y+018051
X+017480Y+023051
T03
X+010106Y+007051
X+009106Y+007051
X+008106Y+007051
X+008106Y+008051
X+009106Y+008051
X+009106Y+009051
X+010106Y+009051
X+010106Y+008051
X+011106Y+008051
X+012106Y+008051
X+012106Y+009051
X+011106Y+009051
X+011106Y+010051
X+012106Y+010051
X+012106Y+011051
X+012106Y+012051
X+011106Y+012051
X+011106Y+011051
X+010106Y+011051
X+010106Y+010051
X+009106Y+010051
X+008106Y+010051
X+008106Y+011051
X+008106Y+012051
X+009106Y+012051
X+009106Y+011051
X+010106Y+012051
X+010106Y+013051
X+010106Y+014051
X+009106Y+014051
X+009106Y+013051
X+008106Y+013051
X+008106Y+014051
X+008106Y+015051
X+009106Y+015051
X+010106Y+015051
X+010106Y+016051
X+009106Y+016051
X+008106Y+016051
X+008106Y+017051
X+008106Y+018051
X+009106Y+018051
X+009106Y+017051
X+010106Y+017051
X+010106Y+018051
X+010106Y+019051
X+010106Y+020051
X+009106Y+020051
X+009106Y+019051
X+008106Y+019051
X+008106Y+020051
X+008106Y+021051
X+009106Y+021051
X+010106Y+021051
X+010106Y+022051
X+009106Y+022051
X+008106Y+022051
X+011106Y+022051
X+012106Y+022051
X+012106Y+021051
X+011106Y+021051
X+011106Y+020051
X+011106Y+019051
X+012106Y+019051
X+012106Y+020051
X+013106Y+020051
X+013106Y+019051
X+013106Y+018051
X+013106Y+017051
X+012106Y+017051
X+012106Y+018051
X+011106Y+018051
X+011106Y+017051
X+011106Y+016051
X+012106Y+016051
X+013106Y+016051
X+013106Y+015051
X+012106Y+015051
X+011106Y+015051
X+011106Y+014051
X+011106Y+013051
X+012106Y+013051
X+012106Y+014051
X+013106Y+014051
X+013106Y+013051
X+013106Y+012051
X+013106Y+011051
X+013106Y+010051
X+013106Y+009051
X+013106Y+008051
X+013106Y+007051
X+012106Y+007051
X+011106Y+007051
X+011106Y+005441
X+010106Y+005441
X+009106Y+005441
X+012106Y+005441
X+013106Y+005441
X+014106Y+005441
X+015106Y+005441
X+016106Y+005441
X+016106Y+007051
X+015106Y+007051
X+014106Y+007051
X+014106Y+008051
X+015106Y+008051
X+016106Y+008051
X+016106Y+009051
X+015106Y+009051
X+014106Y+009051
X+014106Y+010051
X+015106Y+010051
X+016106Y+010051
X+016106Y+011051
X+015106Y+011051
X+014106Y+011051
X+014106Y+012051
X+015106Y+012051
X+016106Y+012051
X+016106Y+013051
X+015106Y+013051
X+015106Y+014051
X+016106Y+014051
X+016106Y+015051
X+015106Y+015051
X+014106Y+015051
X+014106Y+014051
X+014106Y+013051
X+014106Y+016051
X+015106Y+016051
X+016106Y+016051
X+016106Y+017051
X+016106Y+018051
X+015106Y+018051
X+014106Y+018051
X+014106Y+017051
X+015106Y+017051
X+015106Y+019051
X+014106Y+019051
X+014106Y+020051
X+015106Y+020051
X+016106Y+020051
X+016106Y+019051
X+016106Y+021051
X+015106Y+021051
X+014106Y+021051
X+013106Y+021051
X+013106Y+022051
X+014106Y+022051
X+015106Y+022051
X+016106Y+022051
X+008106Y+009051
T04
X+014630Y+023421
X+007201Y+004827
T00
M30
