G04 DipTrace 3.0.0.1*
G04 TopSilk.gbr*
%MOIN*%
G04 #@! TF.FileFunction,Legend,Top*
G04 #@! TF.Part,Single*
%ADD10C,0.009843*%
%ADD12C,0.002992*%
%ADD37C,0.004632*%
%ADD38C,0.003088*%
%ADD39C,0.009264*%
%FSLAX26Y26*%
G04*
G70*
G90*
G75*
G01*
G04 TopSilk*
%LPD*%
X423229Y455118D2*
D10*
X623229D1*
X423229Y2455118D2*
X623229D1*
Y455118D1*
X423229Y2455118D2*
Y455118D1*
X1798032D2*
X1998032D1*
X1798032Y2455118D2*
X1998032D1*
Y455118D1*
X1798032Y2455118D2*
Y455118D1*
X1200940Y2451733D2*
D12*
X1233852D1*
X1199547Y2448741D2*
X1235244D1*
X1198535Y2445749D2*
X1236256D1*
X1197618Y2442757D2*
X1237174D1*
X1141100Y2439765D2*
X1153068D1*
X1195275D2*
X1239516D1*
X1281724D2*
X1293692D1*
X1136961Y2436773D2*
X1159052D1*
X1189614D2*
X1245177D1*
X1275740D2*
X1297830D1*
X1132607Y2433781D2*
X1165036D1*
X1182988D2*
X1251804D1*
X1269756D2*
X1302184D1*
X1127978Y2430789D2*
X1306813D1*
X1123148Y2427797D2*
X1311644D1*
X1126140Y2424805D2*
X1308652D1*
X1129132Y2421813D2*
X1305660D1*
X1132124Y2418821D2*
X1302668D1*
X1135116Y2415829D2*
X1299676D1*
X1138108Y2412837D2*
X1296684D1*
X1141100Y2409845D2*
X1293692D1*
X1139095Y2406853D2*
X1295696D1*
X1136620Y2403861D2*
X1298171D1*
X1133388Y2400869D2*
X1301403D1*
X1125468Y2397877D2*
X1201528D1*
X1233264D2*
X1309324D1*
X1114656Y2394885D2*
X1196797D1*
X1237994D2*
X1320135D1*
X1102204Y2391893D2*
X1192920D1*
X1241871D2*
X1332588D1*
X1102204Y2388901D2*
X1189941D1*
X1244851D2*
X1332588D1*
X1102204Y2385909D2*
X1187620D1*
X1247171D2*
X1332588D1*
X1102204Y2382917D2*
X1186788D1*
X1248003D2*
X1332588D1*
X1102239Y2379925D2*
X1186447D1*
X1248344D2*
X1332552D1*
X1102344Y2376933D2*
X1186471D1*
X1248320D2*
X1332447D1*
X1103618Y2373941D2*
X1187929D1*
X1246862D2*
X1331173D1*
X1109224Y2370949D2*
X1190406D1*
X1244385D2*
X1325567D1*
X1117106Y2367957D2*
X1193893D1*
X1240899D2*
X1317685D1*
X1124905Y2364965D2*
X1197647D1*
X1237144D2*
X1309886D1*
X1130550Y2361973D2*
X1201022D1*
X1233770D2*
X1304241D1*
X1134655Y2358981D2*
X1202357D1*
X1232434D2*
X1300136D1*
X1136549Y2355989D2*
X1201986D1*
X1232805D2*
X1298242D1*
X1137106Y2352997D2*
X1200463D1*
X1234328D2*
X1297685D1*
X1136046Y2350005D2*
X1198766D1*
X1236025D2*
X1298745D1*
X1134186Y2347013D2*
X1196897D1*
X1237895D2*
X1300605D1*
X1131742Y2344021D2*
X1194908D1*
X1239883D2*
X1303049D1*
X1128985Y2341029D2*
X1192959D1*
X1241832D2*
X1305806D1*
X1126089Y2338037D2*
X1190988D1*
X1243803D2*
X1308702D1*
X1123148Y2335045D2*
X1189040D1*
X1245751D2*
X1311644D1*
X1127276Y2332053D2*
X1187386D1*
X1247405D2*
X1307515D1*
X1131545Y2329061D2*
X1168028D1*
X1174012D2*
X1185980D1*
X1248812D2*
X1260780D1*
X1266764D2*
X1303246D1*
X1135848Y2326069D2*
X1162044D1*
X1272748D2*
X1298943D1*
X1140040Y2323077D2*
X1156060D1*
X1278732D2*
X1294751D1*
X1144092Y2320085D2*
X1150076D1*
X1284716D2*
X1290700D1*
X1072284Y2305125D2*
X1087244D1*
X1099212D2*
X1120156D1*
X1135116D2*
X1147084D1*
X1159052D2*
X1179996D1*
X1206924D2*
X1224876D1*
X1236844D2*
X1251804D1*
X1263772D2*
X1266764D1*
X1281724D2*
X1287708D1*
X1293692D2*
X1314636D1*
X1320620D2*
X1335580D1*
X1347548D2*
X1362508D1*
X1072284Y2302133D2*
X1090006D1*
X1099212D2*
X1121537D1*
X1132353D2*
X1149834D1*
X1159052D2*
X1181377D1*
X1205665D2*
X1227868D1*
X1234402D2*
X1254208D1*
X1263772D2*
X1266886D1*
X1281724D2*
X1287708D1*
X1293692D2*
X1338572D1*
X1345143D2*
X1362508D1*
X1072284Y2299141D2*
X1075276D1*
X1083702D2*
X1092051D1*
X1099212D2*
X1108738D1*
X1113622D2*
X1122396D1*
X1130308D2*
X1135116D1*
X1144092D2*
X1151845D1*
X1159052D2*
X1168616D1*
X1177004D2*
X1182236D1*
X1204916D2*
X1209916D1*
X1221884D2*
X1226278D1*
X1232459D2*
X1240386D1*
X1248262D2*
X1255946D1*
X1263772D2*
X1267351D1*
X1281724D2*
X1287708D1*
X1293692D2*
X1303256D1*
X1311067D2*
X1324162D1*
X1332588D2*
X1335580D1*
X1343382D2*
X1350540D1*
X1359516D2*
X1362508D1*
X1072295Y2296149D2*
X1075276D1*
X1085644D2*
X1092550D1*
X1099212D2*
X1106795D1*
X1115564D2*
X1122807D1*
X1129707D2*
X1152232D1*
X1159052D2*
X1166866D1*
X1177004D2*
X1182671D1*
X1205746D2*
X1224876D1*
X1230860D2*
X1238443D1*
X1250204D2*
X1257115D1*
X1263795D2*
X1268374D1*
X1281724D2*
X1287708D1*
X1293692D2*
X1301506D1*
X1312946D2*
X1322219D1*
X1342312D2*
X1362496D1*
X1072409Y2293157D2*
X1075276D1*
X1087244D2*
X1092665D1*
X1099212D2*
X1105196D1*
X1117164D2*
X1122743D1*
X1129610D2*
X1151321D1*
X1159052D2*
X1165864D1*
X1177004D2*
X1182864D1*
X1206924D2*
X1236844D1*
X1251804D2*
X1257101D1*
X1264023D2*
X1269756D1*
X1281724D2*
X1287708D1*
X1293692D2*
X1300504D1*
X1314559D2*
X1320620D1*
X1341564D2*
X1362382D1*
X1072872Y2290165D2*
X1091384D1*
X1099212D2*
X1122210D1*
X1129977D2*
X1138108D1*
X1144092D2*
X1150076D1*
X1159052D2*
X1165377D1*
X1177004D2*
X1182942D1*
X1203745D2*
X1209916D1*
X1218892D2*
X1255753D1*
X1264566D2*
X1287708D1*
X1293692D2*
X1300017D1*
X1316712D2*
X1350540D1*
X1356524D2*
X1361920D1*
X1073894Y2287173D2*
X1089473D1*
X1099212D2*
X1118852D1*
X1132279D2*
X1153068D1*
X1159052D2*
X1165159D1*
X1177004D2*
X1182972D1*
X1200940D2*
X1226732D1*
X1233852D2*
X1252516D1*
X1266898D2*
X1287708D1*
X1293692D2*
X1299799D1*
X1319866D2*
X1338572D1*
X1344556D2*
X1360897D1*
X1075276Y2284181D2*
X1087244D1*
X1099212D2*
X1114352D1*
X1135116D2*
X1147084D1*
X1159052D2*
X1165036D1*
X1177004D2*
X1182988D1*
X1206924D2*
X1219520D1*
X1239836D2*
X1248812D1*
X1269756D2*
X1287708D1*
X1293692D2*
X1299676D1*
X1323612D2*
X1332588D1*
X1350540D2*
X1359516D1*
X1099212Y2281189D2*
X1110183D1*
X1204161D2*
X1213599D1*
X1099212Y2278197D2*
X1107322D1*
X1202114D2*
X1209206D1*
X1099212Y2275205D2*
X1105196D1*
X1201441D2*
X1206924D1*
X1099212Y2272213D2*
X1113124D1*
X1132124D2*
X1150076D1*
X1159052D2*
X1212150D1*
X1227868D2*
X1233852D1*
X1245820D2*
X1275740D1*
X1287708D2*
X1305660D1*
X1311644D2*
X1329596D1*
X1099212Y2269221D2*
X1119238D1*
X1129132D2*
X1151457D1*
X1159052D2*
X1215942D1*
X1226465D2*
X1235441D1*
X1244417D2*
X1251329D1*
X1257788D2*
X1277121D1*
X1287708D2*
X1330988D1*
X1099212Y2266229D2*
X1105196D1*
X1117164D2*
X1121644D1*
X1138108D2*
D3*
X1147084D2*
X1152316D1*
X1159052D2*
X1168615D1*
X1182988D2*
X1188972D1*
X1197948D2*
X1206924D1*
X1213372D2*
X1218892D1*
X1224876D2*
X1236844D1*
X1242828D2*
X1250473D1*
X1263772D2*
D3*
X1272748D2*
X1277980D1*
X1287708D2*
X1294279D1*
X1308652D2*
X1314636D1*
X1326604D2*
X1331913D1*
X1099212Y2263237D2*
X1105196D1*
X1117164D2*
X1122460D1*
X1133931D2*
X1152752D1*
X1159052D2*
X1166854D1*
X1182988D2*
X1188972D1*
X1200940D2*
X1206924D1*
X1214139D2*
X1249229D1*
X1259595D2*
X1278416D1*
X1287708D2*
X1292518D1*
X1308652D2*
X1332588D1*
X1099212Y2260245D2*
X1105196D1*
X1117164D2*
X1122888D1*
X1131157D2*
X1138108D1*
X1147084D2*
X1152952D1*
X1159052D2*
X1165784D1*
X1182988D2*
X1188972D1*
X1197948D2*
X1206924D1*
X1215037D2*
X1227868D1*
X1233852D2*
X1247636D1*
X1256821D2*
X1263772D1*
X1272748D2*
X1278616D1*
X1287708D2*
X1291448D1*
X1308652D2*
X1314636D1*
X1099212Y2257253D2*
X1105196D1*
X1117164D2*
X1123148D1*
X1129132D2*
X1153068D1*
X1159052D2*
X1165036D1*
X1182988D2*
X1206924D1*
X1215900D2*
X1227868D1*
X1236844D2*
X1245820D1*
X1254796D2*
X1278732D1*
X1287708D2*
X1290700D1*
X1308652D2*
X1332588D1*
X1200940Y2451733D2*
X1199547Y2448741D1*
X1198535Y2445749D1*
X1197618Y2442757D1*
X1195275Y2439765D1*
X1189614Y2436773D1*
X1182988Y2433781D1*
X1233852Y2451733D2*
X1235244Y2448741D1*
X1236256Y2445749D1*
X1237174Y2442757D1*
X1239516Y2439765D1*
X1245177Y2436773D1*
X1251804Y2433781D1*
X1141100Y2439765D2*
X1136961Y2436773D1*
X1132607Y2433781D1*
X1127978Y2430789D1*
X1123148Y2427797D1*
X1126140Y2424805D1*
X1129132Y2421813D1*
X1132124Y2418821D1*
X1135116Y2415829D1*
X1138108Y2412837D1*
X1141100Y2409845D1*
X1139095Y2406853D1*
X1136620Y2403861D1*
X1133388Y2400869D1*
X1125468Y2397877D1*
X1114656Y2394885D1*
X1102204Y2391893D1*
Y2388901D1*
Y2385909D1*
Y2382917D1*
X1102239Y2379925D1*
X1102344Y2376933D1*
X1103618Y2373941D1*
X1109224Y2370949D1*
X1117106Y2367957D1*
X1124905Y2364965D1*
X1130550Y2361973D1*
X1134655Y2358981D1*
X1136549Y2355989D1*
X1137106Y2352997D1*
X1136046Y2350005D1*
X1134186Y2347013D1*
X1131742Y2344021D1*
X1128985Y2341029D1*
X1126089Y2338037D1*
X1123148Y2335045D1*
X1127276Y2332053D1*
X1131545Y2329061D1*
X1135848Y2326069D1*
X1140040Y2323077D1*
X1144092Y2320085D1*
X1153068Y2439765D2*
X1159052Y2436773D1*
X1165036Y2433781D1*
X1281724Y2439765D2*
X1275740Y2436773D1*
X1269756Y2433781D1*
X1293692Y2439765D2*
X1297830Y2436773D1*
X1302184Y2433781D1*
X1306813Y2430789D1*
X1311644Y2427797D1*
X1308652Y2424805D1*
X1305660Y2421813D1*
X1302668Y2418821D1*
X1299676Y2415829D1*
X1296684Y2412837D1*
X1293692Y2409845D1*
X1295696Y2406853D1*
X1298171Y2403861D1*
X1301403Y2400869D1*
X1309324Y2397877D1*
X1320135Y2394885D1*
X1332588Y2391893D1*
Y2388901D1*
Y2385909D1*
Y2382917D1*
X1332552Y2379925D1*
X1332447Y2376933D1*
X1331173Y2373941D1*
X1325567Y2370949D1*
X1317685Y2367957D1*
X1309886Y2364965D1*
X1304241Y2361973D1*
X1300136Y2358981D1*
X1298242Y2355989D1*
X1297685Y2352997D1*
X1298745Y2350005D1*
X1300605Y2347013D1*
X1303049Y2344021D1*
X1305806Y2341029D1*
X1308702Y2338037D1*
X1311644Y2335045D1*
X1307515Y2332053D1*
X1303246Y2329061D1*
X1298943Y2326069D1*
X1294751Y2323077D1*
X1290700Y2320085D1*
X1206924Y2400869D2*
X1201528Y2397877D1*
X1196797Y2394885D1*
X1192920Y2391893D1*
X1189941Y2388901D1*
X1187620Y2385909D1*
X1186788Y2382917D1*
X1186447Y2379925D1*
X1186471Y2376933D1*
X1187929Y2373941D1*
X1190406Y2370949D1*
X1193893Y2367957D1*
X1197647Y2364965D1*
X1201022Y2361973D1*
X1202357Y2358981D1*
X1201986Y2355989D1*
X1200463Y2352997D1*
X1198766Y2350005D1*
X1196897Y2347013D1*
X1194908Y2344021D1*
X1192959Y2341029D1*
X1190988Y2338037D1*
X1189040Y2335045D1*
X1187386Y2332053D1*
X1185980Y2329061D1*
X1227868Y2400869D2*
X1233264Y2397877D1*
X1237994Y2394885D1*
X1241871Y2391893D1*
X1244851Y2388901D1*
X1247171Y2385909D1*
X1248003Y2382917D1*
X1248344Y2379925D1*
X1248320Y2376933D1*
X1246862Y2373941D1*
X1244385Y2370949D1*
X1240899Y2367957D1*
X1237144Y2364965D1*
X1233770Y2361973D1*
X1232434Y2358981D1*
X1232805Y2355989D1*
X1234328Y2352997D1*
X1236025Y2350005D1*
X1237895Y2347013D1*
X1239883Y2344021D1*
X1241832Y2341029D1*
X1243803Y2338037D1*
X1245751Y2335045D1*
X1247405Y2332053D1*
X1248812Y2329061D1*
X1174012Y2332053D2*
X1168028Y2329061D1*
X1162044Y2326069D1*
X1156060Y2323077D1*
X1150076Y2320085D1*
X1171020Y2332053D2*
X1174012Y2329061D1*
X1263772Y2332053D2*
X1260780Y2329061D1*
Y2332053D2*
X1266764Y2329061D1*
X1272748Y2326069D1*
X1278732Y2323077D1*
X1284716Y2320085D1*
X1072284Y2305125D2*
Y2302133D1*
Y2299141D1*
X1072295Y2296149D1*
X1072409Y2293157D1*
X1072872Y2290165D1*
X1073894Y2287173D1*
X1075276Y2284181D1*
X1087244Y2305125D2*
X1090006Y2302133D1*
X1092051Y2299141D1*
X1092550Y2296149D1*
X1092665Y2293157D1*
X1091384Y2290165D1*
X1089473Y2287173D1*
X1087244Y2284181D1*
X1099212Y2305125D2*
Y2302133D1*
Y2299141D1*
Y2296149D1*
Y2293157D1*
Y2290165D1*
Y2287173D1*
Y2284181D1*
Y2281189D1*
Y2278197D1*
Y2275205D1*
Y2272213D1*
Y2269221D1*
Y2266229D1*
Y2263237D1*
Y2260245D1*
Y2257253D1*
X1120156Y2305125D2*
X1121537Y2302133D1*
X1122396Y2299141D1*
X1122807Y2296149D1*
X1122743Y2293157D1*
X1122210Y2290165D1*
X1118852Y2287173D1*
X1114352Y2284181D1*
X1110183Y2281189D1*
X1107322Y2278197D1*
X1105196Y2275205D1*
X1113124Y2272213D1*
X1119238Y2269221D1*
X1121644Y2266229D1*
X1122460Y2263237D1*
X1122888Y2260245D1*
X1123148Y2257253D1*
X1135116Y2305125D2*
X1132353Y2302133D1*
X1130308Y2299141D1*
X1129707Y2296149D1*
X1129610Y2293157D1*
X1129977Y2290165D1*
X1132279Y2287173D1*
X1135116Y2284181D1*
X1147084Y2305125D2*
X1149834Y2302133D1*
X1151845Y2299141D1*
X1152232Y2296149D1*
X1151321Y2293157D1*
X1150076Y2290165D1*
X1153068Y2287173D1*
X1147084Y2284181D1*
X1159052Y2305125D2*
Y2302133D1*
Y2299141D1*
Y2296149D1*
Y2293157D1*
Y2290165D1*
Y2287173D1*
Y2284181D1*
X1179996Y2305125D2*
X1181377Y2302133D1*
X1182236Y2299141D1*
X1182671Y2296149D1*
X1182864Y2293157D1*
X1182942Y2290165D1*
X1182972Y2287173D1*
X1182988Y2284181D1*
X1206924Y2305125D2*
X1205665Y2302133D1*
X1204916Y2299141D1*
X1205746Y2296149D1*
X1206924Y2293157D1*
X1203745Y2290165D1*
X1200940Y2287173D1*
X1206924Y2284181D1*
X1204161Y2281189D1*
X1202114Y2278197D1*
X1201441Y2275205D1*
X1200940Y2272213D1*
X1224876Y2305125D2*
X1227868Y2302133D1*
X1226278Y2299141D1*
X1224876Y2296149D1*
X1236844Y2305125D2*
X1234402Y2302133D1*
X1232459Y2299141D1*
X1230860Y2296149D1*
X1251804Y2305125D2*
X1254208Y2302133D1*
X1255946Y2299141D1*
X1257115Y2296149D1*
X1257101Y2293157D1*
X1255753Y2290165D1*
X1252516Y2287173D1*
X1248812Y2284181D1*
X1263772Y2305125D2*
Y2302133D1*
Y2299141D1*
X1263795Y2296149D1*
X1264023Y2293157D1*
X1264566Y2290165D1*
X1266898Y2287173D1*
X1269756Y2284181D1*
X1266764Y2305125D2*
X1266886Y2302133D1*
X1267351Y2299141D1*
X1268374Y2296149D1*
X1269756Y2293157D1*
X1281724Y2305125D2*
Y2302133D1*
Y2299141D1*
Y2296149D1*
Y2293157D1*
X1287708Y2305125D2*
Y2302133D1*
Y2299141D1*
Y2296149D1*
Y2293157D1*
Y2290165D1*
Y2287173D1*
Y2284181D1*
X1293692Y2305125D2*
Y2302133D1*
Y2299141D1*
Y2296149D1*
Y2293157D1*
Y2290165D1*
Y2287173D1*
Y2284181D1*
X1314636Y2305125D2*
X1320620D2*
X1335580D2*
X1338572Y2302133D1*
X1335580Y2299141D1*
X1347548Y2305125D2*
X1345143Y2302133D1*
X1343382Y2299141D1*
X1342312Y2296149D1*
X1341564Y2293157D1*
X1362508Y2305125D2*
Y2302133D1*
Y2299141D1*
X1362496Y2296149D1*
X1362382Y2293157D1*
X1361920Y2290165D1*
X1360897Y2287173D1*
X1359516Y2284181D1*
X1075276Y2302133D2*
Y2299141D1*
Y2296149D1*
Y2293157D1*
X1081260Y2302133D2*
X1083702Y2299141D1*
X1085644Y2296149D1*
X1087244Y2293157D1*
X1111180Y2302133D2*
X1108738Y2299141D1*
X1106795Y2296149D1*
X1105196Y2293157D1*
X1111180Y2302133D2*
X1113622Y2299141D1*
X1115564Y2296149D1*
X1117164Y2293157D1*
X1138108Y2302133D2*
X1135116Y2299141D1*
X1141100Y2302133D2*
X1144092Y2299141D1*
X1171020Y2302133D2*
X1168616Y2299141D1*
X1166866Y2296149D1*
X1165864Y2293157D1*
X1165377Y2290165D1*
X1165159Y2287173D1*
X1165036Y2284181D1*
X1177004Y2302133D2*
Y2299141D1*
Y2296149D1*
Y2293157D1*
Y2290165D1*
Y2287173D1*
Y2284181D1*
X1212908Y2302133D2*
X1209916Y2299141D1*
X1218892Y2302133D2*
X1221884Y2299141D1*
X1242828Y2302133D2*
X1240386Y2299141D1*
X1238443Y2296149D1*
X1236844Y2293157D1*
X1245820Y2302133D2*
X1248262Y2299141D1*
X1250204Y2296149D1*
X1251804Y2293157D1*
X1305660Y2302133D2*
X1303256Y2299141D1*
X1301506Y2296149D1*
X1300504Y2293157D1*
X1300017Y2290165D1*
X1299799Y2287173D1*
X1299676Y2284181D1*
X1308652Y2302133D2*
X1311067Y2299141D1*
X1312946Y2296149D1*
X1314559Y2293157D1*
X1316712Y2290165D1*
X1319866Y2287173D1*
X1323612Y2284181D1*
X1326604Y2302133D2*
X1324162Y2299141D1*
X1322219Y2296149D1*
X1320620Y2293157D1*
X1329596Y2302133D2*
X1332588Y2299141D1*
X1353532Y2302133D2*
X1350540Y2299141D1*
X1356524Y2302133D2*
X1359516Y2299141D1*
X1141100Y2293157D2*
X1138108Y2290165D1*
X1141100Y2293157D2*
X1144092Y2290165D1*
X1212908Y2293157D2*
X1209916Y2290165D1*
X1215900Y2293157D2*
X1218892Y2290165D1*
X1353532Y2293157D2*
X1350540Y2290165D1*
X1353532Y2293157D2*
X1356524Y2290165D1*
X1233852D2*
X1226732Y2287173D1*
X1219520Y2284181D1*
X1213599Y2281189D1*
X1209206Y2278197D1*
X1206924Y2275205D1*
X1212150Y2272213D1*
X1215942Y2269221D1*
X1218892Y2266229D1*
X1227868Y2290165D2*
X1233852Y2287173D1*
X1239836Y2284181D1*
X1344556Y2290165D2*
X1338572Y2287173D1*
X1332588Y2284181D1*
X1338572Y2290165D2*
X1344556Y2287173D1*
X1350540Y2284181D1*
X1132124Y2272213D2*
X1129132Y2269221D1*
X1138108Y2266229D1*
X1133931Y2263237D1*
X1131157Y2260245D1*
X1129132Y2257253D1*
X1150076Y2272213D2*
X1151457Y2269221D1*
X1152316Y2266229D1*
X1152752Y2263237D1*
X1152952Y2260245D1*
X1153068Y2257253D1*
X1159052Y2272213D2*
Y2269221D1*
Y2266229D1*
Y2263237D1*
Y2260245D1*
Y2257253D1*
X1227868Y2272213D2*
X1226465Y2269221D1*
X1224876Y2266229D1*
X1233852Y2272213D2*
X1235441Y2269221D1*
X1236844Y2266229D1*
X1245820Y2272213D2*
X1244417Y2269221D1*
X1242828Y2266229D1*
X1275740Y2272213D2*
X1277121Y2269221D1*
X1277980Y2266229D1*
X1278416Y2263237D1*
X1278616Y2260245D1*
X1278732Y2257253D1*
X1287708Y2272213D2*
Y2269221D1*
Y2266229D1*
Y2263237D1*
Y2260245D1*
Y2257253D1*
X1305660Y2272213D2*
X1311644D2*
X1329596D2*
X1330988Y2269221D1*
X1331913Y2266229D1*
X1332588Y2263237D1*
X1314636Y2260245D1*
X1332588Y2257253D1*
X1251804Y2272213D2*
X1251329Y2269221D1*
X1250473Y2266229D1*
X1249229Y2263237D1*
X1247636Y2260245D1*
X1245820Y2257253D1*
X1251804Y2272213D2*
X1257788Y2269221D1*
X1263772Y2266229D1*
X1259595Y2263237D1*
X1256821Y2260245D1*
X1254796Y2257253D1*
X1105196Y2269221D2*
Y2266229D1*
Y2263237D1*
Y2260245D1*
Y2257253D1*
X1117164Y2269221D2*
Y2266229D1*
Y2263237D1*
Y2260245D1*
Y2257253D1*
X1144092Y2269221D2*
X1147084Y2266229D1*
X1171020Y2269221D2*
X1168615Y2266229D1*
X1166854Y2263237D1*
X1165784Y2260245D1*
X1165036Y2257253D1*
X1182988Y2269221D2*
Y2266229D1*
Y2263237D1*
Y2260245D1*
Y2257253D1*
X1188972Y2269221D2*
Y2266229D1*
Y2263237D1*
Y2260245D1*
X1194956Y2269221D2*
X1197948Y2266229D1*
X1200940Y2263237D1*
X1197948Y2260245D1*
X1206924Y2269221D2*
Y2266229D1*
Y2263237D1*
Y2260245D1*
Y2257253D1*
X1212908Y2269221D2*
X1213372Y2266229D1*
X1214139Y2263237D1*
X1215037Y2260245D1*
X1215900Y2257253D1*
X1269756Y2269221D2*
X1272748Y2266229D1*
X1296684Y2269221D2*
X1294279Y2266229D1*
X1292518Y2263237D1*
X1291448Y2260245D1*
X1290700Y2257253D1*
X1308652Y2269221D2*
Y2266229D1*
Y2263237D1*
Y2260245D1*
Y2257253D1*
X1317628Y2269221D2*
X1314636Y2266229D1*
X1323612Y2269221D2*
X1326604Y2266229D1*
X1141100Y2263237D2*
X1138108Y2260245D1*
X1144092Y2263237D2*
X1147084Y2260245D1*
X1227868Y2263237D2*
Y2260245D1*
Y2257253D1*
X1230860Y2263237D2*
X1233852Y2260245D1*
X1236844Y2257253D1*
X1266764Y2263237D2*
X1263772Y2260245D1*
X1269756Y2263237D2*
X1272748Y2260245D1*
X1706542Y2326099D2*
D37*
X1676397Y2326100D1*
X1706542Y2336147D2*
X1706541Y2316051D1*
X1696493Y2306788D2*
X1676397Y2291003D1*
X1696493D2*
X1676397Y2306788D1*
X1692182Y2223418D2*
Y2210518D1*
X1693642Y2206207D1*
X1695068Y2204748D1*
X1697919Y2203322D1*
X1700805D1*
X1703656Y2204748D1*
X1705116Y2206207D1*
X1706541Y2210518D1*
Y2223418D1*
X1676398D1*
X1692182Y2213370D2*
X1676398Y2203322D1*
X1696494Y2194059D2*
X1676398Y2178274D1*
X1696494D2*
X1676398Y2194059D1*
X1687426Y1829574D2*
Y1816641D1*
X1688852Y1812363D1*
X1690311Y1810904D1*
X1693163Y1809478D1*
X1697474D1*
X1700326Y1810904D1*
X1701785Y1812363D1*
X1703211Y1816641D1*
Y1829574D1*
X1673067D1*
X1703178Y1791592D2*
X1701752Y1795903D1*
X1697441Y1798789D1*
X1690278Y1800214D1*
X1685967D1*
X1678804Y1798789D1*
X1674493Y1795903D1*
X1673067Y1791592D1*
Y1788741D1*
X1674493Y1784430D1*
X1678804Y1781578D1*
X1685967Y1780119D1*
X1690278D1*
X1697441Y1781578D1*
X1701752Y1784430D1*
X1703178Y1788741D1*
Y1791592D1*
X1697441Y1781578D2*
X1678804Y1798789D1*
X1687032Y1729968D2*
Y1717035D1*
X1688458Y1712757D1*
X1689917Y1711298D1*
X1692769Y1709872D1*
X1697080D1*
X1699932Y1711298D1*
X1701391Y1712757D1*
X1702817Y1717035D1*
Y1729968D1*
X1672673D1*
X1697047Y1700608D2*
X1698506Y1697723D1*
X1702784Y1693412D1*
X1672673D1*
X1685851Y1629574D2*
Y1616641D1*
X1687277Y1612363D1*
X1688736Y1610904D1*
X1691588Y1609478D1*
X1695899D1*
X1698751Y1610904D1*
X1700210Y1612363D1*
X1701636Y1616641D1*
Y1629574D1*
X1671492D1*
X1694440Y1598755D2*
X1695866D1*
X1698751Y1597329D1*
X1700177Y1595903D1*
X1701603Y1593018D1*
Y1587281D1*
X1700177Y1584430D1*
X1698751Y1583004D1*
X1695866Y1581544D1*
X1693014D1*
X1690129Y1583004D1*
X1685851Y1585855D1*
X1671492Y1600215D1*
Y1580119D1*
X1685851Y1530361D2*
Y1517428D1*
X1687277Y1513150D1*
X1688736Y1511691D1*
X1691588Y1510265D1*
X1695899D1*
X1698751Y1511691D1*
X1700210Y1513150D1*
X1701636Y1517428D1*
Y1530361D1*
X1671492D1*
X1701603Y1498117D2*
Y1482365D1*
X1690129Y1490954D1*
Y1486643D1*
X1688703Y1483791D1*
X1687277Y1482365D1*
X1682966Y1480906D1*
X1680114D1*
X1675803Y1482365D1*
X1672918Y1485217D1*
X1671492Y1489528D1*
Y1493839D1*
X1672918Y1498117D1*
X1674377Y1499543D1*
X1677229Y1501002D1*
X1687032Y1429574D2*
Y1416641D1*
X1688458Y1412363D1*
X1689917Y1410904D1*
X1692769Y1409478D1*
X1697080D1*
X1699932Y1410904D1*
X1701391Y1412363D1*
X1702817Y1416641D1*
Y1429574D1*
X1672673D1*
Y1385856D2*
X1702784Y1385855D1*
X1682721Y1400214D1*
Y1378693D1*
X1687426Y1329968D2*
Y1317035D1*
X1688852Y1312757D1*
X1690311Y1311298D1*
X1693163Y1309872D1*
X1697474D1*
X1700326Y1311298D1*
X1701785Y1312757D1*
X1703211Y1317035D1*
Y1329968D1*
X1673067D1*
X1703178Y1283397D2*
Y1297723D1*
X1690278Y1299149D1*
X1691704Y1297723D1*
X1693163Y1293412D1*
Y1289134D1*
X1691704Y1284823D1*
X1688852Y1281938D1*
X1684541Y1280512D1*
X1681689D1*
X1677378Y1281938D1*
X1674493Y1284823D1*
X1673067Y1289134D1*
Y1293412D1*
X1674493Y1297723D1*
X1675952Y1299149D1*
X1678804Y1300608D1*
X1686638Y1229574D2*
Y1216641D1*
X1688064Y1212363D1*
X1689523Y1210904D1*
X1692375Y1209478D1*
X1696686D1*
X1699538Y1210904D1*
X1700997Y1212363D1*
X1702423Y1216641D1*
Y1229574D1*
X1672279D1*
X1698112Y1183004D2*
X1700964Y1184430D1*
X1702390Y1188741D1*
Y1191592D1*
X1700964Y1195903D1*
X1696653Y1198789D1*
X1689490Y1200214D1*
X1682327D1*
X1676590Y1198789D1*
X1673705Y1195903D1*
X1672279Y1191592D1*
Y1190167D1*
X1673705Y1185889D1*
X1676590Y1183004D1*
X1680901Y1181578D1*
X1682327D1*
X1686638Y1183004D1*
X1689490Y1185889D1*
X1690916Y1190166D1*
Y1191592D1*
X1689490Y1195903D1*
X1686638Y1198789D1*
X1682327Y1200214D1*
X1687426Y1129574D2*
Y1116641D1*
X1688852Y1112363D1*
X1690311Y1110904D1*
X1693163Y1109478D1*
X1697474D1*
X1700326Y1110904D1*
X1701785Y1112363D1*
X1703211Y1116641D1*
Y1129574D1*
X1673067D1*
Y1094478D2*
X1703178Y1080118D1*
Y1100214D1*
X1592103Y483449D2*
X1590677Y486301D1*
X1587792Y489186D1*
X1584940Y490612D1*
X1579203D1*
X1576318Y489186D1*
X1573466Y486301D1*
X1572007Y483449D1*
X1570581Y479138D1*
Y471942D1*
X1572007Y467664D1*
X1573466Y464779D1*
X1576318Y461928D1*
X1579203Y460468D1*
X1584940D1*
X1587792Y461928D1*
X1590677Y464779D1*
X1592103Y467664D1*
Y471942D1*
X1584940D1*
X1621463Y490612D2*
Y460468D1*
X1601367Y490612D1*
Y460468D1*
X1630726Y490612D2*
Y460468D1*
X1640774D1*
X1645085Y461928D1*
X1647970Y464779D1*
X1649396Y467664D1*
X1650822Y471942D1*
Y479138D1*
X1649396Y483449D1*
X1647970Y486301D1*
X1645085Y489186D1*
X1640774Y490612D1*
X1630726D1*
X1490922Y481875D2*
X1489496Y484727D1*
X1486611Y487612D1*
X1483759Y489038D1*
X1478022D1*
X1475137Y487612D1*
X1472285Y484727D1*
X1470826Y481875D1*
X1469400Y477564D1*
Y470368D1*
X1470826Y466090D1*
X1472285Y463205D1*
X1475137Y460353D1*
X1478022Y458894D1*
X1483759D1*
X1486611Y460353D1*
X1489496Y463205D1*
X1490922Y466090D1*
Y470368D1*
X1483759D1*
X1520282Y489038D2*
Y458894D1*
X1500186Y489038D1*
Y458894D1*
X1529545Y489038D2*
Y458894D1*
X1539593D1*
X1543904Y460353D1*
X1546789Y463205D1*
X1548215Y466090D1*
X1549641Y470368D1*
Y477564D1*
X1548215Y481875D1*
X1546789Y484727D1*
X1543904Y487612D1*
X1539593Y489038D1*
X1529545D1*
X1392103Y481875D2*
X1390677Y484727D1*
X1387792Y487612D1*
X1384940Y489038D1*
X1379203D1*
X1376318Y487612D1*
X1373466Y484727D1*
X1372007Y481875D1*
X1370581Y477564D1*
Y470368D1*
X1372007Y466090D1*
X1373466Y463205D1*
X1376318Y460353D1*
X1379203Y458894D1*
X1384940D1*
X1387792Y460353D1*
X1390677Y463205D1*
X1392103Y466090D1*
Y470368D1*
X1384940D1*
X1421463Y489038D2*
Y458894D1*
X1401367Y489038D1*
Y458894D1*
X1430726Y489038D2*
Y458894D1*
X1440774D1*
X1445085Y460353D1*
X1447970Y463205D1*
X1449396Y466090D1*
X1450822Y470368D1*
Y477564D1*
X1449396Y481875D1*
X1447970Y484727D1*
X1445085Y487612D1*
X1440774Y489038D1*
X1430726D1*
X1290922Y482662D2*
X1289496Y485514D1*
X1286611Y488399D1*
X1283759Y489825D1*
X1278022D1*
X1275137Y488399D1*
X1272285Y485514D1*
X1270826Y482662D1*
X1269400Y478351D1*
Y471155D1*
X1270826Y466877D1*
X1272285Y463992D1*
X1275137Y461140D1*
X1278022Y459681D1*
X1283759D1*
X1286611Y461140D1*
X1289496Y463992D1*
X1290922Y466877D1*
Y471155D1*
X1283759D1*
X1320282Y489825D2*
Y459681D1*
X1300186Y489825D1*
Y459681D1*
X1329545Y489825D2*
Y459681D1*
X1339593D1*
X1343904Y461140D1*
X1346789Y463992D1*
X1348215Y466877D1*
X1349641Y471155D1*
Y478351D1*
X1348215Y482662D1*
X1346789Y485514D1*
X1343904Y488399D1*
X1339593Y489825D1*
X1329545D1*
X902753Y489398D2*
X888427D1*
X887001Y476498D1*
X888427Y477924D1*
X892738Y479383D1*
X897016D1*
X901327Y477924D1*
X904212Y475072D1*
X905638Y470761D1*
Y467909D1*
X904212Y463598D1*
X901327Y460713D1*
X897016Y459287D1*
X892738D1*
X888427Y460713D1*
X887001Y462172D1*
X885542Y465024D1*
X914901Y489431D2*
X926375Y459287D1*
X937849Y489431D1*
X999997Y490973D2*
X985671D1*
X984245Y478073D1*
X985671Y479499D1*
X989982Y480958D1*
X994260D1*
X998571Y479499D1*
X1001456Y476647D1*
X1002882Y472336D1*
Y469484D1*
X1001456Y465173D1*
X998571Y462288D1*
X994260Y460862D1*
X989982D1*
X985671Y462288D1*
X984245Y463747D1*
X982786Y466599D1*
X1012145Y491006D2*
X1023619Y460862D1*
X1035093Y491006D1*
X1081181Y482171D2*
D38*
X1091683D1*
X1085957Y474522D1*
X1088831D1*
X1090732Y473571D1*
X1091683Y472620D1*
X1092655Y469746D1*
Y467845D1*
X1091683Y464971D1*
X1089781Y463048D1*
X1086907Y462097D1*
X1084033D1*
X1081181Y463048D1*
X1080231Y464020D1*
X1079258Y465922D1*
X1099782Y464020D2*
X1098831Y463048D1*
X1099782Y462097D1*
X1100754Y463048D1*
X1099782Y464020D1*
X1108854Y482171D2*
X1119355D1*
X1113629Y474522D1*
X1116503D1*
X1118404Y473571D1*
X1119355Y472620D1*
X1120327Y469746D1*
Y467845D1*
X1119355Y464971D1*
X1117453Y463048D1*
X1114579Y462097D1*
X1111705D1*
X1108854Y463048D1*
X1107903Y464020D1*
X1106930Y465922D1*
X1126503Y482193D2*
X1134152Y462097D1*
X1141802Y482193D1*
X1180394Y484140D2*
X1190895D1*
X1185169Y476490D1*
X1188043D1*
X1189945Y475540D1*
X1190895Y474589D1*
X1191868Y471715D1*
Y469814D1*
X1190895Y466940D1*
X1188994Y465016D1*
X1186120Y464066D1*
X1183246D1*
X1180394Y465016D1*
X1179443Y465989D1*
X1178471Y467890D1*
X1198994Y465989D2*
X1198044Y465016D1*
X1198994Y464066D1*
X1199967Y465016D1*
X1198994Y465989D1*
X1208066Y484140D2*
X1218567D1*
X1212841Y476490D1*
X1215715D1*
X1217617Y475540D1*
X1218567Y474589D1*
X1219540Y471715D1*
Y469814D1*
X1218567Y466940D1*
X1216666Y465016D1*
X1213792Y464066D1*
X1210918D1*
X1208066Y465016D1*
X1207116Y465989D1*
X1206143Y467890D1*
X1225716Y484162D2*
X1233365Y464066D1*
X1241014Y484162D1*
X728067Y1853151D2*
D39*
X733770Y1856003D1*
X739541Y1861773D1*
X742393Y1867477D1*
Y1878951D1*
X739541Y1884721D1*
X733771Y1890425D1*
X728067Y1893343D1*
X719445Y1896195D1*
X705052D1*
X696497Y1893343D1*
X690727Y1890425D1*
X685023Y1884721D1*
X682104Y1878951D1*
Y1867477D1*
X685023Y1861773D1*
X690727Y1856003D1*
X696497Y1853151D1*
X687875Y1831772D2*
X684956Y1834624D1*
X682105Y1831772D1*
X684956Y1828854D1*
X687875Y1831772D1*
X742392Y1810327D2*
X682105D1*
X742393Y1770135D2*
X682105D1*
X713674Y1810327D2*
Y1770135D1*
X687875Y1748756D2*
X684956Y1751608D1*
X682105Y1748756D1*
X684956Y1745838D1*
X687875Y1748756D1*
X742393Y1727311D2*
X682105D1*
X687875Y1705932D2*
X684956Y1708784D1*
X682105Y1705932D1*
X684956Y1703013D1*
X687875Y1705932D1*
X710823Y1684486D2*
Y1658620D1*
X713674Y1650064D1*
X716593Y1647146D1*
X722297Y1644294D1*
X730919D1*
X736622Y1647146D1*
X739541Y1650064D1*
X742393Y1658620D1*
Y1684486D1*
X682105D1*
X687875Y1622915D2*
X684956Y1625767D1*
X682105Y1622915D1*
X684956Y1619997D1*
X687875Y1622915D1*
X710823Y1543149D2*
Y1517283D1*
X713674Y1508727D1*
X716593Y1505809D1*
X722297Y1502957D1*
X730919D1*
X736622Y1505809D1*
X739541Y1508727D1*
X742393Y1517283D1*
Y1543149D1*
X682105D1*
X722297Y1484430D2*
X682105D1*
X705052D2*
X713674Y1481511D1*
X719445Y1475808D1*
X722297Y1470038D1*
Y1461415D1*
Y1428563D2*
X719445Y1434266D1*
X713675Y1440036D1*
X705052Y1442888D1*
X699349D1*
X690727Y1440036D1*
X685023Y1434266D1*
X682105Y1428563D1*
Y1419940D1*
X685023Y1414170D1*
X690727Y1408467D1*
X699349Y1405548D1*
X705052D1*
X713675Y1408467D1*
X719445Y1414170D1*
X722297Y1419940D1*
Y1428563D1*
X742393Y1378399D2*
X693579D1*
X685023Y1375547D1*
X682105Y1369777D1*
Y1364073D1*
X722297Y1387021D2*
Y1366925D1*
Y1331220D2*
X719445Y1336924D1*
X713675Y1342694D1*
X705052Y1345546D1*
X699349D1*
X690727Y1342694D1*
X685023Y1336924D1*
X682105Y1331220D1*
Y1322598D1*
X685023Y1316828D1*
X690727Y1311124D1*
X699349Y1308206D1*
X705052D1*
X713675Y1311124D1*
X719445Y1316828D1*
X722297Y1322598D1*
Y1331220D1*
X742393Y1281057D2*
X693579D1*
X685023Y1278205D1*
X682105Y1272435D1*
Y1266731D1*
X722297Y1289679D2*
Y1269583D1*
Y1245286D2*
X682105Y1228108D1*
X670631Y1233812D1*
X664860Y1239582D1*
X662009Y1245286D1*
Y1248204D1*
X722297Y1210864D2*
X682105Y1228108D1*
X722297Y1192337D2*
X662009D1*
X713675D2*
X719378Y1186567D1*
X722297Y1180863D1*
Y1172241D1*
X719378Y1166471D1*
X713675Y1160767D1*
X705052Y1157849D1*
X699282D1*
X690727Y1160767D1*
X684956Y1166471D1*
X682105Y1172241D1*
Y1180863D1*
X684956Y1186567D1*
X690727Y1192337D1*
X705052Y1139321D2*
Y1104900D1*
X710823D1*
X716593Y1107752D1*
X719445Y1110603D1*
X722297Y1116374D1*
Y1124996D1*
X719445Y1130699D1*
X713675Y1136470D1*
X705052Y1139321D1*
X699349D1*
X690727Y1136470D1*
X685023Y1130699D1*
X682105Y1124996D1*
Y1116374D1*
X685023Y1110603D1*
X690727Y1104900D1*
X742393Y1028051D2*
X682105D1*
Y1007955D1*
X685023Y999333D1*
X690727Y993563D1*
X696497Y990711D1*
X705052Y987859D1*
X719445D1*
X728067Y990711D1*
X733771Y993563D1*
X739541Y999333D1*
X742393Y1007955D1*
Y1028051D1*
Y969332D2*
X739541Y966480D1*
X742393Y963562D1*
X745311Y966480D1*
X742393Y969332D1*
X722297Y966480D2*
X682105D1*
X722297Y945035D2*
X662009D1*
X713675D2*
X719378Y939265D1*
X722297Y933561D1*
Y924939D1*
X719378Y919169D1*
X713675Y913465D1*
X705052Y910547D1*
X699282D1*
X690727Y913465D1*
X684956Y919169D1*
X682105Y924939D1*
Y933561D1*
X684956Y939265D1*
X690727Y945035D1*
X1697429Y815989D2*
D38*
X1699353Y817891D1*
X1700303Y820765D1*
Y824589D1*
X1699353Y827463D1*
X1697429Y829387D1*
X1695528D1*
X1693605Y828414D1*
X1692654Y827463D1*
X1691703Y825562D1*
X1689780Y819814D1*
X1688829Y817891D1*
X1687857Y816940D1*
X1685955Y815989D1*
X1683081D1*
X1681180Y817891D1*
X1680207Y820765D1*
Y824589D1*
X1681180Y827463D1*
X1683081Y829387D1*
X1700303Y809814D2*
X1680207D1*
Y803115D1*
X1681180Y800241D1*
X1683081Y798318D1*
X1685005Y797367D1*
X1687857Y796416D1*
X1692654D1*
X1695528Y797367D1*
X1697429Y798318D1*
X1699353Y800241D1*
X1700303Y803115D1*
Y809814D1*
X1680207Y774920D2*
X1700303Y782591D1*
X1680207Y790241D1*
X1686906Y787367D2*
Y777794D1*
X1699004Y716777D2*
X1700927Y718678D1*
X1701878Y721552D1*
Y725377D1*
X1700928Y728251D1*
X1699004Y730174D1*
X1697103D1*
X1695179Y729201D1*
X1694229Y728251D1*
X1693278Y726349D1*
X1691355Y720601D1*
X1690404Y718678D1*
X1689431Y717727D1*
X1687530Y716777D1*
X1684656D1*
X1682755Y718678D1*
X1681782Y721552D1*
Y725377D1*
X1682755Y728251D1*
X1684656Y730174D1*
X1697103Y696253D2*
X1699004Y697204D1*
X1700927Y699127D1*
X1701878Y701028D1*
Y704853D1*
X1700927Y706776D1*
X1699004Y708678D1*
X1697103Y709650D1*
X1694229Y710601D1*
X1689431D1*
X1686579Y709650D1*
X1684656Y708678D1*
X1682755Y706776D1*
X1681782Y704853D1*
Y701028D1*
X1682755Y699127D1*
X1684656Y697204D1*
X1686580Y696253D1*
X1701878Y690077D2*
X1681782D1*
X1701878Y676680D2*
X1688481Y690077D1*
X1693278Y685302D2*
X1681782Y676680D1*
X1701878Y1032708D2*
X1681782D1*
X1701878Y1013135D2*
X1681782D1*
X1701878Y1026532D1*
X1681782D1*
X1701878Y1000261D2*
X1681782D1*
X1701878Y1006959D2*
Y993562D1*
X1698031Y987386D2*
X1699004Y985463D1*
X1701856Y982589D1*
X1681782D1*
X1699910Y934535D2*
X1679814D1*
X1699910Y914962D2*
X1679814D1*
X1699910Y928359D1*
X1679814D1*
X1699910Y902088D2*
X1679814D1*
X1699910Y908786D2*
Y895389D1*
X1699887Y887290D2*
Y876789D1*
X1692238Y882515D1*
Y879641D1*
X1691288Y877739D1*
X1690337Y876789D1*
X1687463Y875816D1*
X1685562D1*
X1682688Y876789D1*
X1680764Y878690D1*
X1679814Y881564D1*
Y884438D1*
X1680764Y887290D1*
X1681737Y888241D1*
X1683638Y889213D1*
X1701484Y2114750D2*
Y2127196D1*
X1681388D1*
X1691912D2*
Y2119547D1*
X1701484Y2096149D2*
Y2108574D1*
X1681388D1*
Y2096149D1*
X1691912Y2108574D2*
Y2100925D1*
X1701484Y2089974D2*
X1681388D1*
Y2078500D1*
M02*
