G04 DipTrace 3.0.0.1*
G04 Bottom.gbr*
%MOIN*%
G04 #@! TF.FileFunction,Copper,L2,Bot*
G04 #@! TF.Part,Single*
G04 #@! TA.AperFunction,Conductor*
%ADD14C,0.008*%
G04 #@! TA.AperFunction,CopperBalancing*
%ADD16C,0.025*%
G04 #@! TA.AperFunction,Conductor*
%ADD17C,0.01*%
G04 #@! TA.AperFunction,ComponentPad*
%ADD18C,0.066929*%
%ADD19C,0.066929*%
%ADD20C,0.059055*%
%ADD21R,0.059055X0.059055*%
%ADD22C,0.059055*%
G04 #@! TA.AperFunction,ViaPad*
%ADD23C,0.038*%
%FSLAX26Y26*%
G04*
G70*
G90*
G75*
G01*
G04 Bottom*
%LPD*%
X1848032Y505118D2*
D14*
Y463386D1*
X1830315Y445670D1*
X1631890D1*
X1610630Y466929D1*
X1510630D1*
X1410630D1*
X1310630D1*
X1210630D1*
X1948032Y505118D2*
Y505906D1*
X1998425Y556299D1*
Y1354725D1*
X1948032Y1405118D1*
X679134Y2270473D2*
X624803D1*
X611418Y2257087D1*
X525197D1*
X473229Y2205118D1*
X699607Y439764D2*
D17*
X701969D1*
X726772Y414961D1*
X1007481D1*
X1014173Y421654D1*
Y463386D1*
X1010630Y466929D1*
D23*
X679134Y2270473D3*
X699607Y439764D3*
X434725Y2397261D2*
D16*
X506190D1*
X640292D2*
X1880995D1*
X434725Y2372393D2*
X514540D1*
X631942D2*
X1889345D1*
X525009Y2347524D2*
X540511D1*
X605917D2*
X1696229D1*
X538339Y2322655D2*
X660927D1*
X697372D2*
X1682899D1*
X540341Y2297786D2*
X593739D1*
X728817D2*
X1680897D1*
X736093Y2272918D2*
X795497D1*
X825741D2*
X895497D1*
X925741D2*
X995497D1*
X1025741D2*
X1095497D1*
X1125741D2*
X1195497D1*
X1225741D2*
X1295497D1*
X1325741D2*
X1395497D1*
X1425741D2*
X1495497D1*
X1525741D2*
X1595497D1*
X1625741D2*
X1689052D1*
X731307Y2248049D2*
X754139D1*
X1667098D2*
X1696669D1*
X638192Y2223180D2*
X649534D1*
X708700D2*
X741591D1*
X640389Y2198311D2*
X739491D1*
X632528Y2173442D2*
X746864D1*
X1674374D2*
X1688768D1*
X624081Y2148574D2*
X754579D1*
X1666659D2*
X1713417D1*
X1782626D2*
X1797157D1*
X638046Y2123705D2*
X741737D1*
X1679550D2*
X1783241D1*
X640438Y2098836D2*
X739442D1*
X1681796D2*
X1780800D1*
X632821Y2073967D2*
X746620D1*
X1674667D2*
X1788466D1*
X623641Y2049099D2*
X755018D1*
X1666268D2*
X1797645D1*
X637899Y2024230D2*
X741884D1*
X1679403D2*
X1783388D1*
X640487Y1999361D2*
X739393D1*
X1681845D2*
X1780751D1*
X633114Y1974492D2*
X746327D1*
X1674911D2*
X1788173D1*
X523153Y1949624D2*
X536800D1*
X609628D2*
X755458D1*
X1665829D2*
X1798134D1*
X537704Y1924755D2*
X742030D1*
X1679257D2*
X1783534D1*
X540536Y1899886D2*
X739345D1*
X1681893D2*
X1780702D1*
X533358Y1875017D2*
X746083D1*
X1675155D2*
X1787880D1*
X622665Y1850149D2*
X755897D1*
X1665341D2*
X1698622D1*
X637557Y1825280D2*
X742177D1*
X640585Y1800411D2*
X739345D1*
X633651Y1775542D2*
X745839D1*
X1675448D2*
X1687655D1*
X622128Y1750673D2*
X756337D1*
X1664901D2*
X1699110D1*
X637362Y1725805D2*
X742323D1*
X640634Y1700936D2*
X739296D1*
X633895Y1676067D2*
X745595D1*
X1675692D2*
X1687370D1*
X621591Y1651198D2*
X756825D1*
X1664462D2*
X1699647D1*
X637216Y1626330D2*
X742518D1*
X640634Y1601461D2*
X739247D1*
X634188Y1576592D2*
X745350D1*
X1675936D2*
X1687093D1*
X621054Y1551723D2*
X757313D1*
X1663973D2*
X1700184D1*
X637020Y1526855D2*
X742665D1*
X640682Y1501986D2*
X739247D1*
X634432Y1477117D2*
X745106D1*
X1676132D2*
X1686810D1*
X620516Y1452248D2*
X757802D1*
X1663485D2*
X1700722D1*
X1795321D2*
X1807655D1*
X1888388D2*
X1907655D1*
X636825Y1427379D2*
X742860D1*
X1811630D2*
X1986561D1*
X640682Y1402511D2*
X739198D1*
X1815487D2*
X1986561D1*
X634677Y1377642D2*
X744862D1*
X1676376D2*
X1686629D1*
X1809481D2*
X1986561D1*
X619979Y1352773D2*
X758290D1*
X1662997D2*
X1701307D1*
X636630Y1327904D2*
X743055D1*
X640731Y1303036D2*
X739198D1*
X634921Y1278167D2*
X744667D1*
X1676620D2*
X1686372D1*
X619393Y1253298D2*
X758778D1*
X1662460D2*
X1701845D1*
X636434Y1228429D2*
X743202D1*
X640731Y1203561D2*
X739198D1*
X635165Y1178692D2*
X744423D1*
X1676815D2*
X1686109D1*
X618807Y1153823D2*
X759315D1*
X1661972D2*
X1702430D1*
X636239Y1128954D2*
X743397D1*
X640731Y1104086D2*
X739149D1*
X635360Y1079217D2*
X744227D1*
X1677059D2*
X1685867D1*
X618222Y1054348D2*
X759852D1*
X1661434D2*
X1704921D1*
X1791171D2*
X1803072D1*
X636044Y1029479D2*
X743593D1*
X1677645D2*
X1785243D1*
X640731Y1004610D2*
X739149D1*
X1682089D2*
X1780507D1*
X635604Y979742D2*
X743983D1*
X1677255D2*
X1785682D1*
X617587Y954873D2*
X760389D1*
X1660897D2*
X1803651D1*
X635800Y930004D2*
X743788D1*
X1677450D2*
X1785438D1*
X640780Y905135D2*
X739149D1*
X1682089D2*
X1780507D1*
X635800Y880267D2*
X743788D1*
X1677450D2*
X1785438D1*
X617636Y855398D2*
X760341D1*
X1660897D2*
X1803602D1*
X635604Y830529D2*
X744032D1*
X1677255D2*
X1785682D1*
X640731Y805660D2*
X739149D1*
X1682089D2*
X1780507D1*
X636044Y780792D2*
X743593D1*
X1677645D2*
X1785243D1*
X618270Y755923D2*
X759804D1*
X1661483D2*
X1803016D1*
X635360Y731054D2*
X744227D1*
X1677011D2*
X1785878D1*
X640731Y706185D2*
X739198D1*
X1682089D2*
X1780507D1*
X636239Y681316D2*
X743397D1*
X1677841D2*
X1784999D1*
X618856Y656448D2*
X759266D1*
X1661972D2*
X1802430D1*
X635116Y631579D2*
X744423D1*
X1676815D2*
X1786122D1*
X640731Y606710D2*
X739198D1*
X1682089D2*
X1780507D1*
X636434Y581841D2*
X743202D1*
X1678036D2*
X1784804D1*
X519442Y556973D2*
X526989D1*
X619442D2*
X758729D1*
X1662509D2*
X1801845D1*
X1894247D2*
X1901834D1*
X434725Y532104D2*
X511561D1*
X634872D2*
X785585D1*
X835702D2*
X885585D1*
X935702D2*
X985585D1*
X1035702D2*
X1085585D1*
X1135702D2*
X1986561D1*
X434725Y507235D2*
X505751D1*
X640731D2*
X752186D1*
X1169100D2*
X1986561D1*
X434725Y482366D2*
X509804D1*
X636630D2*
X663124D1*
X1180331D2*
X1986561D1*
X434725Y457498D2*
X526454D1*
X620028D2*
X645595D1*
X1181454D2*
X1986561D1*
X434725Y432629D2*
X643055D1*
X1172958D2*
X1986561D1*
X1060587Y557642D2*
X1055419Y552677D1*
X1046664Y546316D1*
X1037022Y541403D1*
X1026730Y538059D1*
X1016041Y536366D1*
X1005219D1*
X994531Y538059D1*
X984239Y541403D1*
X974596Y546316D1*
X965841Y552677D1*
X960673Y557642D1*
X955419Y552677D1*
X946664Y546316D1*
X937022Y541403D1*
X926730Y538059D1*
X916041Y536366D1*
X905219D1*
X894531Y538059D1*
X884239Y541403D1*
X874596Y546316D1*
X865841Y552677D1*
X860673Y557642D1*
X855419Y552677D1*
X846664Y546316D1*
X837022Y541403D1*
X826730Y538059D1*
X816041Y536366D1*
X805219D1*
X794531Y538059D1*
X784239Y541403D1*
X774596Y546316D1*
X765841Y552677D1*
X758189Y560329D1*
X751828Y569084D1*
X746915Y578727D1*
X743571Y589019D1*
X741878Y599707D1*
Y610529D1*
X743571Y621218D1*
X746915Y631510D1*
X751828Y641152D1*
X758189Y649907D1*
X763154Y655075D1*
X758189Y660329D1*
X751828Y669084D1*
X746915Y678727D1*
X743571Y689019D1*
X741878Y699707D1*
Y710529D1*
X743571Y721218D1*
X746915Y731510D1*
X751828Y741152D1*
X758189Y749907D1*
X763154Y755075D1*
X758189Y760329D1*
X751828Y769084D1*
X746915Y778727D1*
X743571Y789019D1*
X741878Y799707D1*
Y810529D1*
X743571Y821218D1*
X746915Y831510D1*
X751828Y841152D1*
X758189Y849907D1*
X763154Y855075D1*
X758189Y860329D1*
X751828Y869084D1*
X746915Y878727D1*
X743571Y889019D1*
X741878Y899707D1*
Y910529D1*
X743571Y921218D1*
X746915Y931510D1*
X751828Y941152D1*
X758189Y949907D1*
X763154Y955075D1*
X758189Y960329D1*
X751828Y969084D1*
X746915Y978727D1*
X743571Y989019D1*
X741878Y999707D1*
Y1010529D1*
X743571Y1021218D1*
X746915Y1031510D1*
X751828Y1041152D1*
X758189Y1049907D1*
X763154Y1055075D1*
X758189Y1060329D1*
X751828Y1069084D1*
X746915Y1078727D1*
X743571Y1089019D1*
X741878Y1099707D1*
Y1110529D1*
X743571Y1121218D1*
X746915Y1131510D1*
X751828Y1141152D1*
X758189Y1149907D1*
X763154Y1155075D1*
X758189Y1160329D1*
X751828Y1169084D1*
X746915Y1178727D1*
X743571Y1189019D1*
X741878Y1199707D1*
Y1210529D1*
X743571Y1221218D1*
X746915Y1231510D1*
X751828Y1241152D1*
X758189Y1249907D1*
X763154Y1255075D1*
X758189Y1260329D1*
X751828Y1269084D1*
X746915Y1278727D1*
X743571Y1289019D1*
X741878Y1299707D1*
Y1310529D1*
X743571Y1321218D1*
X746915Y1331510D1*
X751828Y1341152D1*
X758189Y1349907D1*
X763154Y1355075D1*
X758189Y1360329D1*
X751828Y1369084D1*
X746915Y1378727D1*
X743571Y1389019D1*
X741878Y1399707D1*
Y1410529D1*
X743571Y1421218D1*
X746915Y1431510D1*
X751828Y1441152D1*
X758189Y1449907D1*
X763154Y1455075D1*
X758189Y1460329D1*
X751828Y1469084D1*
X746915Y1478727D1*
X743571Y1489019D1*
X741878Y1499707D1*
Y1510529D1*
X743571Y1521218D1*
X746915Y1531510D1*
X751828Y1541152D1*
X758189Y1549907D1*
X763154Y1555075D1*
X758189Y1560329D1*
X751828Y1569084D1*
X746915Y1578727D1*
X743571Y1589019D1*
X741878Y1599707D1*
Y1610529D1*
X743571Y1621218D1*
X746915Y1631510D1*
X751828Y1641152D1*
X758189Y1649907D1*
X763154Y1655075D1*
X758189Y1660329D1*
X751828Y1669084D1*
X746915Y1678727D1*
X743571Y1689019D1*
X741878Y1699707D1*
Y1710529D1*
X743571Y1721218D1*
X746915Y1731510D1*
X751828Y1741152D1*
X758189Y1749907D1*
X763154Y1755075D1*
X758189Y1760329D1*
X751828Y1769084D1*
X746915Y1778727D1*
X743571Y1789019D1*
X741878Y1799707D1*
Y1810529D1*
X743571Y1821218D1*
X746915Y1831510D1*
X751828Y1841152D1*
X758189Y1849907D1*
X763154Y1855075D1*
X758189Y1860329D1*
X751828Y1869084D1*
X746915Y1878727D1*
X743571Y1889019D1*
X741878Y1899707D1*
Y1910529D1*
X743571Y1921218D1*
X746915Y1931510D1*
X751828Y1941152D1*
X758189Y1949907D1*
X763154Y1955075D1*
X758189Y1960329D1*
X751828Y1969084D1*
X746915Y1978727D1*
X743571Y1989019D1*
X741878Y1999707D1*
Y2010529D1*
X743571Y2021218D1*
X746915Y2031510D1*
X751828Y2041152D1*
X758189Y2049907D1*
X763154Y2055075D1*
X758189Y2060329D1*
X751828Y2069084D1*
X746915Y2078727D1*
X743571Y2089019D1*
X741878Y2099707D1*
Y2110529D1*
X743571Y2121218D1*
X746915Y2131510D1*
X751828Y2141152D1*
X758189Y2149907D1*
X763154Y2155075D1*
X758189Y2160329D1*
X751828Y2169084D1*
X746915Y2178727D1*
X743571Y2189019D1*
X741878Y2199707D1*
Y2210529D1*
X743571Y2221218D1*
X746915Y2231510D1*
X751828Y2241152D1*
X758189Y2249907D1*
X765841Y2257559D1*
X774596Y2263920D1*
X784239Y2268833D1*
X794531Y2272177D1*
X805219Y2273870D1*
X816041D1*
X826730Y2272177D1*
X837022Y2268833D1*
X846664Y2263920D1*
X855419Y2257559D1*
X860587Y2252594D1*
X865841Y2257559D1*
X874596Y2263920D1*
X884239Y2268833D1*
X894531Y2272177D1*
X905219Y2273870D1*
X916041D1*
X926730Y2272177D1*
X937022Y2268833D1*
X946664Y2263920D1*
X955419Y2257559D1*
X960587Y2252594D1*
X965841Y2257559D1*
X974596Y2263920D1*
X984239Y2268833D1*
X994531Y2272177D1*
X1005219Y2273870D1*
X1016041D1*
X1026730Y2272177D1*
X1037022Y2268833D1*
X1046664Y2263920D1*
X1055419Y2257559D1*
X1060587Y2252594D1*
X1065841Y2257559D1*
X1074596Y2263920D1*
X1084239Y2268833D1*
X1094531Y2272177D1*
X1105219Y2273870D1*
X1116041D1*
X1126730Y2272177D1*
X1137022Y2268833D1*
X1146664Y2263920D1*
X1155419Y2257559D1*
X1160587Y2252594D1*
X1165841Y2257559D1*
X1174596Y2263920D1*
X1184239Y2268833D1*
X1194531Y2272177D1*
X1205219Y2273870D1*
X1216041D1*
X1226730Y2272177D1*
X1237022Y2268833D1*
X1246664Y2263920D1*
X1255419Y2257559D1*
X1260587Y2252594D1*
X1265841Y2257559D1*
X1274596Y2263920D1*
X1284239Y2268833D1*
X1294531Y2272177D1*
X1305219Y2273870D1*
X1316041D1*
X1326730Y2272177D1*
X1337022Y2268833D1*
X1346664Y2263920D1*
X1355419Y2257559D1*
X1360587Y2252594D1*
X1365841Y2257559D1*
X1374596Y2263920D1*
X1384239Y2268833D1*
X1394531Y2272177D1*
X1405219Y2273870D1*
X1416041D1*
X1426730Y2272177D1*
X1437022Y2268833D1*
X1446664Y2263920D1*
X1455419Y2257559D1*
X1460587Y2252594D1*
X1465841Y2257559D1*
X1474596Y2263920D1*
X1484239Y2268833D1*
X1494531Y2272177D1*
X1505219Y2273870D1*
X1516041D1*
X1526730Y2272177D1*
X1537022Y2268833D1*
X1546664Y2263920D1*
X1555419Y2257559D1*
X1560587Y2252594D1*
X1565841Y2257559D1*
X1574596Y2263920D1*
X1584239Y2268833D1*
X1594531Y2272177D1*
X1605219Y2273870D1*
X1616041D1*
X1626730Y2272177D1*
X1637022Y2268833D1*
X1646664Y2263920D1*
X1655419Y2257559D1*
X1663071Y2249907D1*
X1669432Y2241152D1*
X1674345Y2231510D1*
X1677689Y2221218D1*
X1679382Y2210529D1*
Y2199707D1*
X1677689Y2189019D1*
X1674345Y2178727D1*
X1669432Y2169084D1*
X1663071Y2160329D1*
X1658106Y2155161D1*
X1663071Y2149907D1*
X1669432Y2141152D1*
X1674345Y2131510D1*
X1677689Y2121218D1*
X1679382Y2110529D1*
Y2099707D1*
X1677689Y2089019D1*
X1674345Y2078727D1*
X1669432Y2069084D1*
X1663071Y2060329D1*
X1658106Y2055161D1*
X1663071Y2049907D1*
X1669432Y2041152D1*
X1674345Y2031510D1*
X1677689Y2021218D1*
X1679382Y2010529D1*
Y1999707D1*
X1677689Y1989019D1*
X1674345Y1978727D1*
X1669432Y1969084D1*
X1663071Y1960329D1*
X1658106Y1955161D1*
X1663071Y1949907D1*
X1669432Y1941152D1*
X1674345Y1931510D1*
X1677689Y1921218D1*
X1679382Y1910529D1*
Y1899707D1*
X1677689Y1889019D1*
X1674345Y1878727D1*
X1669432Y1869084D1*
X1663071Y1860329D1*
X1658106Y1855161D1*
X1663071Y1849907D1*
X1669432Y1841152D1*
X1674345Y1831510D1*
X1677689Y1821218D1*
X1679382Y1810529D1*
Y1799707D1*
X1677689Y1789019D1*
X1674345Y1778727D1*
X1669432Y1769084D1*
X1663071Y1760329D1*
X1658106Y1755161D1*
X1663071Y1749907D1*
X1669432Y1741152D1*
X1674345Y1731510D1*
X1677689Y1721218D1*
X1679382Y1710529D1*
Y1699707D1*
X1677689Y1689019D1*
X1674345Y1678727D1*
X1669432Y1669084D1*
X1663071Y1660329D1*
X1658106Y1655161D1*
X1663071Y1649907D1*
X1669432Y1641152D1*
X1674345Y1631510D1*
X1677689Y1621218D1*
X1679382Y1610529D1*
Y1599707D1*
X1677689Y1589019D1*
X1674345Y1578727D1*
X1669432Y1569084D1*
X1663071Y1560329D1*
X1658106Y1555161D1*
X1663071Y1549907D1*
X1669432Y1541152D1*
X1674345Y1531510D1*
X1677689Y1521218D1*
X1679382Y1510529D1*
Y1499707D1*
X1677689Y1489019D1*
X1674345Y1478727D1*
X1669432Y1469084D1*
X1663071Y1460329D1*
X1658106Y1455161D1*
X1663071Y1449907D1*
X1669432Y1441152D1*
X1674345Y1431510D1*
X1677689Y1421218D1*
X1679382Y1410529D1*
Y1399707D1*
X1677689Y1389019D1*
X1674345Y1378727D1*
X1669432Y1369084D1*
X1663071Y1360329D1*
X1658106Y1355161D1*
X1663071Y1349907D1*
X1669432Y1341152D1*
X1674345Y1331510D1*
X1677689Y1321218D1*
X1679382Y1310529D1*
Y1299707D1*
X1677689Y1289019D1*
X1674345Y1278727D1*
X1669432Y1269084D1*
X1663071Y1260329D1*
X1658106Y1255161D1*
X1663071Y1249907D1*
X1669432Y1241152D1*
X1674345Y1231510D1*
X1677689Y1221218D1*
X1679382Y1210529D1*
Y1199707D1*
X1677689Y1189019D1*
X1674345Y1178727D1*
X1669432Y1169084D1*
X1663071Y1160329D1*
X1658106Y1155161D1*
X1663071Y1149907D1*
X1669432Y1141152D1*
X1674345Y1131510D1*
X1677689Y1121218D1*
X1679382Y1110529D1*
Y1099707D1*
X1677689Y1089019D1*
X1674345Y1078727D1*
X1669432Y1069084D1*
X1663071Y1060329D1*
X1658106Y1055161D1*
X1663071Y1049907D1*
X1669432Y1041152D1*
X1674345Y1031510D1*
X1677689Y1021218D1*
X1679382Y1010529D1*
Y999707D1*
X1677689Y989019D1*
X1674345Y978727D1*
X1669432Y969084D1*
X1663071Y960329D1*
X1658106Y955161D1*
X1663071Y949907D1*
X1669432Y941152D1*
X1674345Y931510D1*
X1677689Y921218D1*
X1679382Y910529D1*
Y899707D1*
X1677689Y889019D1*
X1674345Y878727D1*
X1669432Y869084D1*
X1663071Y860329D1*
X1658106Y855161D1*
X1663071Y849907D1*
X1669432Y841152D1*
X1674345Y831510D1*
X1677689Y821218D1*
X1679382Y810529D1*
Y799707D1*
X1677689Y789019D1*
X1674345Y778727D1*
X1669432Y769084D1*
X1663071Y760329D1*
X1658106Y755161D1*
X1663071Y749907D1*
X1669432Y741152D1*
X1674345Y731510D1*
X1677689Y721218D1*
X1679382Y710529D1*
Y699707D1*
X1677689Y689019D1*
X1674345Y678727D1*
X1669432Y669084D1*
X1663071Y660329D1*
X1658106Y655161D1*
X1663071Y649907D1*
X1669432Y641152D1*
X1674345Y631510D1*
X1677689Y621218D1*
X1679382Y610529D1*
Y599707D1*
X1677689Y589019D1*
X1674345Y578727D1*
X1669432Y569084D1*
X1663071Y560329D1*
X1655419Y552677D1*
X1646664Y546316D1*
X1637022Y541403D1*
X1626730Y538059D1*
X1616041Y536366D1*
X1605219D1*
X1594531Y538059D1*
X1584239Y541403D1*
X1574596Y546316D1*
X1565841Y552677D1*
X1560673Y557642D1*
X1555419Y552677D1*
X1546664Y546316D1*
X1537022Y541403D1*
X1526730Y538059D1*
X1516041Y536366D1*
X1505219D1*
X1494531Y538059D1*
X1484239Y541403D1*
X1474596Y546316D1*
X1465841Y552677D1*
X1460673Y557642D1*
X1455419Y552677D1*
X1446664Y546316D1*
X1437022Y541403D1*
X1426730Y538059D1*
X1416041Y536366D1*
X1405219D1*
X1394531Y538059D1*
X1384239Y541403D1*
X1374596Y546316D1*
X1365841Y552677D1*
X1360673Y557642D1*
X1355419Y552677D1*
X1346664Y546316D1*
X1337022Y541403D1*
X1326730Y538059D1*
X1316041Y536366D1*
X1305219D1*
X1294531Y538059D1*
X1284239Y541403D1*
X1274596Y546316D1*
X1265841Y552677D1*
X1260673Y557642D1*
X1255419Y552677D1*
X1246664Y546316D1*
X1237022Y541403D1*
X1226730Y538059D1*
X1216041Y536366D1*
X1205219D1*
X1194531Y538059D1*
X1184239Y541403D1*
X1174596Y546316D1*
X1165841Y552677D1*
X1160673Y557642D1*
X1155419Y552677D1*
X1146664Y546316D1*
X1137022Y541403D1*
X1126730Y538059D1*
X1116041Y536366D1*
X1105219D1*
X1094531Y538059D1*
X1084239Y541403D1*
X1074596Y546316D1*
X1065841Y552677D1*
X1060673Y557642D1*
X1706473Y2255140D2*
X1698584Y2262886D1*
X1692587Y2271142D1*
X1687954Y2280233D1*
X1684801Y2289938D1*
X1683205Y2300016D1*
Y2310220D1*
X1684801Y2320299D1*
X1687954Y2330003D1*
X1692587Y2339095D1*
X1698584Y2347350D1*
X1705800Y2354566D1*
X1714055Y2360563D1*
X1723147Y2365196D1*
X1732851Y2368349D1*
X1742930Y2369945D1*
X1753134D1*
X1763212Y2368349D1*
X1772917Y2365196D1*
X1782009Y2360563D1*
X1790264Y2354566D1*
X1798010Y2346677D1*
X1805800Y2354566D1*
X1814055Y2360563D1*
X1823147Y2365196D1*
X1832851Y2368349D1*
X1842930Y2369945D1*
X1853134D1*
X1863212Y2368349D1*
X1872917Y2365196D1*
X1882009Y2360563D1*
X1890264Y2354566D1*
X1898010Y2346677D1*
X1905800Y2354566D1*
X1906473Y2355097D1*
X1898584Y2362886D1*
X1892587Y2371142D1*
X1887954Y2380233D1*
X1884801Y2389938D1*
X1883205Y2400016D1*
Y2410220D1*
X1884801Y2420299D1*
X1885315Y2422122D1*
X635983Y2422130D1*
X637456Y2415291D1*
X638256Y2405118D1*
X637456Y2394946D1*
X635073Y2385024D1*
X631169Y2375596D1*
X625837Y2366896D1*
X619210Y2359137D1*
X611451Y2352510D1*
X602750Y2347178D1*
X593323Y2343273D1*
X583401Y2340891D1*
X573229Y2340091D1*
X563056Y2340891D1*
X553134Y2343273D1*
X543707Y2347178D1*
X535006Y2352510D1*
X527247Y2359137D1*
X520620Y2366896D1*
X515289Y2375596D1*
X511384Y2385024D1*
X509002Y2394946D1*
X508201Y2405118D1*
X509002Y2415291D1*
X510512Y2422122D1*
X432175Y2422130D1*
X432201Y2355577D1*
X439252Y2360563D1*
X448344Y2365196D1*
X458048Y2368349D1*
X468127Y2369945D1*
X478331D1*
X488409Y2368349D1*
X498114Y2365196D1*
X507205Y2360563D1*
X515461Y2354566D1*
X522676Y2347350D1*
X528674Y2339095D1*
X533306Y2330003D1*
X536459Y2320299D1*
X538056Y2310220D1*
Y2300016D1*
X537697Y2296587D1*
X595070D1*
X601586Y2302429D1*
X606871Y2305667D1*
X612597Y2308039D1*
X618624Y2309486D1*
X624803Y2309973D1*
X641551D1*
X647100Y2314564D1*
X654392Y2319033D1*
X662293Y2322305D1*
X670608Y2324302D1*
X679134Y2324973D1*
X687660Y2324302D1*
X695975Y2322305D1*
X703877Y2319033D1*
X711168Y2314564D1*
X717671Y2309010D1*
X723225Y2302507D1*
X727694Y2295215D1*
X730967Y2287314D1*
X732963Y2278998D1*
X733634Y2270473D1*
X732963Y2261947D1*
X730967Y2253631D1*
X727694Y2245730D1*
X723225Y2238438D1*
X717671Y2231935D1*
X711168Y2226381D1*
X703877Y2221913D1*
X695975Y2218640D1*
X687660Y2216644D1*
X679134Y2215973D1*
X670608Y2216644D1*
X662293Y2218640D1*
X654392Y2221913D1*
X647100Y2226381D1*
X641640Y2230971D1*
X635073Y2225213D1*
X637456Y2215291D1*
X638256Y2205118D1*
X637456Y2194946D1*
X635073Y2185024D1*
X631169Y2175596D1*
X625837Y2166896D1*
X619210Y2159137D1*
X614787Y2155140D1*
X622676Y2147350D1*
X628674Y2139095D1*
X633306Y2130003D1*
X636459Y2120299D1*
X638056Y2110220D1*
Y2100016D1*
X636459Y2089938D1*
X633306Y2080233D1*
X628674Y2071142D1*
X622676Y2062886D1*
X614787Y2055140D1*
X622676Y2047350D1*
X628674Y2039095D1*
X633306Y2030003D1*
X636459Y2020299D1*
X638056Y2010220D1*
Y2000016D1*
X636459Y1989938D1*
X633306Y1980233D1*
X628674Y1971142D1*
X622676Y1962886D1*
X615461Y1955671D1*
X607205Y1949673D1*
X598114Y1945041D1*
X588409Y1941887D1*
X578331Y1940291D1*
X568127D1*
X558048Y1941887D1*
X548344Y1945041D1*
X539252Y1949673D1*
X530997Y1955671D1*
X523250Y1963560D1*
X515461Y1955671D1*
X514787Y1955140D1*
X522676Y1947350D1*
X528674Y1939095D1*
X533306Y1930003D1*
X536459Y1920299D1*
X538056Y1910220D1*
Y1900016D1*
X536459Y1889938D1*
X533306Y1880233D1*
X528674Y1871142D1*
X522676Y1862886D1*
X514787Y1855140D1*
X522676Y1847350D1*
X523207Y1846677D1*
X530997Y1854566D1*
X539252Y1860563D1*
X548344Y1865196D1*
X558048Y1868349D1*
X568127Y1869945D1*
X578331D1*
X588409Y1868349D1*
X598114Y1865196D1*
X607205Y1860563D1*
X615461Y1854566D1*
X622676Y1847350D1*
X628674Y1839095D1*
X633306Y1830003D1*
X636459Y1820299D1*
X638056Y1810220D1*
Y1800016D1*
X636459Y1789938D1*
X633306Y1780233D1*
X628674Y1771142D1*
X622676Y1762886D1*
X614787Y1755140D1*
X622676Y1747350D1*
X628674Y1739095D1*
X633306Y1730003D1*
X636459Y1720299D1*
X638056Y1710220D1*
Y1700016D1*
X636459Y1689938D1*
X633306Y1680233D1*
X628674Y1671142D1*
X622676Y1662886D1*
X614787Y1655140D1*
X622676Y1647350D1*
X628674Y1639095D1*
X633306Y1630003D1*
X636459Y1620299D1*
X638056Y1610220D1*
Y1600016D1*
X636459Y1589938D1*
X633306Y1580233D1*
X628674Y1571142D1*
X622676Y1562886D1*
X614787Y1555140D1*
X622676Y1547350D1*
X628674Y1539095D1*
X633306Y1530003D1*
X636459Y1520299D1*
X638056Y1510220D1*
Y1500016D1*
X636459Y1489938D1*
X633306Y1480233D1*
X628674Y1471142D1*
X622676Y1462886D1*
X614787Y1455140D1*
X622676Y1447350D1*
X628674Y1439095D1*
X633306Y1430003D1*
X636459Y1420299D1*
X638056Y1410220D1*
Y1400016D1*
X636459Y1389938D1*
X633306Y1380233D1*
X628674Y1371142D1*
X622676Y1362886D1*
X614787Y1355140D1*
X622676Y1347350D1*
X628674Y1339095D1*
X633306Y1330003D1*
X636459Y1320299D1*
X638056Y1310220D1*
Y1300016D1*
X636459Y1289938D1*
X633306Y1280233D1*
X628674Y1271142D1*
X622676Y1262886D1*
X614787Y1255140D1*
X622676Y1247350D1*
X628674Y1239095D1*
X633306Y1230003D1*
X636459Y1220299D1*
X638056Y1210220D1*
Y1200016D1*
X636459Y1189938D1*
X633306Y1180233D1*
X628674Y1171142D1*
X622676Y1162886D1*
X614787Y1155140D1*
X622676Y1147350D1*
X628674Y1139095D1*
X633306Y1130003D1*
X636459Y1120299D1*
X638056Y1110220D1*
Y1100016D1*
X636459Y1089938D1*
X633306Y1080233D1*
X628674Y1071142D1*
X622676Y1062886D1*
X614787Y1055140D1*
X622676Y1047350D1*
X628674Y1039095D1*
X633306Y1030003D1*
X636459Y1020299D1*
X638056Y1010220D1*
Y1000016D1*
X636459Y989938D1*
X633306Y980233D1*
X628674Y971142D1*
X622676Y962886D1*
X614787Y955140D1*
X622676Y947350D1*
X628674Y939095D1*
X633306Y930003D1*
X636459Y920299D1*
X638056Y910220D1*
Y900016D1*
X636459Y889938D1*
X633306Y880233D1*
X628674Y871142D1*
X622676Y862886D1*
X614787Y855140D1*
X622676Y847350D1*
X628674Y839095D1*
X633306Y830003D1*
X636459Y820299D1*
X638056Y810220D1*
Y800016D1*
X636459Y789938D1*
X633306Y780233D1*
X628674Y771142D1*
X622676Y762886D1*
X614787Y755140D1*
X622676Y747350D1*
X628674Y739095D1*
X633306Y730003D1*
X636459Y720299D1*
X638056Y710220D1*
Y700016D1*
X636459Y689938D1*
X633306Y680233D1*
X628674Y671142D1*
X622676Y662886D1*
X614787Y655140D1*
X622676Y647350D1*
X628674Y639095D1*
X633306Y630003D1*
X636459Y620299D1*
X638056Y610220D1*
Y600016D1*
X636459Y589938D1*
X633306Y580233D1*
X628674Y571142D1*
X622676Y562886D1*
X614787Y555140D1*
X622676Y547350D1*
X628674Y539095D1*
X633306Y530003D1*
X636459Y520299D1*
X638056Y510220D1*
Y500016D1*
X636459Y489938D1*
X633306Y480233D1*
X628674Y471142D1*
X622676Y462886D1*
X615461Y455671D1*
X607205Y449673D1*
X598114Y445041D1*
X588409Y441887D1*
X578331Y440291D1*
X568127D1*
X558048Y441887D1*
X548344Y445041D1*
X539252Y449673D1*
X530997Y455671D1*
X523781Y462886D1*
X517783Y471142D1*
X513151Y480233D1*
X509998Y489938D1*
X508401Y500016D1*
Y510220D1*
X509998Y520299D1*
X513151Y530003D1*
X517783Y539095D1*
X523781Y547350D1*
X531670Y555097D1*
X523781Y562886D1*
X523250Y563560D1*
X515461Y555671D1*
X507205Y549673D1*
X498114Y545041D1*
X488409Y541887D1*
X478331Y540291D1*
X468127D1*
X458048Y541887D1*
X448344Y545041D1*
X439252Y549673D1*
X432203Y554720D1*
X432201Y432238D1*
X645629Y432201D1*
X645107Y439764D1*
X645777Y448290D1*
X647774Y456605D1*
X651047Y464506D1*
X655515Y471798D1*
X661069Y478301D1*
X667572Y483855D1*
X674864Y488324D1*
X682765Y491597D1*
X691081Y493593D1*
X699607Y494264D1*
X708132Y493593D1*
X716448Y491597D1*
X724349Y488324D1*
X731641Y483855D1*
X738144Y478301D1*
X742011Y473938D1*
X743571Y483029D1*
X746915Y493321D1*
X751828Y502963D1*
X758189Y511718D1*
X765841Y519370D1*
X774596Y525731D1*
X784239Y530644D1*
X794531Y533988D1*
X805219Y535681D1*
X816041D1*
X826730Y533988D1*
X837022Y530644D1*
X846664Y525731D1*
X855419Y519370D1*
X860587Y514405D1*
X865841Y519370D1*
X874596Y525731D1*
X884239Y530644D1*
X894531Y533988D1*
X905219Y535681D1*
X916041D1*
X926730Y533988D1*
X937022Y530644D1*
X946664Y525731D1*
X955419Y519370D1*
X960587Y514405D1*
X965841Y519370D1*
X974596Y525731D1*
X984239Y530644D1*
X994531Y533988D1*
X1005219Y535681D1*
X1016041D1*
X1026730Y533988D1*
X1037022Y530644D1*
X1046664Y525731D1*
X1055419Y519370D1*
X1060587Y514405D1*
X1065841Y519370D1*
X1074596Y525731D1*
X1084239Y530644D1*
X1094531Y533988D1*
X1105219Y535681D1*
X1116041D1*
X1126730Y533988D1*
X1137022Y530644D1*
X1146664Y525731D1*
X1155419Y519370D1*
X1163071Y511718D1*
X1169432Y502963D1*
X1174345Y493321D1*
X1177689Y483029D1*
X1179382Y472340D1*
Y461518D1*
X1177689Y450830D1*
X1174345Y440538D1*
X1170166Y432206D1*
X1989086Y432201D1*
X1989059Y554711D1*
X1982009Y549673D1*
X1972917Y545041D1*
X1963212Y541887D1*
X1953134Y540291D1*
X1942930D1*
X1932851Y541887D1*
X1923147Y545041D1*
X1914055Y549673D1*
X1905800Y555671D1*
X1898053Y563560D1*
X1890264Y555671D1*
X1882009Y549673D1*
X1872917Y545041D1*
X1863212Y541887D1*
X1853134Y540291D1*
X1842930D1*
X1832851Y541887D1*
X1823147Y545041D1*
X1814055Y549673D1*
X1805800Y555671D1*
X1798584Y562886D1*
X1792587Y571142D1*
X1787954Y580233D1*
X1784801Y589938D1*
X1783205Y600016D1*
Y610220D1*
X1784801Y620299D1*
X1787954Y630003D1*
X1792587Y639095D1*
X1798584Y647350D1*
X1806473Y655097D1*
X1798584Y662886D1*
X1792587Y671142D1*
X1787954Y680233D1*
X1784801Y689938D1*
X1783205Y700016D1*
Y710220D1*
X1784801Y720299D1*
X1787954Y730003D1*
X1792587Y739095D1*
X1798584Y747350D1*
X1806473Y755097D1*
X1798584Y762886D1*
X1792587Y771142D1*
X1787954Y780233D1*
X1784801Y789938D1*
X1783205Y800016D1*
Y810220D1*
X1784801Y820299D1*
X1787954Y830003D1*
X1792587Y839095D1*
X1798584Y847350D1*
X1806473Y855097D1*
X1798584Y862886D1*
X1792587Y871142D1*
X1787954Y880233D1*
X1784801Y889938D1*
X1783205Y900016D1*
Y910220D1*
X1784801Y920299D1*
X1787954Y930003D1*
X1792587Y939095D1*
X1798584Y947350D1*
X1806473Y955097D1*
X1798584Y962886D1*
X1792587Y971142D1*
X1787954Y980233D1*
X1784801Y989938D1*
X1783205Y1000016D1*
Y1010220D1*
X1784801Y1020299D1*
X1787954Y1030003D1*
X1792587Y1039095D1*
X1798584Y1047350D1*
X1806473Y1055097D1*
X1798584Y1062886D1*
X1798053Y1063560D1*
X1790264Y1055671D1*
X1782009Y1049673D1*
X1772917Y1045041D1*
X1763212Y1041887D1*
X1753134Y1040291D1*
X1742930D1*
X1732851Y1041887D1*
X1723147Y1045041D1*
X1714055Y1049673D1*
X1705800Y1055671D1*
X1698584Y1062886D1*
X1692587Y1071142D1*
X1687954Y1080233D1*
X1684801Y1089938D1*
X1683205Y1100016D1*
Y1110220D1*
X1684801Y1120299D1*
X1687954Y1130003D1*
X1692587Y1139095D1*
X1698584Y1147350D1*
X1706473Y1155097D1*
X1698584Y1162886D1*
X1692587Y1171142D1*
X1687954Y1180233D1*
X1684801Y1189938D1*
X1683205Y1200016D1*
Y1210220D1*
X1684801Y1220299D1*
X1687954Y1230003D1*
X1692587Y1239095D1*
X1698584Y1247350D1*
X1706473Y1255097D1*
X1698584Y1262886D1*
X1692587Y1271142D1*
X1687954Y1280233D1*
X1684801Y1289938D1*
X1683205Y1300016D1*
Y1310220D1*
X1684801Y1320299D1*
X1687954Y1330003D1*
X1692587Y1339095D1*
X1698584Y1347350D1*
X1706473Y1355097D1*
X1698584Y1362886D1*
X1692587Y1371142D1*
X1687954Y1380233D1*
X1684801Y1389938D1*
X1683205Y1400016D1*
Y1410220D1*
X1684801Y1420299D1*
X1687954Y1430003D1*
X1692587Y1439095D1*
X1698584Y1447350D1*
X1706473Y1455097D1*
X1698584Y1462886D1*
X1692587Y1471142D1*
X1687954Y1480233D1*
X1684801Y1489938D1*
X1683205Y1500016D1*
Y1510220D1*
X1684801Y1520299D1*
X1687954Y1530003D1*
X1692587Y1539095D1*
X1698584Y1547350D1*
X1706473Y1555097D1*
X1698584Y1562886D1*
X1692587Y1571142D1*
X1687954Y1580233D1*
X1684801Y1589938D1*
X1683205Y1600016D1*
Y1610220D1*
X1684801Y1620299D1*
X1687954Y1630003D1*
X1692587Y1639095D1*
X1698584Y1647350D1*
X1706473Y1655097D1*
X1698584Y1662886D1*
X1692587Y1671142D1*
X1687954Y1680233D1*
X1684801Y1689938D1*
X1683205Y1700016D1*
Y1710220D1*
X1684801Y1720299D1*
X1687954Y1730003D1*
X1692587Y1739095D1*
X1698584Y1747350D1*
X1706473Y1755097D1*
X1698584Y1762886D1*
X1692587Y1771142D1*
X1687954Y1780233D1*
X1684801Y1789938D1*
X1683205Y1800016D1*
Y1810220D1*
X1684801Y1820299D1*
X1687954Y1830003D1*
X1692587Y1839095D1*
X1698584Y1847350D1*
X1705800Y1854566D1*
X1714055Y1860563D1*
X1723147Y1865196D1*
X1732851Y1868349D1*
X1742930Y1869945D1*
X1753134D1*
X1763212Y1868349D1*
X1772917Y1865196D1*
X1782009Y1860563D1*
X1790264Y1854566D1*
X1798010Y1846677D1*
X1805800Y1854566D1*
X1806473Y1855097D1*
X1798584Y1862886D1*
X1792587Y1871142D1*
X1787954Y1880233D1*
X1784801Y1889938D1*
X1783205Y1900016D1*
Y1910220D1*
X1784801Y1920299D1*
X1787954Y1930003D1*
X1792587Y1939095D1*
X1798584Y1947350D1*
X1806473Y1955097D1*
X1798584Y1962886D1*
X1792587Y1971142D1*
X1787954Y1980233D1*
X1784801Y1989938D1*
X1783205Y2000016D1*
Y2010220D1*
X1784801Y2020299D1*
X1787954Y2030003D1*
X1792587Y2039095D1*
X1798584Y2047350D1*
X1806473Y2055097D1*
X1798584Y2062886D1*
X1792587Y2071142D1*
X1787954Y2080233D1*
X1784801Y2089938D1*
X1783205Y2100016D1*
Y2110220D1*
X1784801Y2120299D1*
X1787954Y2130003D1*
X1792587Y2139095D1*
X1798584Y2147350D1*
X1806473Y2155097D1*
X1798584Y2162886D1*
X1798053Y2163560D1*
X1790264Y2155671D1*
X1782009Y2149673D1*
X1772917Y2145041D1*
X1763212Y2141887D1*
X1753134Y2140291D1*
X1742930D1*
X1732851Y2141887D1*
X1723147Y2145041D1*
X1714055Y2149673D1*
X1705800Y2155671D1*
X1698584Y2162886D1*
X1692587Y2171142D1*
X1687954Y2180233D1*
X1684801Y2189938D1*
X1683205Y2200016D1*
Y2210220D1*
X1684801Y2220299D1*
X1687954Y2230003D1*
X1692587Y2239095D1*
X1698584Y2247350D1*
X1706473Y2255097D1*
X1798010Y1463560D2*
X1790264Y1455671D1*
X1789590Y1455140D1*
X1797479Y1447350D1*
X1803477Y1439095D1*
X1808109Y1430003D1*
X1811263Y1420299D1*
X1812859Y1410220D1*
Y1400016D1*
X1811263Y1389938D1*
X1808109Y1380233D1*
X1803477Y1371142D1*
X1797479Y1362886D1*
X1789590Y1355140D1*
X1797479Y1347350D1*
X1798010Y1346677D1*
X1805800Y1354566D1*
X1814055Y1360563D1*
X1823147Y1365196D1*
X1832851Y1368349D1*
X1842930Y1369945D1*
X1853134D1*
X1863212Y1368349D1*
X1872917Y1365196D1*
X1882009Y1360563D1*
X1890264Y1354566D1*
X1898010Y1346677D1*
X1905800Y1354566D1*
X1914055Y1360563D1*
X1923147Y1365196D1*
X1932851Y1368349D1*
X1942930Y1369945D1*
X1953134D1*
X1963212Y1368349D1*
X1972917Y1365196D1*
X1982009Y1360563D1*
X1989058Y1355516D1*
X1989059Y1454711D1*
X1982009Y1449673D1*
X1972917Y1445041D1*
X1963212Y1441887D1*
X1953134Y1440291D1*
X1942930D1*
X1932851Y1441887D1*
X1923147Y1445041D1*
X1914055Y1449673D1*
X1905800Y1455671D1*
X1898053Y1463560D1*
X1890264Y1455671D1*
X1882009Y1449673D1*
X1872917Y1445041D1*
X1863212Y1441887D1*
X1853134Y1440291D1*
X1842930D1*
X1832851Y1441887D1*
X1823147Y1445041D1*
X1814055Y1449673D1*
X1805800Y1455671D1*
X1798053Y1463560D1*
D18*
X1010630Y605118D3*
D19*
X910630D3*
X1010630Y705118D3*
X910630D3*
X1010630Y805118D3*
X910630D3*
X1010630Y905118D3*
X910630D3*
X1010630Y1005118D3*
X910630D3*
X1010630Y1105118D3*
X910630D3*
X1010630Y1205118D3*
X910630D3*
X1010630Y1305118D3*
X910630D3*
X1010630Y1405118D3*
X910630D3*
X1010630Y1505118D3*
X910630D3*
X1010630Y1605118D3*
X910630D3*
X1010630Y1705118D3*
X910630D3*
X1010630Y1805118D3*
X910630D3*
X1010630Y1905118D3*
X910630D3*
X1010630Y2005118D3*
X910630D3*
X1010630Y2105118D3*
X910630D3*
X1010630Y2205118D3*
X910630D3*
X810630Y605118D3*
Y705118D3*
Y805118D3*
Y905118D3*
Y1005118D3*
Y1105118D3*
Y1205118D3*
Y1305118D3*
Y1405118D3*
Y1505118D3*
Y1605118D3*
Y1705118D3*
Y1805118D3*
Y1905118D3*
Y2005118D3*
Y2105118D3*
Y2205118D3*
D18*
X1310630Y605118D3*
D19*
X1210630D3*
X1310630Y705118D3*
X1210630D3*
X1310630Y805118D3*
X1210630D3*
X1310630Y905118D3*
X1210630D3*
X1310630Y1005118D3*
X1210630D3*
X1310630Y1105118D3*
X1210630D3*
X1310630Y1205118D3*
X1210630D3*
X1310630Y1305118D3*
X1210630D3*
X1310630Y1405118D3*
X1210630D3*
X1310630Y1505118D3*
X1210630D3*
X1310630Y1605118D3*
X1210630D3*
X1310630Y1705118D3*
X1210630D3*
X1310630Y1805118D3*
X1210630D3*
X1310630Y1905118D3*
X1210630D3*
X1310630Y2005118D3*
X1210630D3*
X1310630Y2105118D3*
X1210630D3*
X1310630Y2205118D3*
X1210630D3*
X1110630Y605118D3*
Y705118D3*
Y805118D3*
Y905118D3*
Y1005118D3*
Y1105118D3*
Y1205118D3*
Y1305118D3*
Y1405118D3*
Y1505118D3*
Y1605118D3*
Y1705118D3*
Y1805118D3*
Y1905118D3*
Y2005118D3*
Y2105118D3*
Y2205118D3*
D18*
X1610630Y605118D3*
D19*
X1510630D3*
X1610630Y705118D3*
X1510630D3*
X1610630Y805118D3*
X1510630D3*
X1610630Y905118D3*
X1510630D3*
X1610630Y1005118D3*
X1510630D3*
X1610630Y1105118D3*
X1510630D3*
X1610630Y1205118D3*
X1510630D3*
X1610630Y1305118D3*
X1510630D3*
X1610630Y1405118D3*
X1510630D3*
X1610630Y1505118D3*
X1510630D3*
X1610630Y1605118D3*
X1510630D3*
X1610630Y1705118D3*
X1510630D3*
X1610630Y1805118D3*
X1510630D3*
X1610630Y1905118D3*
X1510630D3*
X1610630Y2005118D3*
X1510630D3*
X1610630Y2105118D3*
X1510630D3*
X1610630Y2205118D3*
X1510630D3*
X1410630Y605118D3*
Y705118D3*
Y805118D3*
Y905118D3*
Y1005118D3*
Y1105118D3*
Y1205118D3*
Y1305118D3*
Y1405118D3*
Y1505118D3*
Y1605118D3*
Y1705118D3*
Y1805118D3*
Y1905118D3*
Y2005118D3*
Y2105118D3*
Y2205118D3*
D20*
X1748032Y2305118D3*
D19*
X1010630Y466929D3*
D20*
X1748032Y2205118D3*
D19*
X910630Y466929D3*
D20*
X1748032Y1605118D3*
D19*
X810630Y466929D3*
D20*
X1748032Y1505118D3*
D19*
X1310630Y466929D3*
D20*
X1748032Y1405118D3*
D19*
X1210630Y466929D3*
D20*
X1748032Y1305118D3*
D19*
X1110630Y466929D3*
D20*
X1748032Y1805118D3*
D19*
X1610630Y466929D3*
D20*
X1748032Y1705118D3*
D19*
X1510630Y466929D3*
D20*
X1748032Y1205118D3*
D19*
X1410630Y466929D3*
D20*
X1748032Y1105118D3*
D21*
X473229Y2405118D3*
D22*
X573229D3*
X473229Y2305118D3*
X573229D3*
X473229Y2205118D3*
X573229D3*
X473229Y2105118D3*
X573229D3*
X473229Y2005118D3*
X573229D3*
X473229Y1905118D3*
X573229D3*
X473229Y1805118D3*
X573229D3*
X473229Y1705118D3*
X573229D3*
X473229Y1605118D3*
X573229D3*
X473229Y1505118D3*
X573229D3*
X473229Y1405118D3*
X573229D3*
X473229Y1305118D3*
X573229D3*
X473229Y1205118D3*
X573229D3*
X473229Y1105118D3*
X573229D3*
X473229Y1005118D3*
X573229D3*
X473229Y905118D3*
X573229D3*
X473229Y805118D3*
X573229D3*
X473229Y705118D3*
X573229D3*
X473229Y605118D3*
X573229D3*
X473229Y505118D3*
X573229D3*
D21*
X1848032Y2405118D3*
D22*
X1948032D3*
X1848032Y2305118D3*
X1948032D3*
X1848032Y2205118D3*
X1948032D3*
X1848032Y2105118D3*
X1948032D3*
X1848032Y2005118D3*
X1948032D3*
X1848032Y1905118D3*
X1948032D3*
X1848032Y1805118D3*
X1948032D3*
X1848032Y1705118D3*
X1948032D3*
X1848032Y1605118D3*
X1948032D3*
X1848032Y1505118D3*
X1948032D3*
X1848032Y1405118D3*
X1948032D3*
X1848032Y1305118D3*
X1948032D3*
X1848032Y1205118D3*
X1948032D3*
X1848032Y1105118D3*
X1948032D3*
X1848032Y1005118D3*
X1948032D3*
X1848032Y905118D3*
X1948032D3*
X1848032Y805118D3*
X1948032D3*
X1848032Y705118D3*
X1948032D3*
X1848032Y605118D3*
X1948032D3*
X1848032Y505118D3*
X1948032D3*
M02*
