G04 DipTrace 3.0.0.1*
G04 Bottom.gbr*
%MOIN*%
G04 #@! TF.FileFunction,Copper,L2,Bot*
G04 #@! TF.Part,Single*
G04 #@! TA.AperFunction,Conductor*
%ADD14C,0.008*%
G04 #@! TA.AperFunction,CopperBalancing*
%ADD16C,0.025*%
G04 #@! TA.AperFunction,Conductor*
%ADD17C,0.01*%
G04 #@! TA.AperFunction,ComponentPad*
%ADD18C,0.066929*%
%ADD19C,0.066929*%
%ADD20C,0.059055*%
%ADD21R,0.059055X0.059055*%
%ADD22C,0.059055*%
G04 #@! TA.AperFunction,ViaPad*
%ADD23C,0.038*%
%FSLAX26Y26*%
G04*
G70*
G90*
G75*
G01*
G04 Bottom*
%LPD*%
X1848032Y505118D2*
D14*
Y463386D1*
X1830315Y445670D1*
X1631890D1*
X1610630Y466929D1*
X1510630D1*
X1410630D1*
X1310630D1*
X1210630D1*
X1948032Y505118D2*
Y505906D1*
X1998425Y556299D1*
Y1354725D1*
X1948032Y1405118D1*
X679134Y2270473D2*
X624803D1*
X611418Y2257087D1*
X525197D1*
X473229Y2205118D1*
X699607Y439764D2*
D17*
X701969D1*
X726772Y414961D1*
X1007481D1*
X1014173Y421654D1*
Y463386D1*
X1010630Y466929D1*
X1948032Y1605118D2*
D14*
Y1603150D1*
X1895670Y1550788D1*
X1803544D1*
X1791732Y1538977D1*
Y1348819D1*
X1748032Y1305118D1*
D23*
X679134Y2270473D3*
X699607Y439764D3*
X434726Y2397261D2*
D16*
X506191D1*
X640292D2*
X1880995D1*
X434726Y2372393D2*
X514540D1*
X631942D2*
X1889344D1*
X525008Y2347524D2*
X540511D1*
X605916D2*
X1696230D1*
X538339Y2322655D2*
X660927D1*
X697372D2*
X1682899D1*
X540340Y2297786D2*
X593739D1*
X728818D2*
X1680898D1*
X736092Y2272918D2*
X795496D1*
X825742D2*
X895496D1*
X925742D2*
X995496D1*
X1025742D2*
X1095496D1*
X1125742D2*
X1195496D1*
X1225742D2*
X1295496D1*
X1325742D2*
X1395496D1*
X1425742D2*
X1495496D1*
X1525742D2*
X1595496D1*
X1625742D2*
X1689051D1*
X731307Y2248049D2*
X754139D1*
X1667099D2*
X1696668D1*
X638192Y2223180D2*
X649534D1*
X708700D2*
X741591D1*
X640390Y2198311D2*
X739491D1*
X632528Y2173442D2*
X746864D1*
X1674374D2*
X1688768D1*
X624080Y2148574D2*
X754579D1*
X1666659D2*
X1713416D1*
X1782626D2*
X1797158D1*
X638046Y2123705D2*
X741738D1*
X1679550D2*
X1783242D1*
X640439Y2098836D2*
X739442D1*
X1681795D2*
X1780799D1*
X632822Y2073967D2*
X746620D1*
X1674667D2*
X1788466D1*
X623642Y2049099D2*
X755019D1*
X1666268D2*
X1797646D1*
X637899Y2024230D2*
X741883D1*
X1679403D2*
X1783387D1*
X640487Y1999361D2*
X739394D1*
X1681844D2*
X1780751D1*
X633114Y1974492D2*
X746327D1*
X1674911D2*
X1788172D1*
X523154Y1949624D2*
X536799D1*
X609628D2*
X755458D1*
X1665828D2*
X1798134D1*
X537704Y1924755D2*
X742030D1*
X1679256D2*
X1783534D1*
X540536Y1899886D2*
X739344D1*
X1681894D2*
X1780702D1*
X533358Y1875017D2*
X746083D1*
X1675155D2*
X1787879D1*
X622664Y1850149D2*
X755898D1*
X1665340D2*
X1698622D1*
X637558Y1825280D2*
X742176D1*
X640584Y1800411D2*
X739344D1*
X633651Y1775542D2*
X745839D1*
X1675448D2*
X1687655D1*
X622128Y1750673D2*
X756336D1*
X1664902D2*
X1699110D1*
X637362Y1725805D2*
X742323D1*
X640634Y1700936D2*
X739295D1*
X633895Y1676067D2*
X745595D1*
X1675692D2*
X1687370D1*
X621591Y1651198D2*
X756826D1*
X1664462D2*
X1699647D1*
X637215Y1626330D2*
X742519D1*
X640634Y1601461D2*
X739247D1*
X634188Y1576592D2*
X745351D1*
X1675936D2*
X1687092D1*
X621054Y1551723D2*
X757314D1*
X1663974D2*
X1700184D1*
X637020Y1526855D2*
X742664D1*
X640683Y1501986D2*
X739247D1*
X634432Y1477117D2*
X745107D1*
X1676131D2*
X1686810D1*
X620516Y1452248D2*
X757802D1*
X1663486D2*
X1700722D1*
X1888387D2*
X1907655D1*
X636826Y1427379D2*
X742860D1*
X1833748D2*
X1986562D1*
X640683Y1402511D2*
X739198D1*
X1833748D2*
X1986562D1*
X634676Y1377642D2*
X744862D1*
X1676376D2*
X1686629D1*
X1833748D2*
X1986562D1*
X619979Y1352773D2*
X758290D1*
X1662996D2*
X1701307D1*
X636630Y1327904D2*
X743055D1*
X640731Y1303036D2*
X739198D1*
X634920Y1278167D2*
X744667D1*
X1676620D2*
X1686373D1*
X619394Y1253298D2*
X758778D1*
X1662460D2*
X1701844D1*
X636435Y1228429D2*
X743202D1*
X640731Y1203561D2*
X739198D1*
X635164Y1178692D2*
X744423D1*
X1676815D2*
X1686109D1*
X618807Y1153823D2*
X759315D1*
X1661971D2*
X1702431D1*
X636239Y1128954D2*
X743398D1*
X640731Y1104086D2*
X739150D1*
X635360Y1079217D2*
X744227D1*
X1677059D2*
X1685868D1*
X618222Y1054348D2*
X759852D1*
X1661435D2*
X1704920D1*
X1791171D2*
X1803072D1*
X636044Y1029479D2*
X743592D1*
X1677646D2*
X1785243D1*
X640731Y1004610D2*
X739150D1*
X1682088D2*
X1780507D1*
X635604Y979742D2*
X743983D1*
X1677255D2*
X1785683D1*
X617587Y954873D2*
X760390D1*
X1660898D2*
X1803651D1*
X635799Y930004D2*
X743788D1*
X1677450D2*
X1785439D1*
X640780Y905135D2*
X739150D1*
X1682088D2*
X1780507D1*
X635799Y880267D2*
X743788D1*
X1677450D2*
X1785439D1*
X617635Y855398D2*
X760340D1*
X1660898D2*
X1803603D1*
X635604Y830529D2*
X744032D1*
X1677255D2*
X1785683D1*
X640731Y805660D2*
X739150D1*
X1682088D2*
X1780507D1*
X636044Y780792D2*
X743592D1*
X1677646D2*
X1785243D1*
X618271Y755923D2*
X759803D1*
X1661483D2*
X1803016D1*
X635360Y731054D2*
X744227D1*
X1677011D2*
X1785878D1*
X640731Y706185D2*
X739198D1*
X1682088D2*
X1780507D1*
X636239Y681316D2*
X743398D1*
X1677840D2*
X1784999D1*
X618856Y656448D2*
X759267D1*
X1661971D2*
X1802431D1*
X635116Y631579D2*
X744423D1*
X1676815D2*
X1786122D1*
X640731Y606710D2*
X739198D1*
X1682088D2*
X1780507D1*
X636435Y581841D2*
X743202D1*
X1678036D2*
X1784803D1*
X519442Y556973D2*
X526988D1*
X619442D2*
X758730D1*
X1662508D2*
X1801844D1*
X1894247D2*
X1901834D1*
X434726Y532104D2*
X511562D1*
X634872D2*
X785584D1*
X835702D2*
X885584D1*
X935702D2*
X985584D1*
X1035702D2*
X1085584D1*
X1135702D2*
X1986562D1*
X434726Y507235D2*
X505751D1*
X640731D2*
X752187D1*
X1169100D2*
X1986562D1*
X434726Y482366D2*
X509803D1*
X636630D2*
X663124D1*
X1180331D2*
X1986562D1*
X434726Y457498D2*
X526454D1*
X620028D2*
X645595D1*
X1181454D2*
X1986562D1*
X434726Y432629D2*
X643055D1*
X1172958D2*
X1986562D1*
X1060587Y557642D2*
X1055419Y552677D1*
X1046664Y546316D1*
X1037021Y541403D1*
X1026730Y538059D1*
X1016041Y536366D1*
X1005219D1*
X994530Y538059D1*
X984239Y541403D1*
X974596Y546316D1*
X965841Y552677D1*
X960673Y557642D1*
X955419Y552677D1*
X946664Y546316D1*
X937021Y541403D1*
X926730Y538059D1*
X916041Y536366D1*
X905219D1*
X894530Y538059D1*
X884239Y541403D1*
X874596Y546316D1*
X865841Y552677D1*
X860673Y557642D1*
X855419Y552677D1*
X846664Y546316D1*
X837021Y541403D1*
X826730Y538059D1*
X816041Y536366D1*
X805219D1*
X794530Y538059D1*
X784239Y541403D1*
X774596Y546316D1*
X765841Y552677D1*
X758189Y560330D1*
X751828Y569084D1*
X746915Y578727D1*
X743571Y589019D1*
X741878Y599708D1*
Y610529D1*
X743571Y621218D1*
X746915Y631509D1*
X751828Y641152D1*
X758189Y649907D1*
X763154Y655075D1*
X758189Y660330D1*
X751828Y669084D1*
X746915Y678727D1*
X743571Y689019D1*
X741878Y699708D1*
Y710529D1*
X743571Y721218D1*
X746915Y731509D1*
X751828Y741152D1*
X758189Y749907D1*
X763154Y755075D1*
X758189Y760330D1*
X751828Y769084D1*
X746915Y778727D1*
X743571Y789019D1*
X741878Y799708D1*
Y810529D1*
X743571Y821218D1*
X746915Y831509D1*
X751828Y841152D1*
X758189Y849907D1*
X763154Y855075D1*
X758189Y860330D1*
X751828Y869084D1*
X746915Y878727D1*
X743571Y889019D1*
X741878Y899708D1*
Y910529D1*
X743571Y921218D1*
X746915Y931509D1*
X751828Y941152D1*
X758189Y949907D1*
X763154Y955075D1*
X758189Y960330D1*
X751828Y969084D1*
X746915Y978727D1*
X743571Y989019D1*
X741878Y999708D1*
Y1010529D1*
X743571Y1021218D1*
X746915Y1031509D1*
X751828Y1041152D1*
X758189Y1049907D1*
X763154Y1055075D1*
X758189Y1060330D1*
X751828Y1069084D1*
X746915Y1078727D1*
X743571Y1089019D1*
X741878Y1099708D1*
Y1110529D1*
X743571Y1121218D1*
X746915Y1131509D1*
X751828Y1141152D1*
X758189Y1149907D1*
X763154Y1155075D1*
X758189Y1160330D1*
X751828Y1169084D1*
X746915Y1178727D1*
X743571Y1189019D1*
X741878Y1199708D1*
Y1210529D1*
X743571Y1221218D1*
X746915Y1231509D1*
X751828Y1241152D1*
X758189Y1249907D1*
X763154Y1255075D1*
X758189Y1260330D1*
X751828Y1269084D1*
X746915Y1278727D1*
X743571Y1289019D1*
X741878Y1299708D1*
Y1310529D1*
X743571Y1321218D1*
X746915Y1331509D1*
X751828Y1341152D1*
X758189Y1349907D1*
X763154Y1355075D1*
X758189Y1360330D1*
X751828Y1369084D1*
X746915Y1378727D1*
X743571Y1389019D1*
X741878Y1399708D1*
Y1410529D1*
X743571Y1421218D1*
X746915Y1431509D1*
X751828Y1441152D1*
X758189Y1449907D1*
X763154Y1455075D1*
X758189Y1460330D1*
X751828Y1469084D1*
X746915Y1478727D1*
X743571Y1489019D1*
X741878Y1499708D1*
Y1510529D1*
X743571Y1521218D1*
X746915Y1531509D1*
X751828Y1541152D1*
X758189Y1549907D1*
X763154Y1555075D1*
X758189Y1560330D1*
X751828Y1569084D1*
X746915Y1578727D1*
X743571Y1589019D1*
X741878Y1599708D1*
Y1610529D1*
X743571Y1621218D1*
X746915Y1631509D1*
X751828Y1641152D1*
X758189Y1649907D1*
X763154Y1655075D1*
X758189Y1660330D1*
X751828Y1669084D1*
X746915Y1678727D1*
X743571Y1689019D1*
X741878Y1699708D1*
Y1710529D1*
X743571Y1721218D1*
X746915Y1731509D1*
X751828Y1741152D1*
X758189Y1749907D1*
X763154Y1755075D1*
X758189Y1760330D1*
X751828Y1769084D1*
X746915Y1778727D1*
X743571Y1789019D1*
X741878Y1799708D1*
Y1810529D1*
X743571Y1821218D1*
X746915Y1831509D1*
X751828Y1841152D1*
X758189Y1849907D1*
X763154Y1855075D1*
X758189Y1860330D1*
X751828Y1869084D1*
X746915Y1878727D1*
X743571Y1889019D1*
X741878Y1899708D1*
Y1910529D1*
X743571Y1921218D1*
X746915Y1931509D1*
X751828Y1941152D1*
X758189Y1949907D1*
X763154Y1955075D1*
X758189Y1960330D1*
X751828Y1969084D1*
X746915Y1978727D1*
X743571Y1989019D1*
X741878Y1999708D1*
Y2010529D1*
X743571Y2021218D1*
X746915Y2031509D1*
X751828Y2041152D1*
X758189Y2049907D1*
X763154Y2055075D1*
X758189Y2060330D1*
X751828Y2069084D1*
X746915Y2078727D1*
X743571Y2089019D1*
X741878Y2099708D1*
Y2110529D1*
X743571Y2121218D1*
X746915Y2131509D1*
X751828Y2141152D1*
X758189Y2149907D1*
X763154Y2155075D1*
X758189Y2160330D1*
X751828Y2169084D1*
X746915Y2178727D1*
X743571Y2189019D1*
X741878Y2199708D1*
Y2210529D1*
X743571Y2221218D1*
X746915Y2231509D1*
X751828Y2241152D1*
X758189Y2249907D1*
X765841Y2257559D1*
X774596Y2263920D1*
X784239Y2268834D1*
X794530Y2272177D1*
X805219Y2273870D1*
X816041D1*
X826730Y2272177D1*
X837021Y2268834D1*
X846664Y2263920D1*
X855419Y2257559D1*
X860587Y2252595D1*
X865841Y2257559D1*
X874596Y2263920D1*
X884239Y2268834D1*
X894530Y2272177D1*
X905219Y2273870D1*
X916041D1*
X926730Y2272177D1*
X937021Y2268834D1*
X946664Y2263920D1*
X955419Y2257559D1*
X960587Y2252595D1*
X965841Y2257559D1*
X974596Y2263920D1*
X984239Y2268834D1*
X994530Y2272177D1*
X1005219Y2273870D1*
X1016041D1*
X1026730Y2272177D1*
X1037021Y2268834D1*
X1046664Y2263920D1*
X1055419Y2257559D1*
X1060587Y2252595D1*
X1065841Y2257559D1*
X1074596Y2263920D1*
X1084239Y2268834D1*
X1094530Y2272177D1*
X1105219Y2273870D1*
X1116041D1*
X1126730Y2272177D1*
X1137021Y2268834D1*
X1146664Y2263920D1*
X1155419Y2257559D1*
X1160587Y2252595D1*
X1165841Y2257559D1*
X1174596Y2263920D1*
X1184239Y2268834D1*
X1194530Y2272177D1*
X1205219Y2273870D1*
X1216041D1*
X1226730Y2272177D1*
X1237021Y2268834D1*
X1246664Y2263920D1*
X1255419Y2257559D1*
X1260587Y2252595D1*
X1265841Y2257559D1*
X1274596Y2263920D1*
X1284239Y2268834D1*
X1294530Y2272177D1*
X1305219Y2273870D1*
X1316041D1*
X1326730Y2272177D1*
X1337021Y2268834D1*
X1346664Y2263920D1*
X1355419Y2257559D1*
X1360587Y2252595D1*
X1365841Y2257559D1*
X1374596Y2263920D1*
X1384239Y2268834D1*
X1394530Y2272177D1*
X1405219Y2273870D1*
X1416041D1*
X1426730Y2272177D1*
X1437021Y2268834D1*
X1446664Y2263920D1*
X1455419Y2257559D1*
X1460587Y2252595D1*
X1465841Y2257559D1*
X1474596Y2263920D1*
X1484239Y2268834D1*
X1494530Y2272177D1*
X1505219Y2273870D1*
X1516041D1*
X1526730Y2272177D1*
X1537021Y2268834D1*
X1546664Y2263920D1*
X1555419Y2257559D1*
X1560587Y2252595D1*
X1565841Y2257559D1*
X1574596Y2263920D1*
X1584239Y2268834D1*
X1594530Y2272177D1*
X1605219Y2273870D1*
X1616041D1*
X1626730Y2272177D1*
X1637021Y2268834D1*
X1646664Y2263920D1*
X1655419Y2257559D1*
X1663071Y2249907D1*
X1669432Y2241152D1*
X1674345Y2231509D1*
X1677689Y2221218D1*
X1679382Y2210529D1*
Y2199708D1*
X1677689Y2189019D1*
X1674345Y2178727D1*
X1669432Y2169084D1*
X1663071Y2160330D1*
X1658107Y2155162D1*
X1663071Y2149907D1*
X1669432Y2141152D1*
X1674345Y2131509D1*
X1677689Y2121218D1*
X1679382Y2110529D1*
Y2099708D1*
X1677689Y2089019D1*
X1674345Y2078727D1*
X1669432Y2069084D1*
X1663071Y2060330D1*
X1658107Y2055162D1*
X1663071Y2049907D1*
X1669432Y2041152D1*
X1674345Y2031509D1*
X1677689Y2021218D1*
X1679382Y2010529D1*
Y1999708D1*
X1677689Y1989019D1*
X1674345Y1978727D1*
X1669432Y1969084D1*
X1663071Y1960330D1*
X1658107Y1955162D1*
X1663071Y1949907D1*
X1669432Y1941152D1*
X1674345Y1931509D1*
X1677689Y1921218D1*
X1679382Y1910529D1*
Y1899708D1*
X1677689Y1889019D1*
X1674345Y1878727D1*
X1669432Y1869084D1*
X1663071Y1860330D1*
X1658107Y1855162D1*
X1663071Y1849907D1*
X1669432Y1841152D1*
X1674345Y1831509D1*
X1677689Y1821218D1*
X1679382Y1810529D1*
Y1799708D1*
X1677689Y1789019D1*
X1674345Y1778727D1*
X1669432Y1769084D1*
X1663071Y1760330D1*
X1658107Y1755162D1*
X1663071Y1749907D1*
X1669432Y1741152D1*
X1674345Y1731509D1*
X1677689Y1721218D1*
X1679382Y1710529D1*
Y1699708D1*
X1677689Y1689019D1*
X1674345Y1678727D1*
X1669432Y1669084D1*
X1663071Y1660330D1*
X1658107Y1655162D1*
X1663071Y1649907D1*
X1669432Y1641152D1*
X1674345Y1631509D1*
X1677689Y1621218D1*
X1679382Y1610529D1*
Y1599708D1*
X1677689Y1589019D1*
X1674345Y1578727D1*
X1669432Y1569084D1*
X1663071Y1560330D1*
X1658107Y1555162D1*
X1663071Y1549907D1*
X1669432Y1541152D1*
X1674345Y1531509D1*
X1677689Y1521218D1*
X1679382Y1510529D1*
Y1499708D1*
X1677689Y1489019D1*
X1674345Y1478727D1*
X1669432Y1469084D1*
X1663071Y1460330D1*
X1658107Y1455162D1*
X1663071Y1449907D1*
X1669432Y1441152D1*
X1674345Y1431509D1*
X1677689Y1421218D1*
X1679382Y1410529D1*
Y1399708D1*
X1677689Y1389019D1*
X1674345Y1378727D1*
X1669432Y1369084D1*
X1663071Y1360330D1*
X1658107Y1355162D1*
X1663071Y1349907D1*
X1669432Y1341152D1*
X1674345Y1331509D1*
X1677689Y1321218D1*
X1679382Y1310529D1*
Y1299708D1*
X1677689Y1289019D1*
X1674345Y1278727D1*
X1669432Y1269084D1*
X1663071Y1260330D1*
X1658107Y1255162D1*
X1663071Y1249907D1*
X1669432Y1241152D1*
X1674345Y1231509D1*
X1677689Y1221218D1*
X1679382Y1210529D1*
Y1199708D1*
X1677689Y1189019D1*
X1674345Y1178727D1*
X1669432Y1169084D1*
X1663071Y1160330D1*
X1658107Y1155162D1*
X1663071Y1149907D1*
X1669432Y1141152D1*
X1674345Y1131509D1*
X1677689Y1121218D1*
X1679382Y1110529D1*
Y1099708D1*
X1677689Y1089019D1*
X1674345Y1078727D1*
X1669432Y1069084D1*
X1663071Y1060330D1*
X1658107Y1055162D1*
X1663071Y1049907D1*
X1669432Y1041152D1*
X1674345Y1031509D1*
X1677689Y1021218D1*
X1679382Y1010529D1*
Y999708D1*
X1677689Y989019D1*
X1674345Y978727D1*
X1669432Y969084D1*
X1663071Y960330D1*
X1658107Y955162D1*
X1663071Y949907D1*
X1669432Y941152D1*
X1674345Y931509D1*
X1677689Y921218D1*
X1679382Y910529D1*
Y899708D1*
X1677689Y889019D1*
X1674345Y878727D1*
X1669432Y869084D1*
X1663071Y860330D1*
X1658107Y855162D1*
X1663071Y849907D1*
X1669432Y841152D1*
X1674345Y831509D1*
X1677689Y821218D1*
X1679382Y810529D1*
Y799708D1*
X1677689Y789019D1*
X1674345Y778727D1*
X1669432Y769084D1*
X1663071Y760330D1*
X1658107Y755162D1*
X1663071Y749907D1*
X1669432Y741152D1*
X1674345Y731509D1*
X1677689Y721218D1*
X1679382Y710529D1*
Y699708D1*
X1677689Y689019D1*
X1674345Y678727D1*
X1669432Y669084D1*
X1663071Y660330D1*
X1658107Y655162D1*
X1663071Y649907D1*
X1669432Y641152D1*
X1674345Y631509D1*
X1677689Y621218D1*
X1679382Y610529D1*
Y599708D1*
X1677689Y589019D1*
X1674345Y578727D1*
X1669432Y569084D1*
X1663071Y560330D1*
X1655419Y552677D1*
X1646664Y546316D1*
X1637021Y541403D1*
X1626730Y538059D1*
X1616041Y536366D1*
X1605219D1*
X1594530Y538059D1*
X1584239Y541403D1*
X1574596Y546316D1*
X1565841Y552677D1*
X1560673Y557642D1*
X1555419Y552677D1*
X1546664Y546316D1*
X1537021Y541403D1*
X1526730Y538059D1*
X1516041Y536366D1*
X1505219D1*
X1494530Y538059D1*
X1484239Y541403D1*
X1474596Y546316D1*
X1465841Y552677D1*
X1460673Y557642D1*
X1455419Y552677D1*
X1446664Y546316D1*
X1437021Y541403D1*
X1426730Y538059D1*
X1416041Y536366D1*
X1405219D1*
X1394530Y538059D1*
X1384239Y541403D1*
X1374596Y546316D1*
X1365841Y552677D1*
X1360673Y557642D1*
X1355419Y552677D1*
X1346664Y546316D1*
X1337021Y541403D1*
X1326730Y538059D1*
X1316041Y536366D1*
X1305219D1*
X1294530Y538059D1*
X1284239Y541403D1*
X1274596Y546316D1*
X1265841Y552677D1*
X1260673Y557642D1*
X1255419Y552677D1*
X1246664Y546316D1*
X1237021Y541403D1*
X1226730Y538059D1*
X1216041Y536366D1*
X1205219D1*
X1194530Y538059D1*
X1184239Y541403D1*
X1174596Y546316D1*
X1165841Y552677D1*
X1160673Y557642D1*
X1155419Y552677D1*
X1146664Y546316D1*
X1137021Y541403D1*
X1126730Y538059D1*
X1116041Y536366D1*
X1105219D1*
X1094530Y538059D1*
X1084239Y541403D1*
X1074596Y546316D1*
X1065841Y552677D1*
X1060673Y557642D1*
X1706473Y2255141D2*
X1698584Y2262886D1*
X1692587Y2271142D1*
X1687954Y2280234D1*
X1684801Y2289939D1*
X1683205Y2300016D1*
Y2310221D1*
X1684801Y2320298D1*
X1687954Y2330003D1*
X1692587Y2339095D1*
X1698584Y2347351D1*
X1705799Y2354566D1*
X1714055Y2360563D1*
X1723147Y2365196D1*
X1732852Y2368349D1*
X1742929Y2369945D1*
X1753134D1*
X1763211Y2368349D1*
X1772916Y2365196D1*
X1782008Y2360563D1*
X1790264Y2354566D1*
X1798009Y2346677D1*
X1805799Y2354566D1*
X1814055Y2360563D1*
X1823147Y2365196D1*
X1832852Y2368349D1*
X1842929Y2369945D1*
X1853134D1*
X1863211Y2368349D1*
X1872916Y2365196D1*
X1882008Y2360563D1*
X1890264Y2354566D1*
X1898009Y2346677D1*
X1905799Y2354566D1*
X1906473Y2355096D1*
X1898584Y2362886D1*
X1892587Y2371142D1*
X1887954Y2380234D1*
X1884801Y2389939D1*
X1883205Y2400016D1*
Y2410221D1*
X1884801Y2420298D1*
X1885315Y2422122D1*
X635983Y2422130D1*
X637456Y2415290D1*
X638256Y2405118D1*
X637456Y2394946D1*
X635074Y2385024D1*
X631168Y2375596D1*
X625837Y2366897D1*
X619210Y2359137D1*
X611450Y2352509D1*
X602751Y2347179D1*
X593323Y2343273D1*
X583400Y2340891D1*
X573229Y2340091D1*
X563057Y2340891D1*
X553134Y2343273D1*
X543706Y2347179D1*
X535007Y2352509D1*
X527247Y2359137D1*
X520620Y2366897D1*
X515289Y2375596D1*
X511383Y2385024D1*
X509002Y2394946D1*
X508201Y2405118D1*
X509002Y2415290D1*
X510512Y2422122D1*
X432175Y2422130D1*
X432201Y2355578D1*
X439252Y2360563D1*
X448344Y2365196D1*
X458049Y2368349D1*
X468126Y2369945D1*
X478331D1*
X488408Y2368349D1*
X498113Y2365196D1*
X507205Y2360563D1*
X515461Y2354566D1*
X522676Y2347351D1*
X528673Y2339095D1*
X533306Y2330003D1*
X536460Y2320298D1*
X538055Y2310221D1*
Y2300016D1*
X537697Y2296587D1*
X595070D1*
X601586Y2302429D1*
X606870Y2305667D1*
X612597Y2308040D1*
X618624Y2309486D1*
X624803Y2309973D1*
X641551D1*
X647100Y2314565D1*
X654391Y2319033D1*
X662293Y2322305D1*
X670608Y2324302D1*
X679134Y2324973D1*
X687660Y2324302D1*
X695975Y2322305D1*
X703877Y2319033D1*
X711168Y2314565D1*
X717671Y2309009D1*
X723226Y2302507D1*
X727694Y2295215D1*
X730966Y2287314D1*
X732963Y2278999D1*
X733634Y2270473D1*
X732963Y2261946D1*
X730966Y2253631D1*
X727694Y2245730D1*
X723226Y2238439D1*
X717671Y2231936D1*
X711168Y2226381D1*
X703877Y2221912D1*
X695975Y2218641D1*
X687660Y2216643D1*
X679134Y2215973D1*
X670608Y2216643D1*
X662293Y2218641D1*
X654391Y2221912D1*
X647100Y2226381D1*
X641641Y2230971D1*
X635074Y2225213D1*
X637456Y2215290D1*
X638256Y2205118D1*
X637456Y2194946D1*
X635074Y2185024D1*
X631168Y2175596D1*
X625837Y2166897D1*
X619210Y2159137D1*
X614788Y2155141D1*
X622676Y2147351D1*
X628673Y2139095D1*
X633306Y2130003D1*
X636460Y2120298D1*
X638055Y2110221D1*
Y2100016D1*
X636460Y2089939D1*
X633306Y2080234D1*
X628673Y2071142D1*
X622676Y2062886D1*
X614788Y2055141D1*
X622676Y2047351D1*
X628673Y2039095D1*
X633306Y2030003D1*
X636460Y2020298D1*
X638055Y2010221D1*
Y2000016D1*
X636460Y1989939D1*
X633306Y1980234D1*
X628673Y1971142D1*
X622676Y1962886D1*
X615461Y1955671D1*
X607205Y1949673D1*
X598113Y1945041D1*
X588408Y1941887D1*
X578331Y1940292D1*
X568126D1*
X558049Y1941887D1*
X548344Y1945041D1*
X539252Y1949673D1*
X530996Y1955671D1*
X523251Y1963559D1*
X515461Y1955671D1*
X514788Y1955141D1*
X522676Y1947351D1*
X528673Y1939095D1*
X533306Y1930003D1*
X536460Y1920298D1*
X538055Y1910221D1*
Y1900016D1*
X536460Y1889939D1*
X533306Y1880234D1*
X528673Y1871142D1*
X522676Y1862886D1*
X514788Y1855141D1*
X522676Y1847351D1*
X523206Y1846677D1*
X530996Y1854566D1*
X539252Y1860563D1*
X548344Y1865196D1*
X558049Y1868349D1*
X568126Y1869945D1*
X578331D1*
X588408Y1868349D1*
X598113Y1865196D1*
X607205Y1860563D1*
X615461Y1854566D1*
X622676Y1847351D1*
X628673Y1839095D1*
X633306Y1830003D1*
X636460Y1820298D1*
X638055Y1810221D1*
Y1800016D1*
X636460Y1789939D1*
X633306Y1780234D1*
X628673Y1771142D1*
X622676Y1762886D1*
X614788Y1755141D1*
X622676Y1747351D1*
X628673Y1739095D1*
X633306Y1730003D1*
X636460Y1720298D1*
X638055Y1710221D1*
Y1700016D1*
X636460Y1689939D1*
X633306Y1680234D1*
X628673Y1671142D1*
X622676Y1662886D1*
X614788Y1655141D1*
X622676Y1647351D1*
X628673Y1639095D1*
X633306Y1630003D1*
X636460Y1620298D1*
X638055Y1610221D1*
Y1600016D1*
X636460Y1589939D1*
X633306Y1580234D1*
X628673Y1571142D1*
X622676Y1562886D1*
X614788Y1555141D1*
X622676Y1547351D1*
X628673Y1539095D1*
X633306Y1530003D1*
X636460Y1520298D1*
X638055Y1510221D1*
Y1500016D1*
X636460Y1489939D1*
X633306Y1480234D1*
X628673Y1471142D1*
X622676Y1462886D1*
X614788Y1455141D1*
X622676Y1447351D1*
X628673Y1439095D1*
X633306Y1430003D1*
X636460Y1420298D1*
X638055Y1410221D1*
Y1400016D1*
X636460Y1389939D1*
X633306Y1380234D1*
X628673Y1371142D1*
X622676Y1362886D1*
X614788Y1355141D1*
X622676Y1347351D1*
X628673Y1339095D1*
X633306Y1330003D1*
X636460Y1320298D1*
X638055Y1310221D1*
Y1300016D1*
X636460Y1289939D1*
X633306Y1280234D1*
X628673Y1271142D1*
X622676Y1262886D1*
X614788Y1255141D1*
X622676Y1247351D1*
X628673Y1239095D1*
X633306Y1230003D1*
X636460Y1220298D1*
X638055Y1210221D1*
Y1200016D1*
X636460Y1189939D1*
X633306Y1180234D1*
X628673Y1171142D1*
X622676Y1162886D1*
X614788Y1155141D1*
X622676Y1147351D1*
X628673Y1139095D1*
X633306Y1130003D1*
X636460Y1120298D1*
X638055Y1110221D1*
Y1100016D1*
X636460Y1089939D1*
X633306Y1080234D1*
X628673Y1071142D1*
X622676Y1062886D1*
X614788Y1055141D1*
X622676Y1047351D1*
X628673Y1039095D1*
X633306Y1030003D1*
X636460Y1020298D1*
X638055Y1010221D1*
Y1000016D1*
X636460Y989939D1*
X633306Y980234D1*
X628673Y971142D1*
X622676Y962886D1*
X614788Y955141D1*
X622676Y947351D1*
X628673Y939095D1*
X633306Y930003D1*
X636460Y920298D1*
X638055Y910221D1*
Y900016D1*
X636460Y889939D1*
X633306Y880234D1*
X628673Y871142D1*
X622676Y862886D1*
X614788Y855141D1*
X622676Y847351D1*
X628673Y839095D1*
X633306Y830003D1*
X636460Y820298D1*
X638055Y810221D1*
Y800016D1*
X636460Y789939D1*
X633306Y780234D1*
X628673Y771142D1*
X622676Y762886D1*
X614788Y755141D1*
X622676Y747351D1*
X628673Y739095D1*
X633306Y730003D1*
X636460Y720298D1*
X638055Y710221D1*
Y700016D1*
X636460Y689939D1*
X633306Y680234D1*
X628673Y671142D1*
X622676Y662886D1*
X614788Y655141D1*
X622676Y647351D1*
X628673Y639095D1*
X633306Y630003D1*
X636460Y620298D1*
X638055Y610221D1*
Y600016D1*
X636460Y589939D1*
X633306Y580234D1*
X628673Y571142D1*
X622676Y562886D1*
X614788Y555141D1*
X622676Y547351D1*
X628673Y539095D1*
X633306Y530003D1*
X636460Y520298D1*
X638055Y510221D1*
Y500016D1*
X636460Y489939D1*
X633306Y480234D1*
X628673Y471142D1*
X622676Y462886D1*
X615461Y455671D1*
X607205Y449673D1*
X598113Y445041D1*
X588408Y441887D1*
X578331Y440292D1*
X568126D1*
X558049Y441887D1*
X548344Y445041D1*
X539252Y449673D1*
X530996Y455671D1*
X523781Y462886D1*
X517784Y471142D1*
X513151Y480234D1*
X509998Y489939D1*
X508402Y500016D1*
Y510221D1*
X509998Y520298D1*
X513151Y530003D1*
X517784Y539095D1*
X523781Y547351D1*
X531670Y555096D1*
X523781Y562886D1*
X523251Y563559D1*
X515461Y555671D1*
X507205Y549673D1*
X498113Y545041D1*
X488408Y541887D1*
X478331Y540292D1*
X468126D1*
X458049Y541887D1*
X448344Y545041D1*
X439252Y549673D1*
X432202Y554721D1*
X432201Y432238D1*
X645629Y432201D1*
X645107Y439764D1*
X645777Y448290D1*
X647774Y456605D1*
X651046Y464507D1*
X655515Y471798D1*
X661070Y478301D1*
X667572Y483856D1*
X674864Y488324D1*
X682765Y491596D1*
X691080Y493593D1*
X699607Y494264D1*
X708133Y493593D1*
X716448Y491596D1*
X724349Y488324D1*
X731641Y483856D1*
X738143Y478301D1*
X742011Y473939D1*
X743571Y483029D1*
X746915Y493320D1*
X751828Y502963D1*
X758189Y511718D1*
X765841Y519370D1*
X774596Y525731D1*
X784239Y530645D1*
X794530Y533988D1*
X805219Y535681D1*
X816041D1*
X826730Y533988D1*
X837021Y530645D1*
X846664Y525731D1*
X855419Y519370D1*
X860587Y514406D1*
X865841Y519370D1*
X874596Y525731D1*
X884239Y530645D1*
X894530Y533988D1*
X905219Y535681D1*
X916041D1*
X926730Y533988D1*
X937021Y530645D1*
X946664Y525731D1*
X955419Y519370D1*
X960587Y514406D1*
X965841Y519370D1*
X974596Y525731D1*
X984239Y530645D1*
X994530Y533988D1*
X1005219Y535681D1*
X1016041D1*
X1026730Y533988D1*
X1037021Y530645D1*
X1046664Y525731D1*
X1055419Y519370D1*
X1060587Y514406D1*
X1065841Y519370D1*
X1074596Y525731D1*
X1084239Y530645D1*
X1094530Y533988D1*
X1105219Y535681D1*
X1116041D1*
X1126730Y533988D1*
X1137021Y530645D1*
X1146664Y525731D1*
X1155419Y519370D1*
X1163071Y511718D1*
X1169432Y502963D1*
X1174345Y493320D1*
X1177689Y483029D1*
X1179382Y472340D1*
Y461519D1*
X1177689Y450830D1*
X1174345Y440538D1*
X1170166Y432206D1*
X1989086Y432201D1*
X1989059Y554710D1*
X1982008Y549673D1*
X1972916Y545041D1*
X1963211Y541887D1*
X1953134Y540292D1*
X1942929D1*
X1932852Y541887D1*
X1923147Y545041D1*
X1914055Y549673D1*
X1905799Y555671D1*
X1898054Y563559D1*
X1890264Y555671D1*
X1882008Y549673D1*
X1872916Y545041D1*
X1863211Y541887D1*
X1853134Y540292D1*
X1842929D1*
X1832852Y541887D1*
X1823147Y545041D1*
X1814055Y549673D1*
X1805799Y555671D1*
X1798584Y562886D1*
X1792587Y571142D1*
X1787954Y580234D1*
X1784801Y589939D1*
X1783205Y600016D1*
Y610221D1*
X1784801Y620298D1*
X1787954Y630003D1*
X1792587Y639095D1*
X1798584Y647351D1*
X1806473Y655096D1*
X1798584Y662886D1*
X1792587Y671142D1*
X1787954Y680234D1*
X1784801Y689939D1*
X1783205Y700016D1*
Y710221D1*
X1784801Y720298D1*
X1787954Y730003D1*
X1792587Y739095D1*
X1798584Y747351D1*
X1806473Y755096D1*
X1798584Y762886D1*
X1792587Y771142D1*
X1787954Y780234D1*
X1784801Y789939D1*
X1783205Y800016D1*
Y810221D1*
X1784801Y820298D1*
X1787954Y830003D1*
X1792587Y839095D1*
X1798584Y847351D1*
X1806473Y855096D1*
X1798584Y862886D1*
X1792587Y871142D1*
X1787954Y880234D1*
X1784801Y889939D1*
X1783205Y900016D1*
Y910221D1*
X1784801Y920298D1*
X1787954Y930003D1*
X1792587Y939095D1*
X1798584Y947351D1*
X1806473Y955096D1*
X1798584Y962886D1*
X1792587Y971142D1*
X1787954Y980234D1*
X1784801Y989939D1*
X1783205Y1000016D1*
Y1010221D1*
X1784801Y1020298D1*
X1787954Y1030003D1*
X1792587Y1039095D1*
X1798584Y1047351D1*
X1806473Y1055096D1*
X1798584Y1062886D1*
X1798054Y1063559D1*
X1790264Y1055671D1*
X1782008Y1049673D1*
X1772916Y1045041D1*
X1763211Y1041887D1*
X1753134Y1040292D1*
X1742929D1*
X1732852Y1041887D1*
X1723147Y1045041D1*
X1714055Y1049673D1*
X1705799Y1055671D1*
X1698584Y1062886D1*
X1692587Y1071142D1*
X1687954Y1080234D1*
X1684801Y1089939D1*
X1683205Y1100016D1*
Y1110221D1*
X1684801Y1120298D1*
X1687954Y1130003D1*
X1692587Y1139095D1*
X1698584Y1147351D1*
X1706473Y1155096D1*
X1698584Y1162886D1*
X1692587Y1171142D1*
X1687954Y1180234D1*
X1684801Y1189939D1*
X1683205Y1200016D1*
Y1210221D1*
X1684801Y1220298D1*
X1687954Y1230003D1*
X1692587Y1239095D1*
X1698584Y1247351D1*
X1706473Y1255096D1*
X1698584Y1262886D1*
X1692587Y1271142D1*
X1687954Y1280234D1*
X1684801Y1289939D1*
X1683205Y1300016D1*
Y1310221D1*
X1684801Y1320298D1*
X1687954Y1330003D1*
X1692587Y1339095D1*
X1698584Y1347351D1*
X1706473Y1355096D1*
X1698584Y1362886D1*
X1692587Y1371142D1*
X1687954Y1380234D1*
X1684801Y1389939D1*
X1683205Y1400016D1*
Y1410221D1*
X1684801Y1420298D1*
X1687954Y1430003D1*
X1692587Y1439095D1*
X1698584Y1447351D1*
X1706473Y1455096D1*
X1698584Y1462886D1*
X1692587Y1471142D1*
X1687954Y1480234D1*
X1684801Y1489939D1*
X1683205Y1500016D1*
Y1510221D1*
X1684801Y1520298D1*
X1687954Y1530003D1*
X1692587Y1539095D1*
X1698584Y1547351D1*
X1706473Y1555096D1*
X1698584Y1562886D1*
X1692587Y1571142D1*
X1687954Y1580234D1*
X1684801Y1589939D1*
X1683205Y1600016D1*
Y1610221D1*
X1684801Y1620298D1*
X1687954Y1630003D1*
X1692587Y1639095D1*
X1698584Y1647351D1*
X1706473Y1655096D1*
X1698584Y1662886D1*
X1692587Y1671142D1*
X1687954Y1680234D1*
X1684801Y1689939D1*
X1683205Y1700016D1*
Y1710221D1*
X1684801Y1720298D1*
X1687954Y1730003D1*
X1692587Y1739095D1*
X1698584Y1747351D1*
X1706473Y1755096D1*
X1698584Y1762886D1*
X1692587Y1771142D1*
X1687954Y1780234D1*
X1684801Y1789939D1*
X1683205Y1800016D1*
Y1810221D1*
X1684801Y1820298D1*
X1687954Y1830003D1*
X1692587Y1839095D1*
X1698584Y1847351D1*
X1705799Y1854566D1*
X1714055Y1860563D1*
X1723147Y1865196D1*
X1732852Y1868349D1*
X1742929Y1869945D1*
X1753134D1*
X1763211Y1868349D1*
X1772916Y1865196D1*
X1782008Y1860563D1*
X1790264Y1854566D1*
X1798009Y1846677D1*
X1805799Y1854566D1*
X1806473Y1855096D1*
X1798584Y1862886D1*
X1792587Y1871142D1*
X1787954Y1880234D1*
X1784801Y1889939D1*
X1783205Y1900016D1*
Y1910221D1*
X1784801Y1920298D1*
X1787954Y1930003D1*
X1792587Y1939095D1*
X1798584Y1947351D1*
X1806473Y1955096D1*
X1798584Y1962886D1*
X1792587Y1971142D1*
X1787954Y1980234D1*
X1784801Y1989939D1*
X1783205Y2000016D1*
Y2010221D1*
X1784801Y2020298D1*
X1787954Y2030003D1*
X1792587Y2039095D1*
X1798584Y2047351D1*
X1806473Y2055096D1*
X1798584Y2062886D1*
X1792587Y2071142D1*
X1787954Y2080234D1*
X1784801Y2089939D1*
X1783205Y2100016D1*
Y2110221D1*
X1784801Y2120298D1*
X1787954Y2130003D1*
X1792587Y2139095D1*
X1798584Y2147351D1*
X1806473Y2155096D1*
X1798584Y2162886D1*
X1798054Y2163559D1*
X1790264Y2155671D1*
X1782008Y2149673D1*
X1772916Y2145041D1*
X1763211Y2141887D1*
X1753134Y2140292D1*
X1742929D1*
X1732852Y2141887D1*
X1723147Y2145041D1*
X1714055Y2149673D1*
X1705799Y2155671D1*
X1698584Y2162886D1*
X1692587Y2171142D1*
X1687954Y2180234D1*
X1684801Y2189939D1*
X1683205Y2200016D1*
Y2210221D1*
X1684801Y2220298D1*
X1687954Y2230003D1*
X1692587Y2239095D1*
X1698584Y2247351D1*
X1706473Y2255096D1*
X1898009Y1463559D2*
X1890264Y1455671D1*
X1882008Y1449673D1*
X1872916Y1445041D1*
X1863211Y1441887D1*
X1853134Y1440292D1*
X1842929D1*
X1832852Y1441887D1*
X1831219Y1442348D1*
X1831232Y1367932D1*
X1837860Y1369345D1*
X1848032Y1370146D1*
X1858204Y1369345D1*
X1868126Y1366963D1*
X1877554Y1363058D1*
X1886253Y1357727D1*
X1894013Y1351100D1*
X1898009Y1346677D1*
X1905799Y1354566D1*
X1914055Y1360563D1*
X1923147Y1365196D1*
X1932852Y1368349D1*
X1942929Y1369945D1*
X1953134D1*
X1963211Y1368349D1*
X1972916Y1365196D1*
X1982008Y1360563D1*
X1989058Y1355516D1*
X1989059Y1454710D1*
X1982008Y1449673D1*
X1972916Y1445041D1*
X1963211Y1441887D1*
X1953134Y1440292D1*
X1942929D1*
X1932852Y1441887D1*
X1923147Y1445041D1*
X1914055Y1449673D1*
X1905799Y1455671D1*
X1898054Y1463559D1*
D18*
X1010630Y605118D3*
D19*
X910630D3*
X1010630Y705118D3*
X910630D3*
X1010630Y805118D3*
X910630D3*
X1010630Y905118D3*
X910630D3*
X1010630Y1005118D3*
X910630D3*
X1010630Y1105118D3*
X910630D3*
X1010630Y1205118D3*
X910630D3*
X1010630Y1305118D3*
X910630D3*
X1010630Y1405118D3*
X910630D3*
X1010630Y1505118D3*
X910630D3*
X1010630Y1605118D3*
X910630D3*
X1010630Y1705118D3*
X910630D3*
X1010630Y1805118D3*
X910630D3*
X1010630Y1905118D3*
X910630D3*
X1010630Y2005118D3*
X910630D3*
X1010630Y2105118D3*
X910630D3*
X1010630Y2205118D3*
X910630D3*
X810630Y605118D3*
Y705118D3*
Y805118D3*
Y905118D3*
Y1005118D3*
Y1105118D3*
Y1205118D3*
Y1305118D3*
Y1405118D3*
Y1505118D3*
Y1605118D3*
Y1705118D3*
Y1805118D3*
Y1905118D3*
Y2005118D3*
Y2105118D3*
Y2205118D3*
D18*
X1310630Y605118D3*
D19*
X1210630D3*
X1310630Y705118D3*
X1210630D3*
X1310630Y805118D3*
X1210630D3*
X1310630Y905118D3*
X1210630D3*
X1310630Y1005118D3*
X1210630D3*
X1310630Y1105118D3*
X1210630D3*
X1310630Y1205118D3*
X1210630D3*
X1310630Y1305118D3*
X1210630D3*
X1310630Y1405118D3*
X1210630D3*
X1310630Y1505118D3*
X1210630D3*
X1310630Y1605118D3*
X1210630D3*
X1310630Y1705118D3*
X1210630D3*
X1310630Y1805118D3*
X1210630D3*
X1310630Y1905118D3*
X1210630D3*
X1310630Y2005118D3*
X1210630D3*
X1310630Y2105118D3*
X1210630D3*
X1310630Y2205118D3*
X1210630D3*
X1110630Y605118D3*
Y705118D3*
Y805118D3*
Y905118D3*
Y1005118D3*
Y1105118D3*
Y1205118D3*
Y1305118D3*
Y1405118D3*
Y1505118D3*
Y1605118D3*
Y1705118D3*
Y1805118D3*
Y1905118D3*
Y2005118D3*
Y2105118D3*
Y2205118D3*
D18*
X1610630Y605118D3*
D19*
X1510630D3*
X1610630Y705118D3*
X1510630D3*
X1610630Y805118D3*
X1510630D3*
X1610630Y905118D3*
X1510630D3*
X1610630Y1005118D3*
X1510630D3*
X1610630Y1105118D3*
X1510630D3*
X1610630Y1205118D3*
X1510630D3*
X1610630Y1305118D3*
X1510630D3*
X1610630Y1405118D3*
X1510630D3*
X1610630Y1505118D3*
X1510630D3*
X1610630Y1605118D3*
X1510630D3*
X1610630Y1705118D3*
X1510630D3*
X1610630Y1805118D3*
X1510630D3*
X1610630Y1905118D3*
X1510630D3*
X1610630Y2005118D3*
X1510630D3*
X1610630Y2105118D3*
X1510630D3*
X1610630Y2205118D3*
X1510630D3*
X1410630Y605118D3*
Y705118D3*
Y805118D3*
Y905118D3*
Y1005118D3*
Y1105118D3*
Y1205118D3*
Y1305118D3*
Y1405118D3*
Y1505118D3*
Y1605118D3*
Y1705118D3*
Y1805118D3*
Y1905118D3*
Y2005118D3*
Y2105118D3*
Y2205118D3*
D20*
X1748032Y2305118D3*
D19*
X1010630Y466929D3*
D20*
X1748032Y2205118D3*
D19*
X910630Y466929D3*
D20*
X1748032Y1605118D3*
D19*
X810630Y466929D3*
D20*
X1748032Y1505118D3*
D19*
X1310630Y466929D3*
D20*
X1748032Y1405118D3*
D19*
X1210630Y466929D3*
D20*
X1748032Y1305118D3*
D19*
X1110630Y466929D3*
D20*
X1748032Y1805118D3*
D19*
X1610630Y466929D3*
D20*
X1748032Y1705118D3*
D19*
X1510630Y466929D3*
D20*
X1748032Y1205118D3*
D19*
X1410630Y466929D3*
D20*
X1748032Y1105118D3*
D21*
X473229Y2405118D3*
D22*
X573229D3*
X473229Y2305118D3*
X573229D3*
X473229Y2205118D3*
X573229D3*
X473229Y2105118D3*
X573229D3*
X473229Y2005118D3*
X573229D3*
X473229Y1905118D3*
X573229D3*
X473229Y1805118D3*
X573229D3*
X473229Y1705118D3*
X573229D3*
X473229Y1605118D3*
X573229D3*
X473229Y1505118D3*
X573229D3*
X473229Y1405118D3*
X573229D3*
X473229Y1305118D3*
X573229D3*
X473229Y1205118D3*
X573229D3*
X473229Y1105118D3*
X573229D3*
X473229Y1005118D3*
X573229D3*
X473229Y905118D3*
X573229D3*
X473229Y805118D3*
X573229D3*
X473229Y705118D3*
X573229D3*
X473229Y605118D3*
X573229D3*
X473229Y505118D3*
X573229D3*
D21*
X1848032Y2405118D3*
D22*
X1948032D3*
X1848032Y2305118D3*
X1948032D3*
X1848032Y2205118D3*
X1948032D3*
X1848032Y2105118D3*
X1948032D3*
X1848032Y2005118D3*
X1948032D3*
X1848032Y1905118D3*
X1948032D3*
X1848032Y1805118D3*
X1948032D3*
X1848032Y1705118D3*
X1948032D3*
X1848032Y1605118D3*
X1948032D3*
X1848032Y1505118D3*
X1948032D3*
X1848032Y1405118D3*
X1948032D3*
X1848032Y1305118D3*
X1948032D3*
X1848032Y1205118D3*
X1948032D3*
X1848032Y1105118D3*
X1948032D3*
X1848032Y1005118D3*
X1948032D3*
X1848032Y905118D3*
X1948032D3*
X1848032Y805118D3*
X1948032D3*
X1848032Y705118D3*
X1948032D3*
X1848032Y605118D3*
X1948032D3*
X1848032Y505118D3*
X1948032D3*
M02*
