G04 DipTrace 3.0.0.1*
G04 Top.gbr*
%MOIN*%
G04 #@! TF.FileFunction,Copper,L1,Top*
G04 #@! TF.Part,Single*
G04 #@! TA.AperFunction,Conductor*
%ADD14C,0.008*%
%ADD15C,0.02*%
G04 #@! TA.AperFunction,CopperBalancing*
%ADD16C,0.025*%
G04 #@! TA.AperFunction,Conductor*
%ADD17C,0.01*%
G04 #@! TA.AperFunction,ComponentPad*
%ADD18C,0.066929*%
%ADD19C,0.066929*%
%ADD20C,0.059055*%
%ADD21R,0.059055X0.059055*%
%ADD22C,0.059055*%
G04 #@! TA.AperFunction,ViaPad*
%ADD23C,0.038*%
%FSLAX26Y26*%
G04*
G70*
G90*
G75*
G01*
G04 Top*
%LPD*%
X1948032Y2405118D2*
D14*
Y2401969D1*
X1898819Y2352756D1*
X633412D1*
X625984D1*
X620866Y2357874D1*
X525984D1*
X473229Y2305118D1*
Y2299607D1*
X517717Y2255118D1*
X615748D1*
X632677Y2238189D1*
D15*
Y2231103D1*
X712205Y2151575D1*
Y533465D1*
X749213Y496457D1*
X781103D1*
X810630Y466929D1*
D16*
X910630D1*
X633412Y2352756D2*
D14*
Y2226809D1*
D15*
X632677Y2231103D1*
X1848032Y2005118D2*
D14*
X1696063D1*
X1687795Y2013386D1*
Y2294882D1*
X1671654Y2311024D1*
X719685D1*
X679134Y2270473D1*
X473229Y2205118D2*
D17*
Y2203544D1*
X520079Y2156693D1*
X641732D1*
X660630Y2137795D1*
Y478740D1*
X699607Y439764D1*
X1010630Y466929D2*
D15*
X1110630D1*
X1848032Y1805118D2*
D14*
X1748032D1*
X1948032D2*
X1946063D1*
X1890945Y1750000D1*
X1792914D1*
X1748032Y1705118D1*
X1848032D2*
X1824016D1*
X1795670Y1676772D1*
Y1656299D1*
X1792520Y1653150D1*
X1754725D1*
X1747244Y1645670D1*
Y1605906D1*
X1748032Y1605118D1*
X1948032Y1705118D2*
X1905512D1*
X1896457Y1696063D1*
Y1661024D1*
X1890158Y1654725D1*
X1829528D1*
X1800000Y1625197D1*
Y1557087D1*
X1748032Y1505118D1*
X1848032Y1605118D2*
Y1571260D1*
X1802756Y1525984D1*
Y1459843D1*
X1748032Y1405118D1*
X1848032Y1505118D2*
Y1469685D1*
X1798032Y1419685D1*
Y1255118D1*
X1748032Y1205118D1*
X1948032Y1505118D2*
X1916142D1*
X1898819Y1487795D1*
Y1161418D1*
X1893701Y1156299D1*
X1799213D1*
X1748032Y1105118D1*
X1848032Y2305118D2*
X1748032D1*
X1848032Y2205118D2*
X1748032D1*
D23*
X679134Y2270473D3*
X699607Y439764D3*
X631210Y2397261D2*
D16*
X1789491D1*
X1786532Y2248049D2*
X1809511D1*
X1886532D2*
X1909511D1*
X1720809Y2148574D2*
X1810145D1*
X1885897D2*
X1910145D1*
X1720809Y2123705D2*
X1792665D1*
X1720809Y2098836D2*
X1789882D1*
X1720809Y2073967D2*
X1798964D1*
X510458Y2049099D2*
X536024D1*
X610458D2*
X626623D1*
X1720809D2*
X1810829D1*
X1885263D2*
X1910829D1*
X1705184Y1974492D2*
X1798622D1*
X509774Y1949624D2*
X536708D1*
X609774D2*
X626634D1*
X1705184D2*
X1811513D1*
X1884579D2*
X1911513D1*
X1705184Y1924755D2*
X1793055D1*
X1705184Y1899886D2*
X1789735D1*
X1705184Y1875017D2*
X1798280D1*
X509042Y1850149D2*
X537391D1*
X609042D2*
X626649D1*
X1783847D2*
X1812196D1*
X1883847D2*
X1912196D1*
X508358Y1750673D2*
X538124D1*
X608358D2*
X626649D1*
X507577Y1651198D2*
X538856D1*
X607577D2*
X626649D1*
X506845Y1551723D2*
X539638D1*
X606845D2*
X626649D1*
X1881649D2*
X1914442D1*
X506014Y1452248D2*
X540419D1*
X606014D2*
X626649D1*
X505184Y1352773D2*
X541249D1*
X605184D2*
X626649D1*
X504305Y1253298D2*
X542128D1*
X604305D2*
X626649D1*
X503427Y1153823D2*
X543055D1*
X603427D2*
X626649D1*
X502499Y1054348D2*
X543983D1*
X602499D2*
X626649D1*
X1705184D2*
X1721815D1*
X1774227D2*
X1818788D1*
X1877304D2*
X1918788D1*
X1705184Y1029479D2*
X1795057D1*
X1705184Y1004610D2*
X1789491D1*
X1705184Y979742D2*
X1795595D1*
X501473Y954873D2*
X544960D1*
X601473D2*
X626649D1*
X1705184D2*
X1819764D1*
X1876278D2*
X1919764D1*
X1705184Y930004D2*
X1795350D1*
X1705184Y905135D2*
X1789491D1*
X1705184Y880267D2*
X1795302D1*
X501571Y855398D2*
X544911D1*
X601571D2*
X626649D1*
X1705184D2*
X1819716D1*
X1876376D2*
X1919716D1*
X1705184Y830529D2*
X1795595D1*
X1705184Y805660D2*
X1789491D1*
X1705184Y780792D2*
X1795057D1*
X502548Y755923D2*
X543934D1*
X602548D2*
X626649D1*
X1705184D2*
X1818739D1*
X1877352D2*
X1918739D1*
X1705184Y731054D2*
X1795888D1*
X1705184Y706185D2*
X1789491D1*
X1705184Y681316D2*
X1794813D1*
X503475Y656448D2*
X542958D1*
X603475D2*
X626649D1*
X1705184D2*
X1817763D1*
X1878280D2*
X1917763D1*
X1705184Y631579D2*
X1796132D1*
X1705184Y606710D2*
X1789540D1*
X1705184Y581841D2*
X1794569D1*
X504403Y556973D2*
X542079D1*
X604403D2*
X626649D1*
X1705184D2*
X1816884D1*
X1879208D2*
X1916884D1*
X1705184Y532104D2*
X1796425D1*
X1657528Y507235D2*
X1789540D1*
X1671054Y482366D2*
X1794325D1*
X505233Y457498D2*
X541200D1*
X605233D2*
X634852D1*
X1672372D2*
X1816005D1*
X1880038D2*
X1916005D1*
X434725Y432629D2*
X652186D1*
X1662313D2*
X1986561D1*
X1794992Y2274629D2*
X1790635Y2268731D1*
X1784419Y2262515D1*
X1777306Y2257347D1*
X1773468Y2255039D1*
X1780964Y2250446D1*
X1787649Y2244736D1*
X1793359Y2238050D1*
X1794992Y2235607D1*
X1801010Y2235618D1*
X1805428Y2241505D1*
X1811645Y2247722D1*
X1818757Y2252890D1*
X1822596Y2255197D1*
X1815100Y2259791D1*
X1808414Y2265501D1*
X1802704Y2272186D1*
X1801072Y2274629D1*
X1795053Y2274618D1*
X1794992Y2174629D2*
X1790635Y2168731D1*
X1784419Y2162515D1*
X1777306Y2157347D1*
X1769473Y2153356D1*
X1761111Y2150639D1*
X1752428Y2149263D1*
X1743636D1*
X1734952Y2150639D1*
X1726591Y2153356D1*
X1718286Y2157662D1*
X1718296Y2035654D1*
X1800995Y2035618D1*
X1805428Y2041505D1*
X1811645Y2047722D1*
X1818757Y2052890D1*
X1822596Y2055197D1*
X1815100Y2059791D1*
X1808414Y2065501D1*
X1802704Y2072186D1*
X1798111Y2079682D1*
X1794746Y2087805D1*
X1792694Y2096354D1*
X1792004Y2105118D1*
X1792694Y2113883D1*
X1794746Y2122432D1*
X1798111Y2130554D1*
X1802704Y2138050D1*
X1808414Y2144736D1*
X1815100Y2150446D1*
X1822767Y2155118D1*
X1815100Y2159791D1*
X1808414Y2165501D1*
X1802704Y2172186D1*
X1801072Y2174629D1*
X1795053Y2174618D1*
X1702657Y1837979D2*
X1708414Y1844736D1*
X1715100Y1850446D1*
X1722596Y1855039D1*
X1730718Y1858404D1*
X1739267Y1860456D1*
X1748032Y1861146D1*
X1756796Y1860456D1*
X1765345Y1858404D1*
X1773468Y1855039D1*
X1780964Y1850446D1*
X1787649Y1844736D1*
X1793359Y1838050D1*
X1794992Y1835607D1*
X1801010Y1835618D1*
X1805428Y1841505D1*
X1811645Y1847722D1*
X1818757Y1852890D1*
X1822596Y1855197D1*
X1815100Y1859791D1*
X1808414Y1865501D1*
X1802704Y1872186D1*
X1798111Y1879682D1*
X1794746Y1887805D1*
X1792694Y1896354D1*
X1792004Y1905118D1*
X1792694Y1913883D1*
X1794746Y1922432D1*
X1798111Y1930554D1*
X1802704Y1938050D1*
X1808414Y1944736D1*
X1815100Y1950446D1*
X1822767Y1955118D1*
X1815100Y1959791D1*
X1808414Y1965501D1*
X1802704Y1972186D1*
X1801072Y1974629D1*
X1702670Y1974618D1*
X1702666Y1838027D1*
X1670410Y462225D2*
X1668938Y452931D1*
X1666030Y443982D1*
X1661758Y435598D1*
X1659480Y432188D1*
X1989086Y432201D1*
X1989059Y466918D1*
X1980964Y459791D1*
X1973468Y455197D1*
X1965345Y451833D1*
X1956796Y449781D1*
X1948032Y449091D1*
X1939267Y449781D1*
X1930718Y451833D1*
X1922596Y455197D1*
X1915100Y459791D1*
X1908414Y465501D1*
X1902704Y472186D1*
X1898032Y479854D1*
X1893359Y472186D1*
X1887649Y465501D1*
X1880964Y459791D1*
X1873468Y455197D1*
X1865345Y451833D1*
X1856796Y449781D1*
X1848032Y449091D1*
X1839267Y449781D1*
X1830718Y451833D1*
X1822596Y455197D1*
X1815100Y459791D1*
X1808414Y465501D1*
X1802704Y472186D1*
X1798111Y479682D1*
X1794746Y487805D1*
X1792694Y496354D1*
X1792004Y505118D1*
X1792694Y513883D1*
X1794746Y522432D1*
X1798111Y530554D1*
X1802704Y538050D1*
X1808414Y544736D1*
X1815100Y550446D1*
X1822767Y555118D1*
X1815100Y559791D1*
X1808414Y565501D1*
X1802704Y572186D1*
X1798111Y579682D1*
X1794746Y587805D1*
X1792694Y596354D1*
X1792004Y605118D1*
X1792694Y613883D1*
X1794746Y622432D1*
X1798111Y630554D1*
X1802704Y638050D1*
X1808414Y644736D1*
X1815100Y650446D1*
X1822767Y655118D1*
X1815100Y659791D1*
X1808414Y665501D1*
X1802704Y672186D1*
X1798111Y679682D1*
X1794746Y687805D1*
X1792694Y696354D1*
X1792004Y705118D1*
X1792694Y713883D1*
X1794746Y722432D1*
X1798111Y730554D1*
X1802704Y738050D1*
X1808414Y744736D1*
X1815100Y750446D1*
X1822767Y755118D1*
X1815100Y759791D1*
X1808414Y765501D1*
X1802704Y772186D1*
X1798111Y779682D1*
X1794746Y787805D1*
X1792694Y796354D1*
X1792004Y805118D1*
X1792694Y813883D1*
X1794746Y822432D1*
X1798111Y830554D1*
X1802704Y838050D1*
X1808414Y844736D1*
X1815100Y850446D1*
X1822767Y855118D1*
X1815100Y859791D1*
X1808414Y865501D1*
X1802704Y872186D1*
X1798111Y879682D1*
X1794746Y887805D1*
X1792694Y896354D1*
X1792004Y905118D1*
X1792694Y913883D1*
X1794746Y922432D1*
X1798111Y930554D1*
X1802704Y938050D1*
X1808414Y944736D1*
X1815100Y950446D1*
X1822767Y955118D1*
X1815100Y959791D1*
X1808414Y965501D1*
X1802704Y972186D1*
X1798111Y979682D1*
X1794746Y987805D1*
X1792694Y996354D1*
X1792004Y1005118D1*
X1792694Y1013883D1*
X1794746Y1022432D1*
X1798111Y1030554D1*
X1802704Y1038050D1*
X1808414Y1044736D1*
X1815100Y1050446D1*
X1822767Y1055118D1*
X1815100Y1059791D1*
X1808414Y1065501D1*
X1802704Y1072186D1*
X1798032Y1079854D1*
X1793359Y1072186D1*
X1787649Y1065501D1*
X1780964Y1059791D1*
X1773468Y1055197D1*
X1765345Y1051833D1*
X1756796Y1049781D1*
X1748032Y1049091D1*
X1739267Y1049781D1*
X1730718Y1051833D1*
X1722596Y1055197D1*
X1715100Y1059791D1*
X1708414Y1065501D1*
X1702657Y1072258D1*
X1702666Y512295D1*
X1649882D1*
X1656228Y505873D1*
X1661758Y498261D1*
X1666030Y489877D1*
X1668938Y480928D1*
X1670410Y471634D1*
Y462225D1*
X629083Y2400722D2*
X627708Y2392039D1*
X626528Y2387854D1*
X632538Y2386053D1*
X636810Y2383875D1*
X645912Y2383256D1*
X1791957D1*
X1792004Y2422089D1*
X626608Y2422130D1*
X628566Y2413883D1*
X629256Y2405118D1*
X629083Y2400722D1*
X523229Y2079854D2*
X518556Y2072186D1*
X512846Y2065501D1*
X506161Y2059791D1*
X498493Y2055118D1*
X506161Y2050446D1*
X512846Y2044736D1*
X518556Y2038050D1*
X523229Y2030383D1*
X527901Y2038050D1*
X533611Y2044736D1*
X540296Y2050446D1*
X547964Y2055118D1*
X540296Y2059791D1*
X533611Y2065501D1*
X527901Y2072186D1*
X523228Y2079854D1*
X629130Y2101907D2*
X627708Y2092039D1*
X624991Y2083678D1*
X621000Y2075844D1*
X615832Y2068731D1*
X609616Y2062515D1*
X602503Y2057347D1*
X598665Y2055039D1*
X606161Y2050446D1*
X612846Y2044736D1*
X618556Y2038050D1*
X623149Y2030554D1*
X626514Y2022432D1*
X628566Y2013883D1*
X629130Y2008329D1*
Y2124785D1*
X626514Y2122432D1*
X628566Y2113883D1*
X629083Y2109514D1*
X523229Y1979854D2*
X518556Y1972186D1*
X512846Y1965501D1*
X506161Y1959791D1*
X498493Y1955118D1*
X506161Y1950446D1*
X512846Y1944736D1*
X518556Y1938050D1*
X523229Y1930383D1*
X527901Y1938050D1*
X533611Y1944736D1*
X540296Y1950446D1*
X547964Y1955118D1*
X540296Y1959791D1*
X533611Y1965501D1*
X527901Y1972186D1*
X523228Y1979854D1*
X629130Y2001907D2*
X627708Y1992039D1*
X624991Y1983678D1*
X621000Y1975844D1*
X615832Y1968731D1*
X609616Y1962515D1*
X602503Y1957347D1*
X598665Y1955039D1*
X606161Y1950446D1*
X612846Y1944736D1*
X618556Y1938050D1*
X623149Y1930554D1*
X626514Y1922432D1*
X628566Y1913883D1*
X629130Y1908329D1*
Y2001348D1*
X523229Y1879854D2*
X518556Y1872186D1*
X512846Y1865501D1*
X506161Y1859791D1*
X498493Y1855118D1*
X506161Y1850446D1*
X512846Y1844736D1*
X518556Y1838050D1*
X523229Y1830383D1*
X527901Y1838050D1*
X533611Y1844736D1*
X540296Y1850446D1*
X547964Y1855118D1*
X540296Y1859791D1*
X533611Y1865501D1*
X527901Y1872186D1*
X523228Y1879854D1*
X629130Y1901907D2*
X627708Y1892039D1*
X624991Y1883678D1*
X621000Y1875844D1*
X615832Y1868731D1*
X609616Y1862515D1*
X602503Y1857347D1*
X598665Y1855039D1*
X606161Y1850446D1*
X612846Y1844736D1*
X618556Y1838050D1*
X623149Y1830554D1*
X626514Y1822432D1*
X628566Y1813883D1*
X629130Y1808329D1*
Y1901348D1*
X523229Y1779854D2*
X518556Y1772186D1*
X512846Y1765501D1*
X506161Y1759791D1*
X498493Y1755118D1*
X506161Y1750446D1*
X512846Y1744736D1*
X518556Y1738050D1*
X523229Y1730383D1*
X527901Y1738050D1*
X533611Y1744736D1*
X540296Y1750446D1*
X547964Y1755118D1*
X540296Y1759791D1*
X533611Y1765501D1*
X527901Y1772186D1*
X523228Y1779854D1*
X629130Y1801907D2*
X627708Y1792039D1*
X624991Y1783678D1*
X621000Y1775844D1*
X615832Y1768731D1*
X609616Y1762515D1*
X602503Y1757347D1*
X598665Y1755039D1*
X606161Y1750446D1*
X612846Y1744736D1*
X618556Y1738050D1*
X623149Y1730554D1*
X626514Y1722432D1*
X628566Y1713883D1*
X629130Y1708329D1*
Y1801348D1*
X523229Y1679854D2*
X518556Y1672186D1*
X512846Y1665501D1*
X506161Y1659791D1*
X498493Y1655118D1*
X506161Y1650446D1*
X512846Y1644736D1*
X518556Y1638050D1*
X523229Y1630383D1*
X527901Y1638050D1*
X533611Y1644736D1*
X540296Y1650446D1*
X547964Y1655118D1*
X540296Y1659791D1*
X533611Y1665501D1*
X527901Y1672186D1*
X523228Y1679854D1*
X629130Y1701907D2*
X627708Y1692039D1*
X624991Y1683678D1*
X621000Y1675844D1*
X615832Y1668731D1*
X609616Y1662515D1*
X602503Y1657347D1*
X598665Y1655039D1*
X606161Y1650446D1*
X612846Y1644736D1*
X618556Y1638050D1*
X623149Y1630554D1*
X626514Y1622432D1*
X628566Y1613883D1*
X629130Y1608329D1*
Y1701348D1*
X523229Y1579854D2*
X518556Y1572186D1*
X512846Y1565501D1*
X506161Y1559791D1*
X498493Y1555118D1*
X506161Y1550446D1*
X512846Y1544736D1*
X518556Y1538050D1*
X523229Y1530383D1*
X527901Y1538050D1*
X533611Y1544736D1*
X540296Y1550446D1*
X547964Y1555118D1*
X540296Y1559791D1*
X533611Y1565501D1*
X527901Y1572186D1*
X523228Y1579854D1*
X629130Y1601907D2*
X627708Y1592039D1*
X624991Y1583678D1*
X621000Y1575844D1*
X615832Y1568731D1*
X609616Y1562515D1*
X602503Y1557347D1*
X598665Y1555039D1*
X606161Y1550446D1*
X612846Y1544736D1*
X618556Y1538050D1*
X623149Y1530554D1*
X626514Y1522432D1*
X628566Y1513883D1*
X629130Y1508329D1*
Y1601348D1*
X523229Y1479854D2*
X518556Y1472186D1*
X512846Y1465501D1*
X506161Y1459791D1*
X498493Y1455118D1*
X506161Y1450446D1*
X512846Y1444736D1*
X518556Y1438050D1*
X523229Y1430383D1*
X527901Y1438050D1*
X533611Y1444736D1*
X540296Y1450446D1*
X547964Y1455118D1*
X540296Y1459791D1*
X533611Y1465501D1*
X527901Y1472186D1*
X523228Y1479854D1*
X629130Y1501907D2*
X627708Y1492039D1*
X624991Y1483678D1*
X621000Y1475844D1*
X615832Y1468731D1*
X609616Y1462515D1*
X602503Y1457347D1*
X598665Y1455039D1*
X606161Y1450446D1*
X612846Y1444736D1*
X618556Y1438050D1*
X623149Y1430554D1*
X626514Y1422432D1*
X628566Y1413883D1*
X629130Y1408329D1*
Y1501348D1*
X523229Y1379854D2*
X518556Y1372186D1*
X512846Y1365501D1*
X506161Y1359791D1*
X498493Y1355118D1*
X506161Y1350446D1*
X512846Y1344736D1*
X518556Y1338050D1*
X523229Y1330383D1*
X527901Y1338050D1*
X533611Y1344736D1*
X540296Y1350446D1*
X547964Y1355118D1*
X540296Y1359791D1*
X533611Y1365501D1*
X527901Y1372186D1*
X523228Y1379854D1*
X629130Y1401907D2*
X627708Y1392039D1*
X624991Y1383678D1*
X621000Y1375844D1*
X615832Y1368731D1*
X609616Y1362515D1*
X602503Y1357347D1*
X598665Y1355039D1*
X606161Y1350446D1*
X612846Y1344736D1*
X618556Y1338050D1*
X623149Y1330554D1*
X626514Y1322432D1*
X628566Y1313883D1*
X629130Y1308329D1*
Y1401348D1*
X523229Y1279854D2*
X518556Y1272186D1*
X512846Y1265501D1*
X506161Y1259791D1*
X498493Y1255118D1*
X506161Y1250446D1*
X512846Y1244736D1*
X518556Y1238050D1*
X523229Y1230383D1*
X527901Y1238050D1*
X533611Y1244736D1*
X540296Y1250446D1*
X547964Y1255118D1*
X540296Y1259791D1*
X533611Y1265501D1*
X527901Y1272186D1*
X523228Y1279854D1*
X629130Y1301907D2*
X627708Y1292039D1*
X624991Y1283678D1*
X621000Y1275844D1*
X615832Y1268731D1*
X609616Y1262515D1*
X602503Y1257347D1*
X598665Y1255039D1*
X606161Y1250446D1*
X612846Y1244736D1*
X618556Y1238050D1*
X623149Y1230554D1*
X626514Y1222432D1*
X628566Y1213883D1*
X629130Y1208329D1*
Y1301348D1*
X523229Y1179854D2*
X518556Y1172186D1*
X512846Y1165501D1*
X506161Y1159791D1*
X498493Y1155118D1*
X506161Y1150446D1*
X512846Y1144736D1*
X518556Y1138050D1*
X523229Y1130383D1*
X527901Y1138050D1*
X533611Y1144736D1*
X540296Y1150446D1*
X547964Y1155118D1*
X540296Y1159791D1*
X533611Y1165501D1*
X527901Y1172186D1*
X523228Y1179854D1*
X629130Y1201907D2*
X627708Y1192039D1*
X624991Y1183678D1*
X621000Y1175844D1*
X615832Y1168731D1*
X609616Y1162515D1*
X602503Y1157347D1*
X598665Y1155039D1*
X606161Y1150446D1*
X612846Y1144736D1*
X618556Y1138050D1*
X623149Y1130554D1*
X626514Y1122432D1*
X628566Y1113883D1*
X629130Y1108329D1*
Y1201348D1*
X523229Y1079854D2*
X518556Y1072186D1*
X512846Y1065501D1*
X506161Y1059791D1*
X498493Y1055118D1*
X506161Y1050446D1*
X512846Y1044736D1*
X518556Y1038050D1*
X523229Y1030383D1*
X527901Y1038050D1*
X533611Y1044736D1*
X540296Y1050446D1*
X547964Y1055118D1*
X540296Y1059791D1*
X533611Y1065501D1*
X527901Y1072186D1*
X523228Y1079854D1*
X629130Y1101907D2*
X627708Y1092039D1*
X624991Y1083678D1*
X621000Y1075844D1*
X615832Y1068731D1*
X609616Y1062515D1*
X602503Y1057347D1*
X598665Y1055039D1*
X606161Y1050446D1*
X612846Y1044736D1*
X618556Y1038050D1*
X623149Y1030554D1*
X626514Y1022432D1*
X628566Y1013883D1*
X629130Y1008329D1*
Y1101348D1*
X523229Y979854D2*
X518556Y972186D1*
X512846Y965501D1*
X506161Y959791D1*
X498493Y955118D1*
X506161Y950446D1*
X512846Y944736D1*
X518556Y938050D1*
X523229Y930383D1*
X527901Y938050D1*
X533611Y944736D1*
X540296Y950446D1*
X547964Y955118D1*
X540296Y959791D1*
X533611Y965501D1*
X527901Y972186D1*
X523228Y979854D1*
X629130Y1001907D2*
X627708Y992039D1*
X624991Y983678D1*
X621000Y975844D1*
X615832Y968731D1*
X609616Y962515D1*
X602503Y957347D1*
X598665Y955039D1*
X606161Y950446D1*
X612846Y944736D1*
X618556Y938050D1*
X623149Y930554D1*
X626514Y922432D1*
X628566Y913883D1*
X629130Y908329D1*
Y1001348D1*
X523229Y879854D2*
X518556Y872186D1*
X512846Y865501D1*
X506161Y859791D1*
X498493Y855118D1*
X506161Y850446D1*
X512846Y844736D1*
X518556Y838050D1*
X523229Y830383D1*
X527901Y838050D1*
X533611Y844736D1*
X540296Y850446D1*
X547964Y855118D1*
X540296Y859791D1*
X533611Y865501D1*
X527901Y872186D1*
X523228Y879854D1*
X629130Y901907D2*
X627708Y892039D1*
X624991Y883678D1*
X621000Y875844D1*
X615832Y868731D1*
X609616Y862515D1*
X602503Y857347D1*
X598665Y855039D1*
X606161Y850446D1*
X612846Y844736D1*
X618556Y838050D1*
X623149Y830554D1*
X626514Y822432D1*
X628566Y813883D1*
X629130Y808329D1*
Y901348D1*
X523229Y779854D2*
X518556Y772186D1*
X512846Y765501D1*
X506161Y759791D1*
X498493Y755118D1*
X506161Y750446D1*
X512846Y744736D1*
X518556Y738050D1*
X523229Y730383D1*
X527901Y738050D1*
X533611Y744736D1*
X540296Y750446D1*
X547964Y755118D1*
X540296Y759791D1*
X533611Y765501D1*
X527901Y772186D1*
X523228Y779854D1*
X629130Y801907D2*
X627708Y792039D1*
X624991Y783678D1*
X621000Y775844D1*
X615832Y768731D1*
X609616Y762515D1*
X602503Y757347D1*
X598665Y755039D1*
X606161Y750446D1*
X612846Y744736D1*
X618556Y738050D1*
X623149Y730554D1*
X626514Y722432D1*
X628566Y713883D1*
X629130Y708329D1*
Y801348D1*
X523229Y679854D2*
X518556Y672186D1*
X512846Y665501D1*
X506161Y659791D1*
X498493Y655118D1*
X506161Y650446D1*
X512846Y644736D1*
X518556Y638050D1*
X523229Y630383D1*
X527901Y638050D1*
X533611Y644736D1*
X540296Y650446D1*
X547964Y655118D1*
X540296Y659791D1*
X533611Y665501D1*
X527901Y672186D1*
X523228Y679854D1*
X629130Y701907D2*
X627708Y692039D1*
X624991Y683678D1*
X621000Y675844D1*
X615832Y668731D1*
X609616Y662515D1*
X602503Y657347D1*
X598665Y655039D1*
X606161Y650446D1*
X612846Y644736D1*
X618556Y638050D1*
X623149Y630554D1*
X626514Y622432D1*
X628566Y613883D1*
X629130Y608329D1*
Y701348D1*
X523229Y579854D2*
X518556Y572186D1*
X512846Y565501D1*
X506161Y559791D1*
X498493Y555118D1*
X506161Y550446D1*
X512846Y544736D1*
X518556Y538050D1*
X523229Y530383D1*
X527901Y538050D1*
X533611Y544736D1*
X540296Y550446D1*
X547964Y555118D1*
X540296Y559791D1*
X533611Y565501D1*
X527901Y572186D1*
X523228Y579854D1*
X629130Y601907D2*
X627708Y592039D1*
X624991Y583678D1*
X621000Y575844D1*
X615832Y568731D1*
X609616Y562515D1*
X602503Y557347D1*
X598665Y555039D1*
X606161Y550446D1*
X612846Y544736D1*
X618556Y538050D1*
X623149Y530554D1*
X626514Y522432D1*
X628566Y513883D1*
X629130Y508329D1*
Y601348D1*
X523229Y479854D2*
X518556Y472186D1*
X512846Y465501D1*
X506161Y459791D1*
X498665Y455197D1*
X490542Y451833D1*
X481993Y449781D1*
X473229Y449091D1*
X464464Y449781D1*
X455915Y451833D1*
X447793Y455197D1*
X440296Y459791D1*
X433611Y465501D1*
X432200Y467028D1*
X432201Y432238D1*
X654711Y432201D1*
X654142Y440670D1*
X636677Y458283D1*
X632563Y464440D1*
X630000Y471387D1*
X629130Y478740D1*
X629083Y500722D1*
X627708Y492039D1*
X624991Y483678D1*
X621000Y475844D1*
X615832Y468731D1*
X609616Y462515D1*
X602503Y457347D1*
X594669Y453356D1*
X586308Y450639D1*
X577624Y449263D1*
X568833D1*
X560149Y450639D1*
X551788Y453356D1*
X543954Y457347D1*
X536842Y462515D1*
X530625Y468731D1*
X525457Y475844D1*
X523228Y479854D1*
X1898032Y2279854D2*
X1893359Y2272186D1*
X1887649Y2265501D1*
X1880964Y2259791D1*
X1873296Y2255118D1*
X1880964Y2250446D1*
X1887649Y2244736D1*
X1893359Y2238050D1*
X1898032Y2230383D1*
X1902704Y2238050D1*
X1908414Y2244736D1*
X1915100Y2250446D1*
X1922767Y2255118D1*
X1915100Y2259791D1*
X1908414Y2265501D1*
X1902704Y2272186D1*
X1898032Y2279854D1*
Y2179854D2*
X1893359Y2172186D1*
X1887649Y2165501D1*
X1880964Y2159791D1*
X1873296Y2155118D1*
X1880964Y2150446D1*
X1887649Y2144736D1*
X1893359Y2138050D1*
X1898032Y2130383D1*
X1902704Y2138050D1*
X1908414Y2144736D1*
X1915100Y2150446D1*
X1922767Y2155118D1*
X1915100Y2159791D1*
X1908414Y2165501D1*
X1902704Y2172186D1*
X1898032Y2179854D1*
Y2079854D2*
X1893359Y2072186D1*
X1887649Y2065501D1*
X1880964Y2059791D1*
X1873296Y2055118D1*
X1880964Y2050446D1*
X1887649Y2044736D1*
X1893359Y2038050D1*
X1898032Y2030383D1*
X1902704Y2038050D1*
X1908414Y2044736D1*
X1915100Y2050446D1*
X1922767Y2055118D1*
X1915100Y2059791D1*
X1908414Y2065501D1*
X1902704Y2072186D1*
X1898032Y2079854D1*
Y1979854D2*
X1893359Y1972186D1*
X1887649Y1965501D1*
X1880964Y1959791D1*
X1873296Y1955118D1*
X1880964Y1950446D1*
X1887649Y1944736D1*
X1893359Y1938050D1*
X1898032Y1930383D1*
X1902704Y1938050D1*
X1908414Y1944736D1*
X1915100Y1950446D1*
X1922767Y1955118D1*
X1915100Y1959791D1*
X1908414Y1965501D1*
X1902704Y1972186D1*
X1898032Y1979854D1*
Y1879854D2*
X1893359Y1872186D1*
X1887649Y1865501D1*
X1880964Y1859791D1*
X1873296Y1855118D1*
X1880964Y1850446D1*
X1887649Y1844736D1*
X1893359Y1838050D1*
X1898032Y1830383D1*
X1902704Y1838050D1*
X1908414Y1844736D1*
X1915100Y1850446D1*
X1922767Y1855118D1*
X1915100Y1859791D1*
X1908414Y1865501D1*
X1902704Y1872186D1*
X1898032Y1879854D1*
Y1579854D2*
X1893359Y1572186D1*
X1887649Y1565501D1*
X1880964Y1559791D1*
X1874037Y1555324D1*
X1884419Y1547722D1*
X1890635Y1541505D1*
X1895803Y1534393D1*
X1898111Y1530554D1*
X1902704Y1538050D1*
X1908414Y1544736D1*
X1915100Y1550446D1*
X1922767Y1555118D1*
X1915100Y1559791D1*
X1908414Y1565501D1*
X1902704Y1572186D1*
X1898032Y1579854D1*
Y1079854D2*
X1893359Y1072186D1*
X1887649Y1065501D1*
X1880964Y1059791D1*
X1873296Y1055118D1*
X1880964Y1050446D1*
X1887649Y1044736D1*
X1893359Y1038050D1*
X1898032Y1030383D1*
X1902704Y1038050D1*
X1908414Y1044736D1*
X1915100Y1050446D1*
X1922767Y1055118D1*
X1915100Y1059791D1*
X1908414Y1065501D1*
X1902704Y1072186D1*
X1898032Y1079854D1*
Y979854D2*
X1893359Y972186D1*
X1887649Y965501D1*
X1880964Y959791D1*
X1873296Y955118D1*
X1880964Y950446D1*
X1887649Y944736D1*
X1893359Y938050D1*
X1898032Y930383D1*
X1902704Y938050D1*
X1908414Y944736D1*
X1915100Y950446D1*
X1922767Y955118D1*
X1915100Y959791D1*
X1908414Y965501D1*
X1902704Y972186D1*
X1898032Y979854D1*
Y879854D2*
X1893359Y872186D1*
X1887649Y865501D1*
X1880964Y859791D1*
X1873296Y855118D1*
X1880964Y850446D1*
X1887649Y844736D1*
X1893359Y838050D1*
X1898032Y830383D1*
X1902704Y838050D1*
X1908414Y844736D1*
X1915100Y850446D1*
X1922767Y855118D1*
X1915100Y859791D1*
X1908414Y865501D1*
X1902704Y872186D1*
X1898032Y879854D1*
Y779854D2*
X1893359Y772186D1*
X1887649Y765501D1*
X1880964Y759791D1*
X1873296Y755118D1*
X1880964Y750446D1*
X1887649Y744736D1*
X1893359Y738050D1*
X1898032Y730383D1*
X1902704Y738050D1*
X1908414Y744736D1*
X1915100Y750446D1*
X1922767Y755118D1*
X1915100Y759791D1*
X1908414Y765501D1*
X1902704Y772186D1*
X1898032Y779854D1*
Y679854D2*
X1893359Y672186D1*
X1887649Y665501D1*
X1880964Y659791D1*
X1873296Y655118D1*
X1880964Y650446D1*
X1887649Y644736D1*
X1893359Y638050D1*
X1898032Y630383D1*
X1902704Y638050D1*
X1908414Y644736D1*
X1915100Y650446D1*
X1922767Y655118D1*
X1915100Y659791D1*
X1908414Y665501D1*
X1902704Y672186D1*
X1898032Y679854D1*
Y579854D2*
X1893359Y572186D1*
X1887649Y565501D1*
X1880964Y559791D1*
X1873296Y555118D1*
X1880964Y550446D1*
X1887649Y544736D1*
X1893359Y538050D1*
X1898032Y530383D1*
X1902704Y538050D1*
X1908414Y544736D1*
X1915100Y550446D1*
X1922767Y555118D1*
X1915100Y559791D1*
X1908414Y565501D1*
X1902704Y572186D1*
X1898032Y579854D1*
D18*
X1010630Y605118D3*
D19*
X910630D3*
X1010630Y705118D3*
X910630D3*
X1010630Y805118D3*
X910630D3*
X1010630Y905118D3*
X910630D3*
X1010630Y1005118D3*
X910630D3*
X1010630Y1105118D3*
X910630D3*
X1010630Y1205118D3*
X910630D3*
X1010630Y1305118D3*
X910630D3*
X1010630Y1405118D3*
X910630D3*
X1010630Y1505118D3*
X910630D3*
X1010630Y1605118D3*
X910630D3*
X1010630Y1705118D3*
X910630D3*
X1010630Y1805118D3*
X910630D3*
X1010630Y1905118D3*
X910630D3*
X1010630Y2005118D3*
X910630D3*
X1010630Y2105118D3*
X910630D3*
X1010630Y2205118D3*
X910630D3*
X810630Y605118D3*
Y705118D3*
Y805118D3*
Y905118D3*
Y1005118D3*
Y1105118D3*
Y1205118D3*
Y1305118D3*
Y1405118D3*
Y1505118D3*
Y1605118D3*
Y1705118D3*
Y1805118D3*
Y1905118D3*
Y2005118D3*
Y2105118D3*
Y2205118D3*
D18*
X1310630Y605118D3*
D19*
X1210630D3*
X1310630Y705118D3*
X1210630D3*
X1310630Y805118D3*
X1210630D3*
X1310630Y905118D3*
X1210630D3*
X1310630Y1005118D3*
X1210630D3*
X1310630Y1105118D3*
X1210630D3*
X1310630Y1205118D3*
X1210630D3*
X1310630Y1305118D3*
X1210630D3*
X1310630Y1405118D3*
X1210630D3*
X1310630Y1505118D3*
X1210630D3*
X1310630Y1605118D3*
X1210630D3*
X1310630Y1705118D3*
X1210630D3*
X1310630Y1805118D3*
X1210630D3*
X1310630Y1905118D3*
X1210630D3*
X1310630Y2005118D3*
X1210630D3*
X1310630Y2105118D3*
X1210630D3*
X1310630Y2205118D3*
X1210630D3*
X1110630Y605118D3*
Y705118D3*
Y805118D3*
Y905118D3*
Y1005118D3*
Y1105118D3*
Y1205118D3*
Y1305118D3*
Y1405118D3*
Y1505118D3*
Y1605118D3*
Y1705118D3*
Y1805118D3*
Y1905118D3*
Y2005118D3*
Y2105118D3*
Y2205118D3*
D18*
X1610630Y605118D3*
D19*
X1510630D3*
X1610630Y705118D3*
X1510630D3*
X1610630Y805118D3*
X1510630D3*
X1610630Y905118D3*
X1510630D3*
X1610630Y1005118D3*
X1510630D3*
X1610630Y1105118D3*
X1510630D3*
X1610630Y1205118D3*
X1510630D3*
X1610630Y1305118D3*
X1510630D3*
X1610630Y1405118D3*
X1510630D3*
X1610630Y1505118D3*
X1510630D3*
X1610630Y1605118D3*
X1510630D3*
X1610630Y1705118D3*
X1510630D3*
X1610630Y1805118D3*
X1510630D3*
X1610630Y1905118D3*
X1510630D3*
X1610630Y2005118D3*
X1510630D3*
X1610630Y2105118D3*
X1510630D3*
X1610630Y2205118D3*
X1510630D3*
X1410630Y605118D3*
Y705118D3*
Y805118D3*
Y905118D3*
Y1005118D3*
Y1105118D3*
Y1205118D3*
Y1305118D3*
Y1405118D3*
Y1505118D3*
Y1605118D3*
Y1705118D3*
Y1805118D3*
Y1905118D3*
Y2005118D3*
Y2105118D3*
Y2205118D3*
D20*
X1748032Y2305118D3*
D19*
X1010630Y466929D3*
D20*
X1748032Y2205118D3*
D19*
X910630Y466929D3*
D20*
X1748032Y1605118D3*
D19*
X810630Y466929D3*
D20*
X1748032Y1505118D3*
D19*
X1310630Y466929D3*
D20*
X1748032Y1405118D3*
D19*
X1210630Y466929D3*
D20*
X1748032Y1305118D3*
D19*
X1110630Y466929D3*
D20*
X1748032Y1805118D3*
D19*
X1610630Y466929D3*
D20*
X1748032Y1705118D3*
D19*
X1510630Y466929D3*
D20*
X1748032Y1205118D3*
D19*
X1410630Y466929D3*
D20*
X1748032Y1105118D3*
D21*
X473229Y2405118D3*
D22*
X573229D3*
X473229Y2305118D3*
X573229D3*
X473229Y2205118D3*
X573229D3*
X473229Y2105118D3*
X573229D3*
X473229Y2005118D3*
X573229D3*
X473229Y1905118D3*
X573229D3*
X473229Y1805118D3*
X573229D3*
X473229Y1705118D3*
X573229D3*
X473229Y1605118D3*
X573229D3*
X473229Y1505118D3*
X573229D3*
X473229Y1405118D3*
X573229D3*
X473229Y1305118D3*
X573229D3*
X473229Y1205118D3*
X573229D3*
X473229Y1105118D3*
X573229D3*
X473229Y1005118D3*
X573229D3*
X473229Y905118D3*
X573229D3*
X473229Y805118D3*
X573229D3*
X473229Y705118D3*
X573229D3*
X473229Y605118D3*
X573229D3*
X473229Y505118D3*
X573229D3*
D21*
X1848032Y2405118D3*
D22*
X1948032D3*
X1848032Y2305118D3*
X1948032D3*
X1848032Y2205118D3*
X1948032D3*
X1848032Y2105118D3*
X1948032D3*
X1848032Y2005118D3*
X1948032D3*
X1848032Y1905118D3*
X1948032D3*
X1848032Y1805118D3*
X1948032D3*
X1848032Y1705118D3*
X1948032D3*
X1848032Y1605118D3*
X1948032D3*
X1848032Y1505118D3*
X1948032D3*
X1848032Y1405118D3*
X1948032D3*
X1848032Y1305118D3*
X1948032D3*
X1848032Y1205118D3*
X1948032D3*
X1848032Y1105118D3*
X1948032D3*
X1848032Y1005118D3*
X1948032D3*
X1848032Y905118D3*
X1948032D3*
X1848032Y805118D3*
X1948032D3*
X1848032Y705118D3*
X1948032D3*
X1848032Y605118D3*
X1948032D3*
X1848032Y505118D3*
X1948032D3*
M02*
