G04 DipTrace 3.0.0.1*
G04 TopDimension.gbr*
%MOIN*%
G04 #@! TF.FileFunction,Drawing,Top*
G04 #@! TF.Part,Single*
%ADD13C,0.001378*%
%ADD40C,0.006176*%
%FSLAX26Y26*%
G04*
G70*
G90*
G75*
G01*
G04 TopDimension*
%LPD*%
X573229Y505118D2*
D13*
Y160630D1*
X1848032Y505118D2*
Y160630D1*
X1210630Y180315D2*
X612599D1*
G36*
X573229D2*
X612599Y188189D1*
Y172441D1*
X573229Y180315D1*
G37*
X1210630D2*
D13*
X1808662D1*
G36*
X1848032D2*
X1808662Y172441D1*
Y188189D1*
X1848032Y180315D1*
G37*
X573229Y505118D2*
D13*
X2458662D1*
X1848032D2*
X2458662D1*
X2438977D2*
D3*
Y564173D2*
Y544488D1*
G36*
Y505118D2*
X2431103Y544488D1*
X2446851D1*
X2438977Y505118D1*
G37*
Y446063D2*
D13*
Y465748D1*
G36*
Y505118D2*
X2446851Y465748D1*
X2431103D1*
X2438977Y505118D1*
G37*
Y438954D2*
D13*
Y505118D1*
X473229D2*
Y154331D1*
X393701Y393701D2*
Y154331D1*
Y174016D2*
X473229D1*
X334646D2*
X354331D1*
G36*
X393701D2*
X354331Y166142D1*
Y181890D1*
X393701Y174016D1*
G37*
X532284D2*
D13*
X512599D1*
G36*
X473229D2*
X512599Y181890D1*
Y166142D1*
X473229Y174016D1*
G37*
X631982D2*
D13*
X473229D1*
X1948032Y505118D2*
Y176772D1*
X2027559Y393701D2*
Y176772D1*
X1948032Y196457D2*
X2027559D1*
X1888977D2*
X1908662D1*
G36*
X1948032D2*
X1908662Y188583D1*
Y204331D1*
X1948032Y196457D1*
G37*
X2086614D2*
D13*
X2066929D1*
G36*
X2027559D2*
X2066929Y204331D1*
Y188583D1*
X2027559Y196457D1*
G37*
X2186313D2*
D13*
X2027559D1*
X910630Y605118D2*
Y285827D1*
X1010630Y605118D2*
Y285827D1*
X910630Y305512D2*
X1010630D1*
X851575D2*
X871260D1*
G36*
X910630D2*
X871260Y297638D1*
Y313386D1*
X910630Y305512D1*
G37*
X1069685D2*
D13*
X1050000D1*
G36*
X1010630D2*
X1050000Y313386D1*
Y297638D1*
X1010630Y305512D1*
G37*
X910630Y705118D2*
D13*
X725591D1*
X910630Y605118D2*
X725591D1*
X745276Y705118D2*
Y605118D1*
Y764173D2*
Y744488D1*
G36*
Y705118D2*
X737402Y744488D1*
X753150D1*
X745276Y705118D1*
G37*
Y546063D2*
D13*
Y565748D1*
G36*
Y605118D2*
X753150Y565748D1*
X737402D1*
X745276Y605118D1*
G37*
X1748032Y2305118D2*
D13*
Y2347638D1*
X1848032Y2305118D2*
Y2347638D1*
X1748032Y2327953D2*
X1848032D1*
X1688977D2*
X1708662D1*
G36*
X1748032D2*
X1708662Y2320079D1*
Y2335827D1*
X1748032Y2327953D1*
G37*
X1907087D2*
D13*
X1887402D1*
G36*
X1848032D2*
X1887402Y2335827D1*
Y2320079D1*
X1848032Y2327953D1*
G37*
X1748032Y2205118D2*
D13*
Y2267717D1*
X1848032Y2205118D2*
Y2267717D1*
X1748032Y2248032D2*
X1848032D1*
X1688977D2*
X1708662D1*
G36*
X1748032D2*
X1708662Y2240158D1*
Y2255906D1*
X1748032Y2248032D1*
G37*
X1907087D2*
D13*
X1887402D1*
G36*
X1848032D2*
X1887402Y2255906D1*
Y2240158D1*
X1848032Y2248032D1*
G37*
X1748032Y1805118D2*
D13*
Y2052362D1*
X1848032Y2005118D2*
Y2052362D1*
X1748032Y2032677D2*
X1848032D1*
X1688977D2*
X1708662D1*
G36*
X1748032D2*
X1708662Y2024803D1*
Y2040551D1*
X1748032Y2032677D1*
G37*
X1907087D2*
D13*
X1887402D1*
G36*
X1848032D2*
X1887402Y2040551D1*
Y2024803D1*
X1848032Y2032677D1*
G37*
X1748032Y1705118D2*
D13*
Y1964173D1*
X1848032Y1905118D2*
Y1964173D1*
X1748032Y1944488D2*
X1848032D1*
X1688977D2*
X1708662D1*
G36*
X1748032D2*
X1708662Y1936614D1*
Y1952362D1*
X1748032Y1944488D1*
G37*
X1907087D2*
D13*
X1887402D1*
G36*
X1848032D2*
X1887402Y1952362D1*
Y1936614D1*
X1848032Y1944488D1*
G37*
X1748032Y1605118D2*
D13*
Y1864961D1*
X1848032Y1805118D2*
Y1864961D1*
X1748032Y1845276D2*
X1848032D1*
X1688977D2*
X1708662D1*
G36*
X1748032D2*
X1708662Y1837402D1*
Y1853150D1*
X1748032Y1845276D1*
G37*
X1907087D2*
D13*
X1887402D1*
G36*
X1848032D2*
X1887402Y1853150D1*
Y1837402D1*
X1848032Y1845276D1*
G37*
X1748032Y1505118D2*
D13*
Y1757874D1*
X1848032Y1705118D2*
Y1757874D1*
X1748032Y1738189D2*
X1848032D1*
X1688977D2*
X1708662D1*
G36*
X1748032D2*
X1708662Y1730315D1*
Y1746063D1*
X1748032Y1738189D1*
G37*
X1907087D2*
D13*
X1887402D1*
G36*
X1848032D2*
X1887402Y1746063D1*
Y1730315D1*
X1848032Y1738189D1*
G37*
X1610630Y605118D2*
D13*
Y537008D1*
X1848032Y605118D2*
Y537008D1*
X1610630Y556693D2*
X1848032D1*
X1551575D2*
X1571260D1*
G36*
X1610630D2*
X1571260Y548819D1*
Y564567D1*
X1610630Y556693D1*
G37*
X1907087D2*
D13*
X1887402D1*
G36*
X1848032D2*
X1887402Y564567D1*
Y548819D1*
X1848032Y556693D1*
G37*
X810630Y605118D2*
D13*
Y507481D1*
X573229Y605118D2*
Y507481D1*
Y527166D2*
X810630D1*
X514173D2*
X533858D1*
G36*
X573229D2*
X533858Y519292D1*
Y535040D1*
X573229Y527166D1*
G37*
X869685D2*
D13*
X850000D1*
G36*
X810630D2*
X850000Y535040D1*
Y519292D1*
X810630Y527166D1*
G37*
Y2305118D2*
D13*
X703544D1*
X573229D2*
X742914D1*
X723229D2*
D3*
Y2364173D2*
Y2344488D1*
G36*
Y2305118D2*
X715355Y2344488D1*
X731103D1*
X723229Y2305118D1*
G37*
Y2246063D2*
D13*
Y2265748D1*
G36*
Y2305118D2*
X731103Y2265748D1*
X715355D1*
X723229Y2305118D1*
G37*
Y2371283D2*
D13*
Y2305118D1*
X1610630Y605118D2*
X2643701D1*
X1848032D2*
X2643701D1*
X2624016D2*
D3*
Y664173D2*
Y644488D1*
G36*
Y605118D2*
X2616142Y644488D1*
X2631890D1*
X2624016Y605118D1*
G37*
Y546063D2*
D13*
Y565748D1*
G36*
Y605118D2*
X2631890Y565748D1*
X2616142D1*
X2624016Y605118D1*
G37*
Y538954D2*
D13*
Y605118D1*
X1748032Y1405118D2*
Y1663780D1*
X1848032Y1605118D2*
Y1663780D1*
X1748032Y1644095D2*
X1848032D1*
X1688977D2*
X1708662D1*
G36*
X1748032D2*
X1708662Y1636221D1*
Y1651969D1*
X1748032Y1644095D1*
G37*
X1907087D2*
D13*
X1887402D1*
G36*
X1848032D2*
X1887402Y1651969D1*
Y1636221D1*
X1848032Y1644095D1*
G37*
X1748032Y1305118D2*
D13*
Y1561024D1*
X1848032Y1505118D2*
Y1561024D1*
X1748032Y1541339D2*
X1848032D1*
X1688977D2*
X1708662D1*
G36*
X1748032D2*
X1708662Y1533465D1*
Y1549213D1*
X1748032Y1541339D1*
G37*
X1907087D2*
D13*
X1887402D1*
G36*
X1848032D2*
X1887402Y1549213D1*
Y1533465D1*
X1848032Y1541339D1*
G37*
X1748032Y1205118D2*
D13*
Y1468504D1*
X1848032Y1405118D2*
Y1468504D1*
X1748032Y1448819D2*
X1848032D1*
X1688977D2*
X1708662D1*
G36*
X1748032D2*
X1708662Y1440945D1*
Y1456693D1*
X1748032Y1448819D1*
G37*
X1907087D2*
D13*
X1887402D1*
G36*
X1848032D2*
X1887402Y1456693D1*
Y1440945D1*
X1848032Y1448819D1*
G37*
X1748032Y1105118D2*
D13*
Y1363386D1*
X1848032Y1305118D2*
Y1363386D1*
X1748032Y1343701D2*
X1848032D1*
X1688977D2*
X1708662D1*
G36*
X1748032D2*
X1708662Y1335827D1*
Y1351575D1*
X1748032Y1343701D1*
G37*
X1907087D2*
D13*
X1887402D1*
G36*
X1848032D2*
X1887402Y1351575D1*
Y1335827D1*
X1848032Y1343701D1*
G37*
X1748032Y2305118D2*
D13*
X1672047D1*
X1848032D2*
X1672047D1*
X1691732D2*
D3*
Y2364173D2*
Y2344488D1*
G36*
Y2305118D2*
X1683858Y2344488D1*
X1699607D1*
X1691732Y2305118D1*
G37*
Y2246063D2*
D13*
Y2265748D1*
G36*
Y2305118D2*
X1699607Y2265748D1*
X1683858D1*
X1691732Y2305118D1*
G37*
Y2371283D2*
D13*
Y2305118D1*
X1848032Y2205118D2*
X1623229D1*
X1748032D2*
X1623229D1*
X1642914D2*
D3*
Y2264173D2*
Y2244488D1*
G36*
Y2205118D2*
X1635040Y2244488D1*
X1650788D1*
X1642914Y2205118D1*
G37*
Y2146063D2*
D13*
Y2165748D1*
G36*
Y2205118D2*
X1650788Y2165748D1*
X1635040D1*
X1642914Y2205118D1*
G37*
Y2271283D2*
D13*
Y2205118D1*
X1848032Y2005118D2*
X1716536D1*
X1748032Y1805118D2*
X1716536D1*
X1736221Y2005118D2*
Y1805118D1*
Y2064173D2*
Y2044488D1*
G36*
Y2005118D2*
X1728347Y2044488D1*
X1744095D1*
X1736221Y2005118D1*
G37*
Y1746063D2*
D13*
Y1765748D1*
G36*
Y1805118D2*
X1744095Y1765748D1*
X1728347D1*
X1736221Y1805118D1*
G37*
X1848032Y1905118D2*
D13*
X1664567D1*
X1748032Y1705118D2*
X1664567D1*
X1684252Y1905118D2*
Y1705118D1*
Y1964173D2*
Y1944488D1*
G36*
Y1905118D2*
X1676378Y1944488D1*
X1692126D1*
X1684252Y1905118D1*
G37*
Y1646063D2*
D13*
Y1665748D1*
G36*
Y1705118D2*
X1692126Y1665748D1*
X1676378D1*
X1684252Y1705118D1*
G37*
X1848032Y1805118D2*
D13*
X1594095D1*
X1748032Y1605118D2*
X1594095D1*
X1613780Y1805118D2*
Y1605118D1*
Y1864173D2*
Y1844488D1*
G36*
Y1805118D2*
X1605906Y1844488D1*
X1621654D1*
X1613780Y1805118D1*
G37*
Y1546063D2*
D13*
Y1565748D1*
G36*
Y1605118D2*
X1621654Y1565748D1*
X1605906D1*
X1613780Y1605118D1*
G37*
X1848032Y1705118D2*
D13*
X1545276D1*
X1748032Y1505118D2*
X1545276D1*
X1564961Y1705118D2*
Y1505118D1*
Y1764173D2*
Y1744488D1*
G36*
Y1705118D2*
X1557087Y1744488D1*
X1572835D1*
X1564961Y1705118D1*
G37*
Y1446063D2*
D13*
Y1465748D1*
G36*
Y1505118D2*
X1572835Y1465748D1*
X1557087D1*
X1564961Y1505118D1*
G37*
X1848032Y1605118D2*
D13*
X1498032D1*
X1748032Y1405118D2*
X1498032D1*
X1517717Y1605118D2*
Y1405118D1*
Y1664173D2*
Y1644488D1*
G36*
Y1605118D2*
X1509843Y1644488D1*
X1525591D1*
X1517717Y1605118D1*
G37*
Y1346063D2*
D13*
Y1365748D1*
G36*
Y1405118D2*
X1525591Y1365748D1*
X1509843D1*
X1517717Y1405118D1*
G37*
X1848032Y1505118D2*
D13*
X1456693D1*
X1748032Y1305118D2*
X1456693D1*
X1476378Y1505118D2*
Y1305118D1*
Y1564173D2*
Y1544488D1*
G36*
Y1505118D2*
X1468504Y1544488D1*
X1484252D1*
X1476378Y1505118D1*
G37*
Y1246063D2*
D13*
Y1265748D1*
G36*
Y1305118D2*
X1484252Y1265748D1*
X1468504D1*
X1476378Y1305118D1*
G37*
X1848032Y1405118D2*
D13*
X1400000D1*
X1748032Y1205118D2*
X1400000D1*
X1419685Y1405118D2*
Y1205118D1*
Y1464173D2*
Y1444488D1*
G36*
Y1405118D2*
X1411811Y1444488D1*
X1427559D1*
X1419685Y1405118D1*
G37*
Y1146063D2*
D13*
Y1165748D1*
G36*
Y1205118D2*
X1427559Y1165748D1*
X1411811D1*
X1419685Y1205118D1*
G37*
X1848032Y1305118D2*
D13*
X1366536D1*
X1748032Y1105118D2*
X1366536D1*
X1386221Y1305118D2*
Y1105118D1*
Y1364173D2*
Y1344488D1*
G36*
Y1305118D2*
X1378347Y1344488D1*
X1394095D1*
X1386221Y1305118D1*
G37*
Y1046063D2*
D13*
Y1065748D1*
G36*
Y1105118D2*
X1394095Y1065748D1*
X1378347D1*
X1386221Y1105118D1*
G37*
X1848032Y505118D2*
D13*
X2246457D1*
X1610630Y466929D2*
X2246457D1*
X2226772Y505118D2*
Y466929D1*
Y564173D2*
Y544488D1*
G36*
Y505118D2*
X2218898Y544488D1*
X2234646D1*
X2226772Y505118D1*
G37*
Y407874D2*
D13*
Y427559D1*
G36*
Y466929D2*
X2234646Y427559D1*
X2218898D1*
X2226772Y466929D1*
G37*
Y306319D2*
D13*
Y505118D1*
X810630Y466929D2*
Y333071D1*
X573229Y505118D2*
Y333071D1*
Y352756D2*
X810630D1*
X514173D2*
X533858D1*
G36*
X573229D2*
X533858Y344882D1*
Y360630D1*
X573229Y352756D1*
G37*
X869685D2*
D13*
X850000D1*
G36*
X810630D2*
X850000Y360630D1*
Y344882D1*
X810630Y352756D1*
G37*
X1610630Y466929D2*
D13*
Y299213D1*
X1848032Y505118D2*
Y299213D1*
X1610630Y318898D2*
X1848032D1*
X1551575D2*
X1571260D1*
G36*
X1610630D2*
X1571260Y311024D1*
Y326772D1*
X1610630Y318898D1*
G37*
X1907087D2*
D13*
X1887402D1*
G36*
X1848032D2*
X1887402Y326772D1*
Y311024D1*
X1848032Y318898D1*
G37*
X1121601Y225024D2*
D40*
X1125448Y226970D1*
X1131196Y232674D1*
Y192526D1*
X1145493Y223123D2*
Y225024D1*
X1147394Y228871D1*
X1149295Y230772D1*
X1153142Y232674D1*
X1160791D1*
X1164594Y230772D1*
X1166495Y228871D1*
X1168440Y225024D1*
Y221222D1*
X1166495Y217375D1*
X1162692Y211671D1*
X1143547Y192526D1*
X1170342D1*
X1190342D2*
X1209488Y232674D1*
X1182693D1*
X1240985Y192526D2*
Y232674D1*
X1221839Y205923D1*
X1250535D1*
X1264788Y196373D2*
X1262887Y194427D1*
X1264788Y192526D1*
X1266733Y194427D1*
X1264788Y196373D1*
X1288635Y232674D2*
X1282931Y230772D1*
X1280986Y226970D1*
Y223123D1*
X1282931Y219321D1*
X1286734Y217375D1*
X1294383Y215474D1*
X1300131Y213573D1*
X1303934Y209726D1*
X1305835Y205923D1*
Y200175D1*
X1303934Y196373D1*
X1302033Y194427D1*
X1296285Y192526D1*
X1288635D1*
X1282931Y194427D1*
X1280986Y196373D1*
X1279085Y200175D1*
Y205923D1*
X1280986Y209726D1*
X1284833Y213573D1*
X1290537Y215474D1*
X1298186Y217375D1*
X1302033Y219321D1*
X1303934Y223123D1*
Y226970D1*
X1302033Y230772D1*
X1296285Y232674D1*
X1288635D1*
X2491335Y444989D2*
X2489434Y450737D1*
X2483686Y454583D1*
X2474135Y456485D1*
X2468387D1*
X2458837Y454583D1*
X2453089Y450737D1*
X2451187Y444989D1*
Y441186D1*
X2453089Y435438D1*
X2458837Y431636D1*
X2468387Y429690D1*
X2474135D1*
X2483686Y431636D1*
X2489434Y435438D1*
X2491335Y441186D1*
Y444989D1*
X2483686Y431636D2*
X2458837Y454583D1*
X529511Y186227D2*
X548657Y226375D1*
X521862D1*
X585902Y213021D2*
X583956Y207273D1*
X580154Y203427D1*
X574406Y201525D1*
X572504D1*
X566756Y203427D1*
X562954Y207273D1*
X561008Y213021D1*
Y214923D1*
X562954Y220671D1*
X566756Y224473D1*
X572504Y226375D1*
X574406D1*
X580154Y224473D1*
X583956Y220671D1*
X585902Y213021D1*
Y203427D1*
X583956Y193876D1*
X580154Y188128D1*
X574406Y186227D1*
X570603D1*
X564855Y188128D1*
X562954Y191975D1*
X600154Y190073D2*
X598253Y188128D1*
X600154Y186227D1*
X602100Y188128D1*
X600154Y190073D1*
X637399Y226375D2*
X618298D1*
X616397Y209175D1*
X618298Y211076D1*
X624046Y213021D1*
X629750D1*
X635498Y211076D1*
X639345Y207273D1*
X641246Y201525D1*
Y197723D1*
X639345Y191975D1*
X635498Y188128D1*
X629750Y186227D1*
X624046D1*
X618298Y188128D1*
X616397Y190073D1*
X614451Y193876D1*
X2083842Y208668D2*
X2102988Y248815D1*
X2076193D1*
X2140232Y235462D2*
X2138287Y229714D1*
X2134484Y225868D1*
X2128736Y223966D1*
X2126835D1*
X2121087Y225868D1*
X2117284Y229714D1*
X2115339Y235462D1*
Y237364D1*
X2117284Y243112D1*
X2121087Y246914D1*
X2126835Y248815D1*
X2128736D1*
X2134484Y246914D1*
X2138287Y243112D1*
X2140232Y235462D1*
Y225868D1*
X2138287Y216317D1*
X2134484Y210569D1*
X2128736Y208668D1*
X2124934D1*
X2119186Y210569D1*
X2117284Y214416D1*
X2154485Y212514D2*
X2152584Y210569D1*
X2154485Y208668D1*
X2156431Y210569D1*
X2154485Y212514D1*
X2191730Y248815D2*
X2172629D1*
X2170727Y231616D1*
X2172629Y233517D1*
X2178377Y235462D1*
X2184081D1*
X2189829Y233517D1*
X2193675Y229714D1*
X2195577Y223966D1*
Y220164D1*
X2193675Y214416D1*
X2189829Y210569D1*
X2184081Y208668D1*
X2178377D1*
X2172629Y210569D1*
X2170727Y212514D1*
X2168782Y216317D1*
X919775Y350221D2*
X923621Y352167D1*
X929369Y357871D1*
Y317723D1*
X953217Y357871D2*
X947469Y355969D1*
X943622Y350221D1*
X941721Y340671D1*
Y334923D1*
X943622Y325372D1*
X947469Y319624D1*
X953217Y317723D1*
X957019D1*
X962767Y319624D1*
X966570Y325372D1*
X968515Y334923D1*
Y340671D1*
X966570Y350221D1*
X962767Y355969D1*
X957019Y357871D1*
X953217D1*
X966570Y350221D2*
X943622Y325372D1*
X992363Y357871D2*
X986615Y355969D1*
X982768Y350221D1*
X980867Y340671D1*
Y334923D1*
X982768Y325372D1*
X986615Y319624D1*
X992363Y317723D1*
X996165D1*
X1001913Y319624D1*
X1005716Y325372D1*
X1007661Y334923D1*
Y340671D1*
X1005716Y350221D1*
X1001913Y355969D1*
X996165Y357871D1*
X992363D1*
X1005716Y350221D2*
X982768Y325372D1*
X700567Y614263D2*
X698621Y618109D1*
X692917Y623858D1*
X733065D1*
X692917Y647705D2*
X694819Y641957D1*
X700567Y638110D1*
X710117Y636209D1*
X715865D1*
X725416Y638110D1*
X731164Y641957D1*
X733065Y647705D1*
Y651508D1*
X731164Y657256D1*
X725416Y661058D1*
X715865Y663004D1*
X710117D1*
X700567Y661058D1*
X694819Y657256D1*
X692917Y651508D1*
Y647705D1*
X700567Y661058D2*
X725416Y638110D1*
X692917Y686851D2*
X694819Y681103D1*
X700567Y677256D1*
X710117Y675355D1*
X715865D1*
X725416Y677256D1*
X731164Y681103D1*
X733065Y686851D1*
Y690654D1*
X731164Y696402D1*
X725416Y700204D1*
X715865Y702150D1*
X710117D1*
X700567Y700204D1*
X694819Y696402D1*
X692917Y690654D1*
Y686851D1*
X700567Y700204D2*
X725416Y677256D1*
X1757176Y2372662D2*
X1761023Y2374608D1*
X1766771Y2380312D1*
Y2340164D1*
X1790618Y2380312D2*
X1784870Y2378410D1*
X1781024Y2372662D1*
X1779122Y2363112D1*
Y2357364D1*
X1781024Y2347813D1*
X1784870Y2342065D1*
X1790618Y2340164D1*
X1794421D1*
X1800169Y2342065D1*
X1803971Y2347813D1*
X1805917Y2357364D1*
Y2363112D1*
X1803971Y2372662D1*
X1800169Y2378410D1*
X1794421Y2380312D1*
X1790618D1*
X1803971Y2372662D2*
X1781024Y2347813D1*
X1829764Y2380312D2*
X1824016Y2378410D1*
X1820170Y2372662D1*
X1818268Y2363112D1*
Y2357364D1*
X1820170Y2347813D1*
X1824016Y2342065D1*
X1829764Y2340164D1*
X1833567D1*
X1839315Y2342065D1*
X1843118Y2347813D1*
X1845063Y2357364D1*
Y2363112D1*
X1843118Y2372662D1*
X1839315Y2378410D1*
X1833567Y2380312D1*
X1829764D1*
X1843118Y2372662D2*
X1820170Y2347813D1*
X1757176Y2292741D2*
X1761023Y2294686D1*
X1766771Y2300390D1*
Y2260242D1*
X1790618Y2300390D2*
X1784870Y2298489D1*
X1781024Y2292741D1*
X1779122Y2283190D1*
Y2277442D1*
X1781024Y2267892D1*
X1784870Y2262144D1*
X1790618Y2260242D1*
X1794421D1*
X1800169Y2262144D1*
X1803971Y2267892D1*
X1805917Y2277442D1*
Y2283190D1*
X1803971Y2292741D1*
X1800169Y2298489D1*
X1794421Y2300390D1*
X1790618D1*
X1803971Y2292741D2*
X1781024Y2267892D1*
X1829764Y2300390D2*
X1824016Y2298489D1*
X1820170Y2292741D1*
X1818268Y2283190D1*
Y2277442D1*
X1820170Y2267892D1*
X1824016Y2262144D1*
X1829764Y2260242D1*
X1833567D1*
X1839315Y2262144D1*
X1843118Y2267892D1*
X1845063Y2277442D1*
Y2283190D1*
X1843118Y2292741D1*
X1839315Y2298489D1*
X1833567Y2300390D1*
X1829764D1*
X1843118Y2292741D2*
X1820170Y2267892D1*
X1757176Y2077387D2*
X1761023Y2079332D1*
X1766771Y2085036D1*
Y2044888D1*
X1790618Y2085036D2*
X1784870Y2083135D1*
X1781024Y2077387D1*
X1779122Y2067836D1*
Y2062088D1*
X1781024Y2052537D1*
X1784870Y2046789D1*
X1790618Y2044888D1*
X1794421D1*
X1800169Y2046789D1*
X1803971Y2052537D1*
X1805917Y2062088D1*
Y2067836D1*
X1803971Y2077387D1*
X1800169Y2083135D1*
X1794421Y2085036D1*
X1790618D1*
X1803971Y2077387D2*
X1781024Y2052537D1*
X1829764Y2085036D2*
X1824016Y2083135D1*
X1820170Y2077387D1*
X1818268Y2067836D1*
Y2062088D1*
X1820170Y2052537D1*
X1824016Y2046789D1*
X1829764Y2044888D1*
X1833567D1*
X1839315Y2046789D1*
X1843118Y2052537D1*
X1845063Y2062088D1*
Y2067836D1*
X1843118Y2077387D1*
X1839315Y2083135D1*
X1833567Y2085036D1*
X1829764D1*
X1843118Y2077387D2*
X1820170Y2052537D1*
X1757176Y1989198D2*
X1761023Y1991143D1*
X1766771Y1996847D1*
Y1956699D1*
X1790618Y1996847D2*
X1784870Y1994946D1*
X1781024Y1989198D1*
X1779122Y1979647D1*
Y1973899D1*
X1781024Y1964348D1*
X1784870Y1958600D1*
X1790618Y1956699D1*
X1794421D1*
X1800169Y1958600D1*
X1803971Y1964348D1*
X1805917Y1973899D1*
Y1979647D1*
X1803971Y1989198D1*
X1800169Y1994946D1*
X1794421Y1996847D1*
X1790618D1*
X1803971Y1989198D2*
X1781024Y1964348D1*
X1829764Y1996847D2*
X1824016Y1994946D1*
X1820170Y1989198D1*
X1818268Y1979647D1*
Y1973899D1*
X1820170Y1964348D1*
X1824016Y1958600D1*
X1829764Y1956699D1*
X1833567D1*
X1839315Y1958600D1*
X1843118Y1964348D1*
X1845063Y1973899D1*
Y1979647D1*
X1843118Y1989198D1*
X1839315Y1994946D1*
X1833567Y1996847D1*
X1829764D1*
X1843118Y1989198D2*
X1820170Y1964348D1*
X1757176Y1889985D2*
X1761023Y1891931D1*
X1766771Y1897634D1*
Y1857487D1*
X1790618Y1897634D2*
X1784870Y1895733D1*
X1781024Y1889985D1*
X1779122Y1880434D1*
Y1874686D1*
X1781024Y1865136D1*
X1784870Y1859388D1*
X1790618Y1857487D1*
X1794421D1*
X1800169Y1859388D1*
X1803971Y1865136D1*
X1805917Y1874686D1*
Y1880434D1*
X1803971Y1889985D1*
X1800169Y1895733D1*
X1794421Y1897634D1*
X1790618D1*
X1803971Y1889985D2*
X1781024Y1865136D1*
X1829764Y1897634D2*
X1824016Y1895733D1*
X1820170Y1889985D1*
X1818268Y1880434D1*
Y1874686D1*
X1820170Y1865136D1*
X1824016Y1859388D1*
X1829764Y1857487D1*
X1833567D1*
X1839315Y1859388D1*
X1843118Y1865136D1*
X1845063Y1874686D1*
Y1880434D1*
X1843118Y1889985D1*
X1839315Y1895733D1*
X1833567Y1897634D1*
X1829764D1*
X1843118Y1889985D2*
X1820170Y1865136D1*
X1757176Y1782898D2*
X1761023Y1784844D1*
X1766771Y1790548D1*
Y1750400D1*
X1790618Y1790548D2*
X1784870Y1788646D1*
X1781024Y1782898D1*
X1779122Y1773348D1*
Y1767600D1*
X1781024Y1758049D1*
X1784870Y1752301D1*
X1790618Y1750400D1*
X1794421D1*
X1800169Y1752301D1*
X1803971Y1758049D1*
X1805917Y1767600D1*
Y1773348D1*
X1803971Y1782898D1*
X1800169Y1788646D1*
X1794421Y1790548D1*
X1790618D1*
X1803971Y1782898D2*
X1781024Y1758049D1*
X1829764Y1790548D2*
X1824016Y1788646D1*
X1820170Y1782898D1*
X1818268Y1773348D1*
Y1767600D1*
X1820170Y1758049D1*
X1824016Y1752301D1*
X1829764Y1750400D1*
X1833567D1*
X1839315Y1752301D1*
X1843118Y1758049D1*
X1845063Y1767600D1*
Y1773348D1*
X1843118Y1782898D1*
X1839315Y1788646D1*
X1833567Y1790548D1*
X1829764D1*
X1843118Y1782898D2*
X1820170Y1758049D1*
X1653198Y599501D2*
Y601402D1*
X1655099Y605249D1*
X1657001Y607150D1*
X1660847Y609052D1*
X1668497D1*
X1672299Y607150D1*
X1674201Y605249D1*
X1676146Y601402D1*
Y597600D1*
X1674201Y593753D1*
X1670398Y588049D1*
X1651253Y568904D1*
X1678047D1*
X1694245Y609052D2*
X1715248D1*
X1703796Y593753D1*
X1709544D1*
X1713347Y591852D1*
X1715248Y589951D1*
X1717193Y584202D1*
Y580400D1*
X1715248Y574652D1*
X1711445Y570805D1*
X1705697Y568904D1*
X1699949D1*
X1694245Y570805D1*
X1692344Y572751D1*
X1690399Y576553D1*
X1737194Y568904D2*
X1756339Y609052D1*
X1729545D1*
X1770592Y572751D2*
X1768691Y570805D1*
X1770592Y568904D1*
X1772538Y570805D1*
X1770592Y572751D1*
X1804034Y568904D2*
Y609052D1*
X1784889Y582301D1*
X1813585D1*
X615797Y569974D2*
Y571875D1*
X617698Y575722D1*
X619599Y577623D1*
X623446Y579524D1*
X631095D1*
X634898Y577623D1*
X636799Y575722D1*
X638744Y571875D1*
Y568072D1*
X636799Y564226D1*
X632996Y558522D1*
X613851Y539376D1*
X640646D1*
X656844Y579524D2*
X677846D1*
X666394Y564226D1*
X672142D1*
X675945Y562324D1*
X677846Y560423D1*
X679792Y554675D1*
Y550872D1*
X677846Y545124D1*
X674044Y541278D1*
X668296Y539376D1*
X662548D1*
X656844Y541278D1*
X654943Y543223D1*
X652997Y547026D1*
X699792Y539376D2*
X718938Y579524D1*
X692143D1*
X733191Y543223D2*
X731289Y541278D1*
X733191Y539376D1*
X735136Y541278D1*
X733191Y543223D1*
X766633Y539376D2*
Y579524D1*
X747487Y552774D1*
X776183D1*
X670870Y2365248D2*
X672771Y2359500D1*
X678519Y2355653D1*
X688070Y2353752D1*
X693818D1*
X703368Y2355653D1*
X709117Y2359500D1*
X711018Y2365248D1*
Y2369051D1*
X709117Y2374799D1*
X703368Y2378601D1*
X693818Y2380547D1*
X688070D1*
X678519Y2378601D1*
X672771Y2374799D1*
X670870Y2369051D1*
Y2365248D1*
X678519Y2378601D2*
X703368Y2355653D1*
X2676375Y544989D2*
X2674473Y550737D1*
X2668725Y554583D1*
X2659175Y556485D1*
X2653427D1*
X2643876Y554583D1*
X2638128Y550737D1*
X2636227Y544989D1*
Y541186D1*
X2638128Y535438D1*
X2643876Y531636D1*
X2653427Y529690D1*
X2659175D1*
X2668725Y531636D1*
X2674473Y535438D1*
X2676375Y541186D1*
Y544989D1*
X2668725Y531636D2*
X2643876Y554583D1*
X1757176Y1688804D2*
X1761023Y1690749D1*
X1766771Y1696453D1*
Y1656305D1*
X1790618Y1696453D2*
X1784870Y1694552D1*
X1781024Y1688804D1*
X1779122Y1679253D1*
Y1673505D1*
X1781024Y1663955D1*
X1784870Y1658207D1*
X1790618Y1656305D1*
X1794421D1*
X1800169Y1658207D1*
X1803971Y1663955D1*
X1805917Y1673505D1*
Y1679253D1*
X1803971Y1688804D1*
X1800169Y1694552D1*
X1794421Y1696453D1*
X1790618D1*
X1803971Y1688804D2*
X1781024Y1663955D1*
X1829764Y1696453D2*
X1824016Y1694552D1*
X1820170Y1688804D1*
X1818268Y1679253D1*
Y1673505D1*
X1820170Y1663955D1*
X1824016Y1658207D1*
X1829764Y1656305D1*
X1833567D1*
X1839315Y1658207D1*
X1843118Y1663955D1*
X1845063Y1673505D1*
Y1679253D1*
X1843118Y1688804D1*
X1839315Y1694552D1*
X1833567Y1696453D1*
X1829764D1*
X1843118Y1688804D2*
X1820170Y1663955D1*
X1757176Y1586048D2*
X1761023Y1587994D1*
X1766771Y1593697D1*
Y1553550D1*
X1790618Y1593697D2*
X1784870Y1591796D1*
X1781024Y1586048D1*
X1779122Y1576497D1*
Y1570749D1*
X1781024Y1561199D1*
X1784870Y1555451D1*
X1790618Y1553550D1*
X1794421D1*
X1800169Y1555451D1*
X1803971Y1561199D1*
X1805917Y1570749D1*
Y1576497D1*
X1803971Y1586048D1*
X1800169Y1591796D1*
X1794421Y1593697D1*
X1790618D1*
X1803971Y1586048D2*
X1781024Y1561199D1*
X1829764Y1593697D2*
X1824016Y1591796D1*
X1820170Y1586048D1*
X1818268Y1576497D1*
Y1570749D1*
X1820170Y1561199D1*
X1824016Y1555451D1*
X1829764Y1553550D1*
X1833567D1*
X1839315Y1555451D1*
X1843118Y1561199D1*
X1845063Y1570749D1*
Y1576497D1*
X1843118Y1586048D1*
X1839315Y1591796D1*
X1833567Y1593697D1*
X1829764D1*
X1843118Y1586048D2*
X1820170Y1561199D1*
X1757176Y1493528D2*
X1761023Y1495474D1*
X1766771Y1501178D1*
Y1461030D1*
X1790618Y1501178D2*
X1784870Y1499276D1*
X1781024Y1493528D1*
X1779122Y1483978D1*
Y1478230D1*
X1781024Y1468679D1*
X1784870Y1462931D1*
X1790618Y1461030D1*
X1794421D1*
X1800169Y1462931D1*
X1803971Y1468679D1*
X1805917Y1478230D1*
Y1483978D1*
X1803971Y1493528D1*
X1800169Y1499276D1*
X1794421Y1501178D1*
X1790618D1*
X1803971Y1493528D2*
X1781024Y1468679D1*
X1829764Y1501178D2*
X1824016Y1499276D1*
X1820170Y1493528D1*
X1818268Y1483978D1*
Y1478230D1*
X1820170Y1468679D1*
X1824016Y1462931D1*
X1829764Y1461030D1*
X1833567D1*
X1839315Y1462931D1*
X1843118Y1468679D1*
X1845063Y1478230D1*
Y1483978D1*
X1843118Y1493528D1*
X1839315Y1499276D1*
X1833567Y1501178D1*
X1829764D1*
X1843118Y1493528D2*
X1820170Y1468679D1*
X1757176Y1388410D2*
X1761023Y1390356D1*
X1766771Y1396060D1*
Y1355912D1*
X1790618Y1396060D2*
X1784870Y1394158D1*
X1781024Y1388410D1*
X1779122Y1378860D1*
Y1373112D1*
X1781024Y1363561D1*
X1784870Y1357813D1*
X1790618Y1355912D1*
X1794421D1*
X1800169Y1357813D1*
X1803971Y1363561D1*
X1805917Y1373112D1*
Y1378860D1*
X1803971Y1388410D1*
X1800169Y1394158D1*
X1794421Y1396060D1*
X1790618D1*
X1803971Y1388410D2*
X1781024Y1363561D1*
X1829764Y1396060D2*
X1824016Y1394158D1*
X1820170Y1388410D1*
X1818268Y1378860D1*
Y1373112D1*
X1820170Y1363561D1*
X1824016Y1357813D1*
X1829764Y1355912D1*
X1833567D1*
X1839315Y1357813D1*
X1843118Y1363561D1*
X1845063Y1373112D1*
Y1378860D1*
X1843118Y1388410D1*
X1839315Y1394158D1*
X1833567Y1396060D1*
X1829764D1*
X1843118Y1388410D2*
X1820170Y1363561D1*
X1639374Y2365248D2*
X1641275Y2359500D1*
X1647023Y2355653D1*
X1656574Y2353752D1*
X1662322D1*
X1671872Y2355653D1*
X1677620Y2359500D1*
X1679522Y2365248D1*
Y2369051D1*
X1677620Y2374799D1*
X1671872Y2378601D1*
X1662322Y2380547D1*
X1656574D1*
X1647023Y2378601D1*
X1641275Y2374799D1*
X1639374Y2369051D1*
Y2365248D1*
X1647023Y2378601D2*
X1671872Y2355653D1*
X1590555Y2265248D2*
X1592456Y2259500D1*
X1598204Y2255653D1*
X1607755Y2253752D1*
X1613503D1*
X1623054Y2255653D1*
X1628802Y2259500D1*
X1630703Y2265248D1*
Y2269051D1*
X1628802Y2274799D1*
X1623054Y2278601D1*
X1613503Y2280547D1*
X1607755D1*
X1598204Y2278601D1*
X1592456Y2274799D1*
X1590555Y2269051D1*
Y2265248D1*
X1598204Y2278601D2*
X1623054Y2255653D1*
X1693413Y1857608D2*
X1691511D1*
X1687665Y1859510D1*
X1685763Y1861411D1*
X1683862Y1865258D1*
Y1872907D1*
X1685763Y1876709D1*
X1687665Y1878611D1*
X1691511Y1880556D1*
X1695314D1*
X1699161Y1878611D1*
X1704865Y1874808D1*
X1724010Y1855663D1*
Y1882457D1*
X1683862Y1906305D2*
X1685763Y1900557D1*
X1691511Y1896710D1*
X1701062Y1894809D1*
X1706810D1*
X1716361Y1896710D1*
X1722109Y1900557D1*
X1724010Y1906305D1*
Y1910107D1*
X1722109Y1915855D1*
X1716361Y1919658D1*
X1706810Y1921604D1*
X1701062D1*
X1691511Y1919658D1*
X1685763Y1915855D1*
X1683862Y1910107D1*
Y1906305D1*
X1691511Y1919658D2*
X1716361Y1896710D1*
X1683862Y1945451D2*
X1685763Y1939703D1*
X1691511Y1935856D1*
X1701062Y1933955D1*
X1706810D1*
X1716361Y1935856D1*
X1722109Y1939703D1*
X1724010Y1945451D1*
Y1949254D1*
X1722109Y1955002D1*
X1716361Y1958804D1*
X1706810Y1960750D1*
X1701062D1*
X1691511Y1958804D1*
X1685763Y1955002D1*
X1683862Y1949254D1*
Y1945451D1*
X1691511Y1958804D2*
X1716361Y1935856D1*
X1641444Y1757608D2*
X1639543D1*
X1635696Y1759510D1*
X1633795Y1761411D1*
X1631894Y1765258D1*
Y1772907D1*
X1633795Y1776709D1*
X1635696Y1778611D1*
X1639543Y1780556D1*
X1643345D1*
X1647192Y1778611D1*
X1652896Y1774808D1*
X1672041Y1755663D1*
Y1782457D1*
X1631894Y1806305D2*
X1633795Y1800557D1*
X1639543Y1796710D1*
X1649094Y1794809D1*
X1654842D1*
X1664392Y1796710D1*
X1670140Y1800557D1*
X1672041Y1806305D1*
Y1810107D1*
X1670140Y1815855D1*
X1664392Y1819658D1*
X1654842Y1821604D1*
X1649094D1*
X1639543Y1819658D1*
X1633795Y1815855D1*
X1631894Y1810107D1*
Y1806305D1*
X1639543Y1819658D2*
X1664392Y1796710D1*
X1631894Y1845451D2*
X1633795Y1839703D1*
X1639543Y1835856D1*
X1649094Y1833955D1*
X1654842D1*
X1664392Y1835856D1*
X1670140Y1839703D1*
X1672041Y1845451D1*
Y1849254D1*
X1670140Y1855002D1*
X1664392Y1858804D1*
X1654842Y1860750D1*
X1649094D1*
X1639543Y1858804D1*
X1633795Y1855002D1*
X1631894Y1849254D1*
Y1845451D1*
X1639543Y1858804D2*
X1664392Y1835856D1*
X1570972Y1657608D2*
X1569070D1*
X1565224Y1659510D1*
X1563322Y1661411D1*
X1561421Y1665258D1*
Y1672907D1*
X1563322Y1676709D1*
X1565224Y1678611D1*
X1569070Y1680556D1*
X1572873D1*
X1576720Y1678611D1*
X1582424Y1674808D1*
X1601569Y1655663D1*
Y1682457D1*
X1561421Y1706305D2*
X1563322Y1700557D1*
X1569070Y1696710D1*
X1578621Y1694809D1*
X1584369D1*
X1593920Y1696710D1*
X1599668Y1700557D1*
X1601569Y1706305D1*
Y1710107D1*
X1599668Y1715855D1*
X1593920Y1719658D1*
X1584369Y1721604D1*
X1578621D1*
X1569070Y1719658D1*
X1563322Y1715855D1*
X1561421Y1710107D1*
Y1706305D1*
X1569070Y1719658D2*
X1593920Y1696710D1*
X1561421Y1745451D2*
X1563322Y1739703D1*
X1569070Y1735856D1*
X1578621Y1733955D1*
X1584369D1*
X1593920Y1735856D1*
X1599668Y1739703D1*
X1601569Y1745451D1*
Y1749254D1*
X1599668Y1755002D1*
X1593920Y1758804D1*
X1584369Y1760750D1*
X1578621D1*
X1569070Y1758804D1*
X1563322Y1755002D1*
X1561421Y1749254D1*
Y1745451D1*
X1569070Y1758804D2*
X1593920Y1735856D1*
X1522153Y1557608D2*
X1520252D1*
X1516405Y1559510D1*
X1514504Y1561411D1*
X1512602Y1565258D1*
Y1572907D1*
X1514504Y1576709D1*
X1516405Y1578611D1*
X1520252Y1580556D1*
X1524054D1*
X1527901Y1578611D1*
X1533605Y1574808D1*
X1552750Y1555663D1*
Y1582457D1*
X1512602Y1606305D2*
X1514504Y1600557D1*
X1520252Y1596710D1*
X1529802Y1594809D1*
X1535550D1*
X1545101Y1596710D1*
X1550849Y1600557D1*
X1552750Y1606305D1*
Y1610107D1*
X1550849Y1615855D1*
X1545101Y1619658D1*
X1535550Y1621604D1*
X1529802D1*
X1520252Y1619658D1*
X1514504Y1615855D1*
X1512602Y1610107D1*
Y1606305D1*
X1520252Y1619658D2*
X1545101Y1596710D1*
X1512602Y1645451D2*
X1514504Y1639703D1*
X1520252Y1635856D1*
X1529802Y1633955D1*
X1535550D1*
X1545101Y1635856D1*
X1550849Y1639703D1*
X1552750Y1645451D1*
Y1649254D1*
X1550849Y1655002D1*
X1545101Y1658804D1*
X1535550Y1660750D1*
X1529802D1*
X1520252Y1658804D1*
X1514504Y1655002D1*
X1512602Y1649254D1*
Y1645451D1*
X1520252Y1658804D2*
X1545101Y1635856D1*
X1474909Y1457608D2*
X1473008D1*
X1469161Y1459510D1*
X1467259Y1461411D1*
X1465358Y1465258D1*
Y1472907D1*
X1467259Y1476709D1*
X1469161Y1478611D1*
X1473008Y1480556D1*
X1476810D1*
X1480657Y1478611D1*
X1486361Y1474808D1*
X1505506Y1455663D1*
Y1482457D1*
X1465358Y1506305D2*
X1467259Y1500557D1*
X1473008Y1496710D1*
X1482558Y1494809D1*
X1488306D1*
X1497857Y1496710D1*
X1503605Y1500557D1*
X1505506Y1506305D1*
Y1510107D1*
X1503605Y1515855D1*
X1497857Y1519658D1*
X1488306Y1521604D1*
X1482558D1*
X1473008Y1519658D1*
X1467259Y1515855D1*
X1465358Y1510107D1*
Y1506305D1*
X1473008Y1519658D2*
X1497857Y1496710D1*
X1465358Y1545451D2*
X1467259Y1539703D1*
X1473008Y1535856D1*
X1482558Y1533955D1*
X1488306D1*
X1497857Y1535856D1*
X1503605Y1539703D1*
X1505506Y1545451D1*
Y1549254D1*
X1503605Y1555002D1*
X1497857Y1558804D1*
X1488306Y1560750D1*
X1482558D1*
X1473008Y1558804D1*
X1467259Y1555002D1*
X1465358Y1549254D1*
Y1545451D1*
X1473008Y1558804D2*
X1497857Y1535856D1*
X1433570Y1357608D2*
X1431669D1*
X1427822Y1359510D1*
X1425921Y1361411D1*
X1424020Y1365258D1*
Y1372907D1*
X1425921Y1376709D1*
X1427822Y1378611D1*
X1431669Y1380556D1*
X1435471D1*
X1439318Y1378611D1*
X1445022Y1374808D1*
X1464167Y1355663D1*
Y1382457D1*
X1424020Y1406305D2*
X1425921Y1400557D1*
X1431669Y1396710D1*
X1441219Y1394809D1*
X1446968D1*
X1456518Y1396710D1*
X1462266Y1400557D1*
X1464167Y1406305D1*
Y1410107D1*
X1462266Y1415855D1*
X1456518Y1419658D1*
X1446968Y1421604D1*
X1441219D1*
X1431669Y1419658D1*
X1425921Y1415855D1*
X1424020Y1410107D1*
Y1406305D1*
X1431669Y1419658D2*
X1456518Y1396710D1*
X1424020Y1445451D2*
X1425921Y1439703D1*
X1431669Y1435856D1*
X1441219Y1433955D1*
X1446968D1*
X1456518Y1435856D1*
X1462266Y1439703D1*
X1464167Y1445451D1*
Y1449254D1*
X1462266Y1455002D1*
X1456518Y1458804D1*
X1446968Y1460750D1*
X1441219D1*
X1431669Y1458804D1*
X1425921Y1455002D1*
X1424020Y1449254D1*
Y1445451D1*
X1431669Y1458804D2*
X1456518Y1435856D1*
X1376877Y1257608D2*
X1374976D1*
X1371129Y1259510D1*
X1369228Y1261411D1*
X1367327Y1265258D1*
Y1272907D1*
X1369228Y1276709D1*
X1371129Y1278611D1*
X1374976Y1280556D1*
X1378779D1*
X1382625Y1278611D1*
X1388329Y1274808D1*
X1407474Y1255663D1*
Y1282457D1*
X1367327Y1306305D2*
X1369228Y1300557D1*
X1374976Y1296710D1*
X1384527Y1294809D1*
X1390275D1*
X1399825Y1296710D1*
X1405573Y1300557D1*
X1407474Y1306305D1*
Y1310107D1*
X1405573Y1315855D1*
X1399825Y1319658D1*
X1390275Y1321604D1*
X1384527D1*
X1374976Y1319658D1*
X1369228Y1315855D1*
X1367327Y1310107D1*
Y1306305D1*
X1374976Y1319658D2*
X1399825Y1296710D1*
X1367327Y1345451D2*
X1369228Y1339703D1*
X1374976Y1335856D1*
X1384527Y1333955D1*
X1390275D1*
X1399825Y1335856D1*
X1405573Y1339703D1*
X1407474Y1345451D1*
Y1349254D1*
X1405573Y1355002D1*
X1399825Y1358804D1*
X1390275Y1360750D1*
X1384527D1*
X1374976Y1358804D1*
X1369228Y1355002D1*
X1367327Y1349254D1*
Y1345451D1*
X1374976Y1358804D2*
X1399825Y1335856D1*
X1343413Y1157608D2*
X1341511D1*
X1337665Y1159510D1*
X1335763Y1161411D1*
X1333862Y1165258D1*
Y1172907D1*
X1335763Y1176709D1*
X1337665Y1178611D1*
X1341511Y1180556D1*
X1345314D1*
X1349161Y1178611D1*
X1354865Y1174808D1*
X1374010Y1155663D1*
Y1182457D1*
X1333862Y1206305D2*
X1335763Y1200557D1*
X1341511Y1196710D1*
X1351062Y1194809D1*
X1356810D1*
X1366361Y1196710D1*
X1372109Y1200557D1*
X1374010Y1206305D1*
Y1210107D1*
X1372109Y1215855D1*
X1366361Y1219658D1*
X1356810Y1221604D1*
X1351062D1*
X1341511Y1219658D1*
X1335763Y1215855D1*
X1333862Y1210107D1*
Y1206305D1*
X1341511Y1219658D2*
X1366361Y1196710D1*
X1333862Y1245451D2*
X1335763Y1239703D1*
X1341511Y1235856D1*
X1351062Y1233955D1*
X1356810D1*
X1366361Y1235856D1*
X1372109Y1239703D1*
X1374010Y1245451D1*
Y1249254D1*
X1372109Y1255002D1*
X1366361Y1258804D1*
X1356810Y1260750D1*
X1351062D1*
X1341511Y1258804D1*
X1335763Y1255002D1*
X1333862Y1249254D1*
Y1245451D1*
X1341511Y1258804D2*
X1366361Y1235856D1*
X2279130Y414449D2*
Y393447D1*
X2263832Y404898D1*
Y399150D1*
X2261931Y395348D1*
X2260029Y393447D1*
X2254281Y391501D1*
X2250479D1*
X2244731Y393447D1*
X2240884Y397249D1*
X2238983Y402997D1*
Y408745D1*
X2240884Y414449D1*
X2242829Y416350D1*
X2246632Y418296D1*
X2279130Y369599D2*
X2277229Y375303D1*
X2273427Y377248D1*
X2269580D1*
X2265777Y375303D1*
X2263832Y371500D1*
X2261931Y363851D1*
X2260029Y358103D1*
X2256183Y354300D1*
X2252380Y352399D1*
X2246632D1*
X2242829Y354300D1*
X2240884Y356202D1*
X2238983Y361950D1*
Y369599D1*
X2240884Y375303D1*
X2242829Y377248D1*
X2246632Y379150D1*
X2252380D1*
X2256183Y377248D1*
X2260029Y373402D1*
X2261931Y367698D1*
X2263832Y360049D1*
X2265777Y356202D1*
X2269580Y354300D1*
X2273427D1*
X2277229Y356202D1*
X2279130Y361950D1*
Y369599D1*
X2242829Y338147D2*
X2240884Y340048D1*
X2238983Y338147D1*
X2240884Y336201D1*
X2242829Y338147D1*
X2269580Y321904D2*
X2271481D1*
X2275328Y320003D1*
X2277229Y318102D1*
X2279130Y314255D1*
Y306606D1*
X2277229Y302803D1*
X2275328Y300902D1*
X2271481Y298956D1*
X2267679D1*
X2263832Y300902D1*
X2258128Y304704D1*
X2238983Y323850D1*
Y297055D1*
X615797Y395564D2*
Y397465D1*
X617698Y401312D1*
X619599Y403213D1*
X623446Y405115D1*
X631095D1*
X634898Y403213D1*
X636799Y401312D1*
X638744Y397465D1*
Y393663D1*
X636799Y389816D1*
X632996Y384112D1*
X613851Y364967D1*
X640646D1*
X656844Y405115D2*
X677846D1*
X666394Y389816D1*
X672142D1*
X675945Y387915D1*
X677846Y386014D1*
X679792Y380265D1*
Y376463D1*
X677846Y370715D1*
X674044Y366868D1*
X668296Y364967D1*
X662548D1*
X656844Y366868D1*
X654943Y368814D1*
X652997Y372616D1*
X699792Y364967D2*
X718938Y405115D1*
X692143D1*
X733191Y368814D2*
X731289Y366868D1*
X733191Y364967D1*
X735136Y366868D1*
X733191Y368814D1*
X766633Y364967D2*
Y405115D1*
X747487Y378364D1*
X776183D1*
X1653198Y361706D2*
Y363607D1*
X1655099Y367454D1*
X1657001Y369355D1*
X1660847Y371256D1*
X1668497D1*
X1672299Y369355D1*
X1674201Y367454D1*
X1676146Y363607D1*
Y359805D1*
X1674201Y355958D1*
X1670398Y350254D1*
X1651253Y331109D1*
X1678047D1*
X1694245Y371256D2*
X1715248D1*
X1703796Y355958D1*
X1709544D1*
X1713347Y354057D1*
X1715248Y352155D1*
X1717193Y346407D1*
Y342605D1*
X1715248Y336857D1*
X1711445Y333010D1*
X1705697Y331109D1*
X1699949D1*
X1694245Y333010D1*
X1692344Y334955D1*
X1690399Y338758D1*
X1737194Y331109D2*
X1756339Y371256D1*
X1729545D1*
X1770592Y334955D2*
X1768691Y333010D1*
X1770592Y331109D1*
X1772538Y333010D1*
X1770592Y334955D1*
X1804034Y331109D2*
Y371256D1*
X1784889Y344506D1*
X1813585D1*
M02*
