G04 DipTrace 3.0.0.1*
G04 TopSilk.gbr*
%MOIN*%
G04 #@! TF.FileFunction,Legend,Top*
G04 #@! TF.Part,Single*
%ADD10C,0.009843*%
%ADD12C,0.002992*%
%ADD37C,0.004632*%
%ADD38C,0.003088*%
%ADD39C,0.009264*%
%FSLAX26Y26*%
G04*
G70*
G90*
G75*
G01*
G04 TopSilk*
%LPD*%
X423229Y455118D2*
D10*
X623229D1*
X423229Y2455118D2*
X623229D1*
Y455118D1*
X423229Y2455118D2*
Y455118D1*
X1798032D2*
X1998032D1*
X1798032Y2455118D2*
X1998032D1*
Y455118D1*
X1798032Y2455118D2*
Y455118D1*
X1196058Y2445827D2*
D12*
X1228970D1*
X1195572Y2442835D2*
X1229456D1*
X1194585Y2439843D2*
X1230443D1*
X1145194Y2436851D2*
X1148186D1*
X1193136D2*
X1231893D1*
X1276842D2*
X1279834D1*
X1141077Y2433859D2*
X1155562D1*
X1189413D2*
X1235615D1*
X1269466D2*
X1283951D1*
X1136940Y2430867D2*
X1162471D1*
X1184188D2*
X1240840D1*
X1262557D2*
X1288089D1*
X1133278Y2427875D2*
X1169130D1*
X1178106D2*
X1246922D1*
X1255898D2*
X1291750D1*
X1130299Y2424883D2*
X1294729D1*
X1129175Y2421891D2*
X1295854D1*
X1131224Y2418899D2*
X1293804D1*
X1133665Y2415907D2*
X1291363D1*
X1136395Y2412915D2*
X1288634D1*
X1139273Y2409923D2*
X1285755D1*
X1142202Y2406931D2*
X1282826D1*
X1140289Y2403939D2*
X1284740D1*
X1138010Y2400947D2*
X1287019D1*
X1135011Y2397955D2*
X1290017D1*
X1127780Y2394963D2*
X1196658D1*
X1228370D2*
X1297249D1*
X1119782Y2391971D2*
X1192021D1*
X1233007D2*
X1305246D1*
X1113383Y2388979D2*
X1188411D1*
X1236618D2*
X1311646D1*
X1108808Y2385987D2*
X1185674D1*
X1239355D2*
X1316220D1*
X1107472Y2382995D2*
X1183354D1*
X1241674D2*
X1317557D1*
X1106792Y2380003D2*
X1181098D1*
X1243930D2*
X1318236D1*
X1106691Y2377011D2*
X1183067D1*
X1241961D2*
X1318337D1*
X1107069Y2374019D2*
X1185180D1*
X1239848D2*
X1317959D1*
X1110405Y2371027D2*
X1187711D1*
X1237318D2*
X1314623D1*
X1118208Y2368035D2*
X1190793D1*
X1234235D2*
X1306821D1*
X1125926Y2365043D2*
X1194394D1*
X1230634D2*
X1299102D1*
X1131699Y2362051D2*
X1198221D1*
X1226807D2*
X1293329D1*
X1135793Y2359059D2*
X1202042D1*
X1222986D2*
X1289236D1*
X1139113Y2356067D2*
X1199513D1*
X1225516D2*
X1285915D1*
X1142202Y2353075D2*
X1197274D1*
X1227754D2*
X1282826D1*
X1139210Y2350083D2*
X1195162D1*
X1229866D2*
X1285818D1*
X1136230Y2347091D2*
X1193087D1*
X1231941D2*
X1288798D1*
X1133366Y2344099D2*
X1191195D1*
X1233834D2*
X1291662D1*
X1131001Y2341107D2*
X1189478D1*
X1235550D2*
X1294027D1*
X1129258Y2338115D2*
X1187778D1*
X1237251D2*
X1295770D1*
X1129054Y2335123D2*
X1185859D1*
X1239170D2*
X1295975D1*
X1132303Y2332131D2*
X1183574D1*
X1241455D2*
X1292725D1*
X1136141Y2329139D2*
X1163146D1*
X1178106D2*
X1181098D1*
X1243930D2*
X1246922D1*
X1261882D2*
X1288887D1*
X1140516Y2326147D2*
X1157162D1*
X1267866D2*
X1284513D1*
X1145194Y2323155D2*
X1151178D1*
X1273850D2*
X1279834D1*
X1079370Y2308195D2*
X1094330D1*
X1103306D2*
X1121258D1*
X1136218D2*
X1148186D1*
X1160154D2*
X1178106D1*
X1202042D2*
X1217002D1*
X1228970D2*
X1243930D1*
X1252906D2*
X1258890D1*
X1270858D2*
X1276842D1*
X1282826D2*
X1300778D1*
X1306762D2*
X1321722D1*
X1330698D2*
X1345658D1*
X1079370Y2305203D2*
X1095711D1*
X1103306D2*
X1124250D1*
X1133226D2*
X1150590D1*
X1160154D2*
X1179487D1*
X1200575D2*
X1219994D1*
X1227578D2*
X1245520D1*
X1252906D2*
X1258890D1*
X1270858D2*
X1276842D1*
X1282826D2*
X1345658D1*
X1079370Y2302211D2*
X1082362D1*
X1091338D2*
X1096559D1*
X1103306D2*
X1109290D1*
X1117716D2*
X1136218D1*
X1145194D2*
X1152328D1*
X1160154D2*
X1166726D1*
X1175114D2*
X1180347D1*
X1200432D2*
X1208026D1*
X1217002D2*
D3*
X1226653D2*
X1231962D1*
X1240388D2*
X1246922D1*
X1252906D2*
X1258890D1*
X1270858D2*
X1276842D1*
X1282826D2*
X1288810D1*
X1300904D2*
X1309754D1*
X1318730D2*
X1321722D1*
X1327706D2*
X1333690D1*
X1342666D2*
X1345658D1*
X1079370Y2299219D2*
D3*
X1091338D2*
X1096880D1*
X1103306D2*
X1109290D1*
X1119658D2*
X1153497D1*
X1160154D2*
X1164976D1*
X1175114D2*
X1180781D1*
X1202427D2*
X1219994D1*
X1225978D2*
X1231962D1*
X1242330D2*
X1258890D1*
X1270858D2*
X1276842D1*
X1282826D2*
X1288810D1*
X1301403D2*
X1306762D1*
X1327706D2*
X1345658D1*
X1079370Y2296227D2*
X1082362D1*
X1091338D2*
X1096611D1*
X1103306D2*
X1109290D1*
X1121258D2*
X1153311D1*
X1160154D2*
X1163971D1*
X1175114D2*
X1180975D1*
X1205034D2*
X1231962D1*
X1243930D2*
X1258890D1*
X1270858D2*
X1276842D1*
X1282826D2*
X1288810D1*
X1302608D2*
X1309754D1*
X1327706D2*
X1345658D1*
X1079370Y2293235D2*
X1095668D1*
X1103306D2*
X1152453D1*
X1160154D2*
X1163462D1*
X1175114D2*
X1181055D1*
X1201855D2*
X1246922D1*
X1252906D2*
X1276842D1*
X1282826D2*
X1288810D1*
X1304522D2*
X1345658D1*
X1079370Y2290243D2*
X1094330D1*
X1103306D2*
X1124250D1*
X1133226D2*
X1151178D1*
X1160154D2*
X1163146D1*
X1175114D2*
X1181098D1*
X1199050D2*
X1219994D1*
X1228970D2*
X1246922D1*
X1255898D2*
X1276842D1*
X1282826D2*
X1288810D1*
X1306762D2*
X1324714D1*
X1330698D2*
X1345658D1*
X1103306Y2287251D2*
X1109290D1*
X1103306Y2284259D2*
X1110739D1*
X1196058D2*
X1202042D1*
X1103306Y2281267D2*
X1114590D1*
X1190448D2*
X1205573D1*
X1103306Y2278275D2*
X1118889D1*
X1133226D2*
X1151178D1*
X1160154D2*
X1178106D1*
X1184090D2*
X1208987D1*
X1222986D2*
X1228970D1*
X1240938D2*
X1264874D1*
X1276842D2*
X1294794D1*
X1300778D2*
X1312746D1*
X1103306Y2275283D2*
X1122535D1*
X1134629D2*
X1152559D1*
X1160154D2*
X1211860D1*
X1221936D2*
X1230373D1*
X1239349D2*
X1266255D1*
X1276842D2*
X1315508D1*
X1103306Y2272291D2*
X1112869D1*
X1117679D2*
X1125174D1*
X1136218D2*
D3*
X1148186D2*
X1153419D1*
X1160154D2*
X1166138D1*
X1178229D2*
X1187632D1*
X1196058D2*
X1202042D1*
X1208491D2*
X1213070D1*
X1220919D2*
X1231962D1*
X1237946D2*
X1244395D1*
X1254081D2*
X1252906D1*
X1264874D2*
X1267115D1*
X1276842D2*
X1283413D1*
X1294917D2*
X1303770D1*
X1312746D2*
X1317554D1*
X1103306Y2269299D2*
X1111109D1*
X1119439D2*
X1127242D1*
X1133226D2*
X1153854D1*
X1160154D2*
X1166138D1*
X1178693D2*
X1185690D1*
X1196058D2*
X1202042D1*
X1209258D2*
X1214010D1*
X1219994D2*
X1242170D1*
X1250031D2*
X1267550D1*
X1276842D2*
X1281653D1*
X1295381D2*
X1318180D1*
X1103306Y2266307D2*
X1110039D1*
X1120510D2*
X1154055D1*
X1160154D2*
X1166138D1*
X1179717D2*
X1184090D1*
X1196058D2*
X1202042D1*
X1210156D2*
X1222986D1*
X1228970D2*
X1240076D1*
X1248287D2*
X1267751D1*
X1276842D2*
X1280583D1*
X1296405D2*
X1318519D1*
X1103306Y2263315D2*
X1109290D1*
X1121258D2*
X1154170D1*
X1160154D2*
X1166138D1*
X1181098D2*
X1202042D1*
X1211018D2*
X1222986D1*
X1228970D2*
X1237946D1*
X1246922D2*
X1267866D1*
X1276842D2*
X1279834D1*
X1297786D2*
X1318730D1*
X1196058Y2445827D2*
X1195572Y2442835D1*
X1194585Y2439843D1*
X1193136Y2436851D1*
X1189413Y2433859D1*
X1184188Y2430867D1*
X1178106Y2427875D1*
X1228970Y2445827D2*
X1229456Y2442835D1*
X1230443Y2439843D1*
X1231893Y2436851D1*
X1235615Y2433859D1*
X1240840Y2430867D1*
X1246922Y2427875D1*
X1145194Y2436851D2*
X1141077Y2433859D1*
X1136940Y2430867D1*
X1133278Y2427875D1*
X1130299Y2424883D1*
X1129175Y2421891D1*
X1131224Y2418899D1*
X1133665Y2415907D1*
X1136395Y2412915D1*
X1139273Y2409923D1*
X1142202Y2406931D1*
X1140289Y2403939D1*
X1138010Y2400947D1*
X1135011Y2397955D1*
X1127780Y2394963D1*
X1119782Y2391971D1*
X1113383Y2388979D1*
X1108808Y2385987D1*
X1107472Y2382995D1*
X1106792Y2380003D1*
X1106691Y2377011D1*
X1107069Y2374019D1*
X1110405Y2371027D1*
X1118208Y2368035D1*
X1125926Y2365043D1*
X1131699Y2362051D1*
X1135793Y2359059D1*
X1139113Y2356067D1*
X1142202Y2353075D1*
X1139210Y2350083D1*
X1136230Y2347091D1*
X1133366Y2344099D1*
X1131001Y2341107D1*
X1129258Y2338115D1*
X1129054Y2335123D1*
X1132303Y2332131D1*
X1136141Y2329139D1*
X1140516Y2326147D1*
X1145194Y2323155D1*
X1148186Y2436851D2*
X1155562Y2433859D1*
X1162471Y2430867D1*
X1169130Y2427875D1*
X1276842Y2436851D2*
X1269466Y2433859D1*
X1262557Y2430867D1*
X1255898Y2427875D1*
X1279834Y2436851D2*
X1283951Y2433859D1*
X1288089Y2430867D1*
X1291750Y2427875D1*
X1294729Y2424883D1*
X1295854Y2421891D1*
X1293804Y2418899D1*
X1291363Y2415907D1*
X1288634Y2412915D1*
X1285755Y2409923D1*
X1282826Y2406931D1*
X1284740Y2403939D1*
X1287019Y2400947D1*
X1290017Y2397955D1*
X1297249Y2394963D1*
X1305246Y2391971D1*
X1311646Y2388979D1*
X1316220Y2385987D1*
X1317557Y2382995D1*
X1318236Y2380003D1*
X1318337Y2377011D1*
X1317959Y2374019D1*
X1314623Y2371027D1*
X1306821Y2368035D1*
X1299102Y2365043D1*
X1293329Y2362051D1*
X1289236Y2359059D1*
X1285915Y2356067D1*
X1282826Y2353075D1*
X1285818Y2350083D1*
X1288798Y2347091D1*
X1291662Y2344099D1*
X1294027Y2341107D1*
X1295770Y2338115D1*
X1295975Y2335123D1*
X1292725Y2332131D1*
X1288887Y2329139D1*
X1284513Y2326147D1*
X1279834Y2323155D1*
X1202042Y2397955D2*
X1196658Y2394963D1*
X1192021Y2391971D1*
X1188411Y2388979D1*
X1185674Y2385987D1*
X1183354Y2382995D1*
X1181098Y2380003D1*
X1183067Y2377011D1*
X1185180Y2374019D1*
X1187711Y2371027D1*
X1190793Y2368035D1*
X1194394Y2365043D1*
X1198221Y2362051D1*
X1202042Y2359059D1*
X1199513Y2356067D1*
X1197274Y2353075D1*
X1195162Y2350083D1*
X1193087Y2347091D1*
X1191195Y2344099D1*
X1189478Y2341107D1*
X1187778Y2338115D1*
X1185859Y2335123D1*
X1183574Y2332131D1*
X1181098Y2329139D1*
X1222986Y2397955D2*
X1228370Y2394963D1*
X1233007Y2391971D1*
X1236618Y2388979D1*
X1239355Y2385987D1*
X1241674Y2382995D1*
X1243930Y2380003D1*
X1241961Y2377011D1*
X1239848Y2374019D1*
X1237318Y2371027D1*
X1234235Y2368035D1*
X1230634Y2365043D1*
X1226807Y2362051D1*
X1222986Y2359059D1*
X1225516Y2356067D1*
X1227754Y2353075D1*
X1229866Y2350083D1*
X1231941Y2347091D1*
X1233834Y2344099D1*
X1235550Y2341107D1*
X1237251Y2338115D1*
X1239170Y2335123D1*
X1241455Y2332131D1*
X1243930Y2329139D1*
X1169130Y2332131D2*
X1163146Y2329139D1*
X1157162Y2326147D1*
X1151178Y2323155D1*
X1175114Y2332131D2*
X1178106Y2329139D1*
X1249914Y2332131D2*
X1246922Y2329139D1*
X1255898Y2332131D2*
X1261882Y2329139D1*
X1267866Y2326147D1*
X1273850Y2323155D1*
X1079370Y2308195D2*
Y2305203D1*
Y2302211D1*
Y2299219D1*
Y2296227D1*
Y2293235D1*
Y2290243D1*
X1094330Y2308195D2*
X1095711Y2305203D1*
X1096559Y2302211D1*
X1096880Y2299219D1*
X1096611Y2296227D1*
X1095668Y2293235D1*
X1094330Y2290243D1*
X1103306Y2308195D2*
Y2305203D1*
Y2302211D1*
Y2299219D1*
Y2296227D1*
Y2293235D1*
Y2290243D1*
Y2287251D1*
Y2284259D1*
Y2281267D1*
Y2278275D1*
Y2275283D1*
Y2272291D1*
Y2269299D1*
Y2266307D1*
Y2263315D1*
X1121258Y2308195D2*
X1124250Y2305203D1*
X1136218Y2308195D2*
X1133226Y2305203D1*
X1148186Y2308195D2*
X1150590Y2305203D1*
X1152328Y2302211D1*
X1153497Y2299219D1*
X1153311Y2296227D1*
X1152453Y2293235D1*
X1151178Y2290243D1*
X1160154Y2308195D2*
Y2305203D1*
Y2302211D1*
Y2299219D1*
Y2296227D1*
Y2293235D1*
Y2290243D1*
X1178106Y2308195D2*
X1179487Y2305203D1*
X1180347Y2302211D1*
X1180781Y2299219D1*
X1180975Y2296227D1*
X1181055Y2293235D1*
X1181098Y2290243D1*
X1202042Y2308195D2*
X1200575Y2305203D1*
X1200432Y2302211D1*
X1202427Y2299219D1*
X1205034Y2296227D1*
X1201855Y2293235D1*
X1199050Y2290243D1*
X1217002Y2308195D2*
X1219994Y2305203D1*
X1217002Y2302211D1*
X1219994Y2299219D1*
X1228970Y2308195D2*
X1227578Y2305203D1*
X1226653Y2302211D1*
X1225978Y2299219D1*
X1243930Y2308195D2*
X1245520Y2305203D1*
X1246922Y2302211D1*
X1252906Y2308195D2*
Y2305203D1*
Y2302211D1*
X1258890Y2308195D2*
Y2305203D1*
Y2302211D1*
Y2299219D1*
Y2296227D1*
X1270858Y2308195D2*
Y2305203D1*
Y2302211D1*
Y2299219D1*
Y2296227D1*
X1276842Y2308195D2*
Y2305203D1*
Y2302211D1*
Y2299219D1*
Y2296227D1*
Y2293235D1*
Y2290243D1*
X1282826Y2308195D2*
Y2305203D1*
Y2302211D1*
Y2299219D1*
Y2296227D1*
Y2293235D1*
Y2290243D1*
X1300778Y2308195D2*
X1306762D2*
X1321722D2*
X1330698D2*
X1345658D2*
Y2305203D1*
Y2302211D1*
Y2299219D1*
Y2296227D1*
Y2293235D1*
Y2290243D1*
X1085354Y2305203D2*
X1082362Y2302211D1*
X1079370Y2299219D1*
X1082362Y2296227D1*
X1091338Y2305203D2*
Y2302211D1*
Y2299219D1*
Y2296227D1*
X1109290Y2305203D2*
Y2302211D1*
Y2299219D1*
Y2296227D1*
X1115274Y2305203D2*
X1117716Y2302211D1*
X1119658Y2299219D1*
X1121258Y2296227D1*
X1139210Y2305203D2*
X1136218Y2302211D1*
X1142202Y2305203D2*
X1145194Y2302211D1*
X1169130Y2305203D2*
X1166726Y2302211D1*
X1164976Y2299219D1*
X1163971Y2296227D1*
X1163462Y2293235D1*
X1163146Y2290243D1*
X1175114Y2305203D2*
Y2302211D1*
Y2299219D1*
Y2296227D1*
Y2293235D1*
Y2290243D1*
X1211018Y2305203D2*
X1208026Y2302211D1*
X1231962Y2305203D2*
Y2302211D1*
Y2299219D1*
Y2296227D1*
X1237946Y2305203D2*
X1240388Y2302211D1*
X1242330Y2299219D1*
X1243930Y2296227D1*
X1288810Y2305203D2*
Y2302211D1*
Y2299219D1*
Y2296227D1*
Y2293235D1*
Y2290243D1*
X1300778Y2305203D2*
X1300904Y2302211D1*
X1301403Y2299219D1*
X1302608Y2296227D1*
X1304522Y2293235D1*
X1306762Y2290243D1*
X1312746Y2305203D2*
X1309754Y2302211D1*
X1306762Y2299219D1*
X1309754Y2296227D1*
X1315738Y2305203D2*
X1318730Y2302211D1*
X1324714Y2305203D2*
X1321722Y2302211D1*
X1327706Y2305203D2*
Y2302211D1*
Y2299219D1*
Y2296227D1*
X1336682Y2305203D2*
X1333690Y2302211D1*
X1339674Y2305203D2*
X1342666Y2302211D1*
X1246922Y2296227D2*
Y2293235D1*
Y2290243D1*
X1249914Y2296227D2*
X1252906Y2293235D1*
X1255898Y2290243D1*
X1139210Y2293235D2*
X1124250Y2290243D1*
X1109290Y2287251D1*
X1110739Y2284259D1*
X1114590Y2281267D1*
X1118889Y2278275D1*
X1122535Y2275283D1*
X1125174Y2272291D1*
X1127242Y2269299D1*
X1130234Y2293235D2*
X1133226Y2290243D1*
X1222986Y2293235D2*
X1219994Y2290243D1*
X1225978Y2293235D2*
X1228970Y2290243D1*
X1327706Y2293235D2*
X1324714Y2290243D1*
X1327706Y2293235D2*
X1330698Y2290243D1*
X1196058Y2284259D2*
X1190448Y2281267D1*
X1184090Y2278275D1*
X1202042Y2284259D2*
X1205573Y2281267D1*
X1208987Y2278275D1*
X1211860Y2275283D1*
X1213070Y2272291D1*
X1214010Y2269299D1*
X1133226Y2278275D2*
X1134629Y2275283D1*
X1136218Y2272291D1*
X1133226Y2269299D1*
X1151178Y2278275D2*
X1152559Y2275283D1*
X1153419Y2272291D1*
X1153854Y2269299D1*
X1154055Y2266307D1*
X1154170Y2263315D1*
X1160154Y2278275D2*
Y2275283D1*
Y2272291D1*
Y2269299D1*
Y2266307D1*
Y2263315D1*
X1178106Y2278275D2*
X1222986D2*
X1221936Y2275283D1*
X1220919Y2272291D1*
X1219994Y2269299D1*
X1228970Y2278275D2*
X1230373Y2275283D1*
X1231962Y2272291D1*
X1240938Y2278275D2*
X1239349Y2275283D1*
X1237946Y2272291D1*
X1264874Y2278275D2*
X1266255Y2275283D1*
X1267115Y2272291D1*
X1267550Y2269299D1*
X1267751Y2266307D1*
X1267866Y2263315D1*
X1276842Y2278275D2*
Y2275283D1*
Y2272291D1*
Y2269299D1*
Y2266307D1*
Y2263315D1*
X1294794Y2278275D2*
X1300778D2*
X1312746D2*
X1315508Y2275283D1*
X1317554Y2272291D1*
X1318180Y2269299D1*
X1318519Y2266307D1*
X1318730Y2263315D1*
X1115274Y2275283D2*
X1112869Y2272291D1*
X1111109Y2269299D1*
X1110039Y2266307D1*
X1109290Y2263315D1*
X1115274Y2275283D2*
X1117679Y2272291D1*
X1119439Y2269299D1*
X1120510Y2266307D1*
X1121258Y2263315D1*
X1145194Y2275283D2*
X1148186Y2272291D1*
X1166138Y2275283D2*
Y2272291D1*
Y2269299D1*
Y2266307D1*
Y2263315D1*
X1178106Y2275283D2*
X1178229Y2272291D1*
X1178693Y2269299D1*
X1179717Y2266307D1*
X1181098Y2263315D1*
X1190074Y2275283D2*
X1187632Y2272291D1*
X1185690Y2269299D1*
X1184090Y2266307D1*
X1196058Y2275283D2*
Y2272291D1*
Y2269299D1*
Y2266307D1*
X1202042Y2275283D2*
Y2272291D1*
Y2269299D1*
Y2266307D1*
Y2263315D1*
X1208026Y2275283D2*
X1208491Y2272291D1*
X1209258Y2269299D1*
X1210156Y2266307D1*
X1211018Y2263315D1*
X1246922Y2275283D2*
X1244395Y2272291D1*
X1242170Y2269299D1*
X1240076Y2266307D1*
X1237946Y2263315D1*
X1258890Y2275283D2*
X1254081Y2272291D1*
X1250031Y2269299D1*
X1248287Y2266307D1*
X1246922Y2263315D1*
X1261882Y2275283D2*
X1264874Y2272291D1*
X1285818Y2275283D2*
X1283413Y2272291D1*
X1281653Y2269299D1*
X1280583Y2266307D1*
X1279834Y2263315D1*
X1294794Y2275283D2*
X1294917Y2272291D1*
X1295381Y2269299D1*
X1296405Y2266307D1*
X1297786Y2263315D1*
X1306762Y2275283D2*
X1303770Y2272291D1*
X1309754Y2275283D2*
X1312746Y2272291D1*
X1222986Y2269299D2*
Y2266307D1*
Y2263315D1*
X1228970Y2269299D2*
Y2266307D1*
Y2263315D1*
X1706542Y2326099D2*
D37*
X1676397Y2326100D1*
X1706542Y2336147D2*
X1706541Y2316051D1*
X1696493Y2306788D2*
X1676397Y2291003D1*
X1696493D2*
X1676397Y2306788D1*
X1692182Y2223418D2*
Y2210518D1*
X1693642Y2206207D1*
X1695068Y2204748D1*
X1697919Y2203322D1*
X1700805D1*
X1703656Y2204748D1*
X1705116Y2206207D1*
X1706541Y2210518D1*
Y2223418D1*
X1676398D1*
X1692182Y2213370D2*
X1676398Y2203322D1*
X1696494Y2194059D2*
X1676398Y2178274D1*
X1696494D2*
X1676398Y2194059D1*
X1687426Y1829574D2*
Y1816641D1*
X1688852Y1812363D1*
X1690311Y1810904D1*
X1693163Y1809478D1*
X1697474D1*
X1700326Y1810904D1*
X1701785Y1812363D1*
X1703211Y1816641D1*
Y1829574D1*
X1673067D1*
X1703178Y1791592D2*
X1701752Y1795903D1*
X1697441Y1798789D1*
X1690278Y1800214D1*
X1685967D1*
X1678804Y1798789D1*
X1674493Y1795903D1*
X1673067Y1791592D1*
Y1788741D1*
X1674493Y1784430D1*
X1678804Y1781578D1*
X1685967Y1780119D1*
X1690278D1*
X1697441Y1781578D1*
X1701752Y1784430D1*
X1703178Y1788741D1*
Y1791592D1*
X1697441Y1781578D2*
X1678804Y1798789D1*
X1687032Y1729968D2*
Y1717035D1*
X1688458Y1712757D1*
X1689917Y1711298D1*
X1692769Y1709872D1*
X1697080D1*
X1699932Y1711298D1*
X1701391Y1712757D1*
X1702817Y1717035D1*
Y1729968D1*
X1672673D1*
X1697047Y1700608D2*
X1698506Y1697723D1*
X1702784Y1693412D1*
X1672673D1*
X1685851Y1629574D2*
Y1616641D1*
X1687277Y1612363D1*
X1688736Y1610904D1*
X1691588Y1609478D1*
X1695899D1*
X1698751Y1610904D1*
X1700210Y1612363D1*
X1701636Y1616641D1*
Y1629574D1*
X1671492D1*
X1694440Y1598755D2*
X1695866D1*
X1698751Y1597329D1*
X1700177Y1595903D1*
X1701603Y1593018D1*
Y1587281D1*
X1700177Y1584430D1*
X1698751Y1583004D1*
X1695866Y1581544D1*
X1693014D1*
X1690129Y1583004D1*
X1685851Y1585855D1*
X1671492Y1600215D1*
Y1580119D1*
X1685851Y1530361D2*
Y1517428D1*
X1687277Y1513150D1*
X1688736Y1511691D1*
X1691588Y1510265D1*
X1695899D1*
X1698751Y1511691D1*
X1700210Y1513150D1*
X1701636Y1517428D1*
Y1530361D1*
X1671492D1*
X1701603Y1498117D2*
Y1482365D1*
X1690129Y1490954D1*
Y1486643D1*
X1688703Y1483791D1*
X1687277Y1482365D1*
X1682966Y1480906D1*
X1680114D1*
X1675803Y1482365D1*
X1672918Y1485217D1*
X1671492Y1489528D1*
Y1493839D1*
X1672918Y1498117D1*
X1674377Y1499543D1*
X1677229Y1501002D1*
X1687032Y1429574D2*
Y1416641D1*
X1688458Y1412363D1*
X1689917Y1410904D1*
X1692769Y1409478D1*
X1697080D1*
X1699932Y1410904D1*
X1701391Y1412363D1*
X1702817Y1416641D1*
Y1429574D1*
X1672673D1*
Y1385856D2*
X1702784Y1385855D1*
X1682721Y1400214D1*
Y1378693D1*
X1687426Y1329968D2*
Y1317035D1*
X1688852Y1312757D1*
X1690311Y1311298D1*
X1693163Y1309872D1*
X1697474D1*
X1700326Y1311298D1*
X1701785Y1312757D1*
X1703211Y1317035D1*
Y1329968D1*
X1673067D1*
X1703178Y1283397D2*
Y1297723D1*
X1690278Y1299149D1*
X1691704Y1297723D1*
X1693163Y1293412D1*
Y1289134D1*
X1691704Y1284823D1*
X1688852Y1281938D1*
X1684541Y1280512D1*
X1681689D1*
X1677378Y1281938D1*
X1674493Y1284823D1*
X1673067Y1289134D1*
Y1293412D1*
X1674493Y1297723D1*
X1675952Y1299149D1*
X1678804Y1300608D1*
X1686638Y1229574D2*
Y1216641D1*
X1688064Y1212363D1*
X1689523Y1210904D1*
X1692375Y1209478D1*
X1696686D1*
X1699538Y1210904D1*
X1700997Y1212363D1*
X1702423Y1216641D1*
Y1229574D1*
X1672279D1*
X1698112Y1183004D2*
X1700964Y1184430D1*
X1702390Y1188741D1*
Y1191592D1*
X1700964Y1195903D1*
X1696653Y1198789D1*
X1689490Y1200214D1*
X1682327D1*
X1676590Y1198789D1*
X1673705Y1195903D1*
X1672279Y1191592D1*
Y1190167D1*
X1673705Y1185889D1*
X1676590Y1183004D1*
X1680901Y1181578D1*
X1682327D1*
X1686638Y1183004D1*
X1689490Y1185889D1*
X1690916Y1190166D1*
Y1191592D1*
X1689490Y1195903D1*
X1686638Y1198789D1*
X1682327Y1200214D1*
X1687426Y1129574D2*
Y1116641D1*
X1688852Y1112363D1*
X1690311Y1110904D1*
X1693163Y1109478D1*
X1697474D1*
X1700326Y1110904D1*
X1701785Y1112363D1*
X1703211Y1116641D1*
Y1129574D1*
X1673067D1*
Y1094478D2*
X1703178Y1080118D1*
Y1100214D1*
X1593284Y530300D2*
X1591858Y533152D1*
X1588973Y536037D1*
X1586121Y537463D1*
X1580384D1*
X1577499Y536037D1*
X1574647Y533152D1*
X1573188Y530300D1*
X1571762Y525989D1*
Y518793D1*
X1573188Y514515D1*
X1574647Y511630D1*
X1577499Y508778D1*
X1580384Y507319D1*
X1586121D1*
X1588973Y508778D1*
X1591858Y511630D1*
X1593284Y514515D1*
Y518793D1*
X1586121D1*
X1622644Y537463D2*
Y507319D1*
X1602548Y537463D1*
Y507319D1*
X1631907Y537463D2*
Y507319D1*
X1641955D1*
X1646266Y508778D1*
X1649151Y511630D1*
X1650577Y514515D1*
X1652003Y518793D1*
Y525989D1*
X1650577Y530300D1*
X1649151Y533152D1*
X1646266Y536037D1*
X1641955Y537463D1*
X1631907D1*
X1492103Y531087D2*
X1490677Y533939D1*
X1487792Y536824D1*
X1484940Y538250D1*
X1479203D1*
X1476318Y536824D1*
X1473466Y533939D1*
X1472007Y531087D1*
X1470581Y526776D1*
Y519580D1*
X1472007Y515302D1*
X1473466Y512417D1*
X1476318Y509565D1*
X1479203Y508106D1*
X1484940D1*
X1487792Y509565D1*
X1490677Y512417D1*
X1492103Y515302D1*
Y519580D1*
X1484940D1*
X1521463Y538250D2*
Y508106D1*
X1501367Y538250D1*
Y508106D1*
X1530726Y538250D2*
Y508106D1*
X1540774D1*
X1545085Y509565D1*
X1547970Y512417D1*
X1549396Y515302D1*
X1550822Y519580D1*
Y526776D1*
X1549396Y531087D1*
X1547970Y533939D1*
X1545085Y536824D1*
X1540774Y538250D1*
X1530726D1*
X1390922Y529512D2*
X1389496Y532364D1*
X1386611Y535249D1*
X1383759Y536675D1*
X1378022D1*
X1375137Y535249D1*
X1372285Y532364D1*
X1370826Y529512D1*
X1369400Y525201D1*
Y518005D1*
X1370826Y513727D1*
X1372285Y510842D1*
X1375137Y507991D1*
X1378022Y506531D1*
X1383759D1*
X1386611Y507991D1*
X1389496Y510842D1*
X1390922Y513727D1*
Y518005D1*
X1383759D1*
X1420282Y536675D2*
Y506531D1*
X1400186Y536675D1*
Y506531D1*
X1429545Y536675D2*
Y506531D1*
X1439593D1*
X1443904Y507991D1*
X1446789Y510842D1*
X1448215Y513727D1*
X1449641Y518005D1*
Y525201D1*
X1448215Y529512D1*
X1446789Y532364D1*
X1443904Y535249D1*
X1439593Y536675D1*
X1429545D1*
X1292103Y529512D2*
X1290677Y532364D1*
X1287792Y535249D1*
X1284940Y536675D1*
X1279203D1*
X1276318Y535249D1*
X1273466Y532364D1*
X1272007Y529512D1*
X1270581Y525201D1*
Y518005D1*
X1272007Y513727D1*
X1273466Y510842D1*
X1276318Y507991D1*
X1279203Y506531D1*
X1284940D1*
X1287792Y507991D1*
X1290677Y510842D1*
X1292103Y513727D1*
Y518005D1*
X1284940D1*
X1321463Y536675D2*
Y506531D1*
X1301367Y536675D1*
Y506531D1*
X1330726Y536675D2*
Y506531D1*
X1340774D1*
X1345085Y507991D1*
X1347970Y510842D1*
X1349396Y513727D1*
X1350822Y518005D1*
Y525201D1*
X1349396Y529512D1*
X1347970Y532364D1*
X1345085Y535249D1*
X1340774Y536675D1*
X1330726D1*
X1190922Y530300D2*
X1189496Y533152D1*
X1186611Y536037D1*
X1183759Y537463D1*
X1178022D1*
X1175137Y536037D1*
X1172285Y533152D1*
X1170826Y530300D1*
X1169400Y525989D1*
Y518793D1*
X1170826Y514515D1*
X1172285Y511630D1*
X1175137Y508778D1*
X1178022Y507319D1*
X1183759D1*
X1186611Y508778D1*
X1189496Y511630D1*
X1190922Y514515D1*
Y518793D1*
X1183759D1*
X1220282Y537463D2*
Y507319D1*
X1200186Y537463D1*
Y507319D1*
X1229545Y537463D2*
Y507319D1*
X1239593D1*
X1243904Y508778D1*
X1246789Y511630D1*
X1248215Y514515D1*
X1249641Y518793D1*
Y525989D1*
X1248215Y530300D1*
X1246789Y533152D1*
X1243904Y536037D1*
X1239593Y537463D1*
X1229545D1*
X802753Y537036D2*
X788427D1*
X787001Y524136D1*
X788427Y525562D1*
X792738Y527021D1*
X797016D1*
X801327Y525562D1*
X804212Y522710D1*
X805638Y518399D1*
Y515547D1*
X804212Y511236D1*
X801327Y508351D1*
X797016Y506925D1*
X792738D1*
X788427Y508351D1*
X787001Y509810D1*
X785542Y512662D1*
X814901Y537069D2*
X826375Y506925D1*
X837849Y537069D1*
X899997Y538611D2*
X885671D1*
X884245Y525711D1*
X885671Y527137D1*
X889982Y528596D1*
X894260D1*
X898571Y527137D1*
X901456Y524285D1*
X902882Y519974D1*
Y517122D1*
X901456Y512811D1*
X898571Y509926D1*
X894260Y508500D1*
X889982D1*
X885671Y509926D1*
X884245Y511385D1*
X882786Y514237D1*
X912145Y538644D2*
X923619Y508500D1*
X935093Y538644D1*
X981181Y529809D2*
D38*
X991683D1*
X985957Y522159D1*
X988831D1*
X990732Y521209D1*
X991683Y520258D1*
X992655Y517384D1*
Y515483D1*
X991683Y512609D1*
X989781Y510686D1*
X986907Y509735D1*
X984033D1*
X981181Y510686D1*
X980231Y511658D1*
X979258Y513560D1*
X999782Y511658D2*
X998831Y510686D1*
X999782Y509735D1*
X1000754Y510686D1*
X999782Y511658D1*
X1008854Y529809D2*
X1019355D1*
X1013629Y522159D1*
X1016503D1*
X1018404Y521209D1*
X1019355Y520258D1*
X1020327Y517384D1*
Y515483D1*
X1019355Y512609D1*
X1017453Y510686D1*
X1014579Y509735D1*
X1011705D1*
X1008854Y510686D1*
X1007903Y511658D1*
X1006930Y513560D1*
X1026503Y529831D2*
X1034152Y509735D1*
X1041802Y529831D1*
X1080394Y531777D2*
X1090895D1*
X1085169Y524128D1*
X1088043D1*
X1089945Y523177D1*
X1090895Y522227D1*
X1091868Y519353D1*
Y517451D1*
X1090895Y514577D1*
X1088994Y512654D1*
X1086120Y511703D1*
X1083246D1*
X1080394Y512654D1*
X1079443Y513627D1*
X1078471Y515528D1*
X1098994Y513627D2*
X1098044Y512654D1*
X1098994Y511703D1*
X1099967Y512654D1*
X1098994Y513627D1*
X1108066Y531777D2*
X1118567D1*
X1112841Y524128D1*
X1115715D1*
X1117617Y523177D1*
X1118567Y522227D1*
X1119540Y519353D1*
Y517451D1*
X1118567Y514577D1*
X1116666Y512654D1*
X1113792Y511703D1*
X1110918D1*
X1108066Y512654D1*
X1107116Y513627D1*
X1106143Y515528D1*
X1125716Y531799D2*
X1133365Y511703D1*
X1141014Y531799D1*
X728067Y1853151D2*
D39*
X733770Y1856003D1*
X739541Y1861773D1*
X742393Y1867477D1*
Y1878951D1*
X739541Y1884721D1*
X733771Y1890425D1*
X728067Y1893343D1*
X719445Y1896195D1*
X705052D1*
X696497Y1893343D1*
X690727Y1890425D1*
X685023Y1884721D1*
X682104Y1878951D1*
Y1867477D1*
X685023Y1861773D1*
X690727Y1856003D1*
X696497Y1853151D1*
X687875Y1831772D2*
X684956Y1834624D1*
X682105Y1831772D1*
X684956Y1828854D1*
X687875Y1831772D1*
X742392Y1810327D2*
X682105D1*
X742393Y1770135D2*
X682105D1*
X713674Y1810327D2*
Y1770135D1*
X687875Y1748756D2*
X684956Y1751608D1*
X682105Y1748756D1*
X684956Y1745838D1*
X687875Y1748756D1*
X742393Y1727311D2*
X682105D1*
X687875Y1705932D2*
X684956Y1708784D1*
X682105Y1705932D1*
X684956Y1703013D1*
X687875Y1705932D1*
X710823Y1684486D2*
Y1658620D1*
X713674Y1650064D1*
X716593Y1647146D1*
X722297Y1644294D1*
X730919D1*
X736622Y1647146D1*
X739541Y1650064D1*
X742393Y1658620D1*
Y1684486D1*
X682105D1*
X687875Y1622915D2*
X684956Y1625767D1*
X682105Y1622915D1*
X684956Y1619997D1*
X687875Y1622915D1*
X710823Y1543149D2*
Y1517283D1*
X713674Y1508727D1*
X716593Y1505809D1*
X722297Y1502957D1*
X730919D1*
X736622Y1505809D1*
X739541Y1508727D1*
X742393Y1517283D1*
Y1543149D1*
X682105D1*
X722297Y1484430D2*
X682105D1*
X705052D2*
X713674Y1481511D1*
X719445Y1475808D1*
X722297Y1470038D1*
Y1461415D1*
Y1428563D2*
X719445Y1434266D1*
X713675Y1440036D1*
X705052Y1442888D1*
X699349D1*
X690727Y1440036D1*
X685023Y1434266D1*
X682105Y1428563D1*
Y1419940D1*
X685023Y1414170D1*
X690727Y1408467D1*
X699349Y1405548D1*
X705052D1*
X713675Y1408467D1*
X719445Y1414170D1*
X722297Y1419940D1*
Y1428563D1*
X742393Y1378399D2*
X693579D1*
X685023Y1375547D1*
X682105Y1369777D1*
Y1364073D1*
X722297Y1387021D2*
Y1366925D1*
Y1331220D2*
X719445Y1336924D1*
X713675Y1342694D1*
X705052Y1345546D1*
X699349D1*
X690727Y1342694D1*
X685023Y1336924D1*
X682105Y1331220D1*
Y1322598D1*
X685023Y1316828D1*
X690727Y1311124D1*
X699349Y1308206D1*
X705052D1*
X713675Y1311124D1*
X719445Y1316828D1*
X722297Y1322598D1*
Y1331220D1*
X742393Y1281057D2*
X693579D1*
X685023Y1278205D1*
X682105Y1272435D1*
Y1266731D1*
X722297Y1289679D2*
Y1269583D1*
Y1245286D2*
X682105Y1228108D1*
X670631Y1233812D1*
X664860Y1239582D1*
X662009Y1245286D1*
Y1248204D1*
X722297Y1210864D2*
X682105Y1228108D1*
X722297Y1192337D2*
X662009D1*
X713675D2*
X719378Y1186567D1*
X722297Y1180863D1*
Y1172241D1*
X719378Y1166471D1*
X713675Y1160767D1*
X705052Y1157849D1*
X699282D1*
X690727Y1160767D1*
X684956Y1166471D1*
X682105Y1172241D1*
Y1180863D1*
X684956Y1186567D1*
X690727Y1192337D1*
X705052Y1139321D2*
Y1104900D1*
X710823D1*
X716593Y1107752D1*
X719445Y1110603D1*
X722297Y1116374D1*
Y1124996D1*
X719445Y1130699D1*
X713675Y1136470D1*
X705052Y1139321D1*
X699349D1*
X690727Y1136470D1*
X685023Y1130699D1*
X682105Y1124996D1*
Y1116374D1*
X685023Y1110603D1*
X690727Y1104900D1*
X742393Y1028051D2*
X682105D1*
Y1007955D1*
X685023Y999333D1*
X690727Y993563D1*
X696497Y990711D1*
X705052Y987859D1*
X719445D1*
X728067Y990711D1*
X733771Y993563D1*
X739541Y999333D1*
X742393Y1007955D1*
Y1028051D1*
Y969332D2*
X739541Y966480D1*
X742393Y963562D1*
X745311Y966480D1*
X742393Y969332D1*
X722297Y966480D2*
X682105D1*
X722297Y945035D2*
X662009D1*
X713675D2*
X719378Y939265D1*
X722297Y933561D1*
Y924939D1*
X719378Y919169D1*
X713675Y913465D1*
X705052Y910547D1*
X699282D1*
X690727Y913465D1*
X684956Y919169D1*
X682105Y924939D1*
Y933561D1*
X684956Y939265D1*
X690727Y945035D1*
M02*
